solid delaunay_tile_box_corner_post
  facet normal 0.000000 0.000000 1.000000
    outer loop
      vertex -1.000000 -9.000000 101.600000
      vertex 9.000000 -9.000000 101.600000
      vertex 9.000000 9.000000 101.600000
    endloop
  endfacet
  facet normal 0.000000 0.000000 -1.000000
    outer loop
      vertex -1.000000 -9.000000 0.000000
      vertex 9.000000 9.000000 0.000000
      vertex 9.000000 -9.000000 0.000000
    endloop
  endfacet
  facet normal 0.000000 -0.000000 1.000000
    outer loop
      vertex -1.000000 -9.000000 101.600000
      vertex 9.000000 9.000000 101.600000
      vertex -9.000000 9.000000 101.600000
    endloop
  endfacet
  facet normal 0.000000 0.000000 -1.000000
    outer loop
      vertex -1.000000 -9.000000 0.000000
      vertex -9.000000 9.000000 0.000000
      vertex 9.000000 9.000000 0.000000
    endloop
  endfacet
  facet normal 0.000000 0.000000 1.000000
    outer loop
      vertex -1.000000 -9.000000 101.600000
      vertex -9.000000 9.000000 101.600000
      vertex -9.000000 -1.000000 101.600000
    endloop
  endfacet
  facet normal 0.000000 0.000000 -1.000000
    outer loop
      vertex -1.000000 -9.000000 0.000000
      vertex -9.000000 -1.000000 0.000000
      vertex -9.000000 9.000000 0.000000
    endloop
  endfacet
  facet normal 0.000000 -1.000000 0.000000
    outer loop
      vertex -1.000000 -9.000000 0.000000
      vertex 9.000000 -9.000000 0.000000
      vertex 9.000000 -9.000000 101.600000
    endloop
  endfacet
  facet normal 0.000000 -1.000000 0.000000
    outer loop
      vertex -1.000000 -9.000000 0.000000
      vertex 9.000000 -9.000000 101.600000
      vertex -1.000000 -9.000000 101.600000
    endloop
  endfacet
  facet normal 1.000000 0.000000 0.000000
    outer loop
      vertex 9.000000 -9.000000 0.000000
      vertex 9.000000 9.000000 0.000000
      vertex 9.000000 9.000000 101.600000
    endloop
  endfacet
  facet normal 1.000000 0.000000 0.000000
    outer loop
      vertex 9.000000 -9.000000 0.000000
      vertex 9.000000 9.000000 101.600000
      vertex 9.000000 -9.000000 101.600000
    endloop
  endfacet
  facet normal 0.000000 1.000000 0.000000
    outer loop
      vertex 9.000000 9.000000 0.000000
      vertex -9.000000 9.000000 0.000000
      vertex -9.000000 9.000000 101.600000
    endloop
  endfacet
  facet normal 0.000000 1.000000 -0.000000
    outer loop
      vertex 9.000000 9.000000 0.000000
      vertex -9.000000 9.000000 101.600000
      vertex 9.000000 9.000000 101.600000
    endloop
  endfacet
  facet normal -1.000000 0.000000 0.000000
    outer loop
      vertex -9.000000 9.000000 0.000000
      vertex -9.000000 -1.000000 0.000000
      vertex -9.000000 -1.000000 101.600000
    endloop
  endfacet
  facet normal -1.000000 0.000000 0.000000
    outer loop
      vertex -9.000000 9.000000 0.000000
      vertex -9.000000 -1.000000 101.600000
      vertex -9.000000 9.000000 101.600000
    endloop
  endfacet
  facet normal -0.707107 -0.707107 0.000000
    outer loop
      vertex -9.000000 -1.000000 0.000000
      vertex -1.000000 -9.000000 0.000000
      vertex -1.000000 -9.000000 101.600000
    endloop
  endfacet
  facet normal -0.707107 -0.707107 0.000000
    outer loop
      vertex -9.000000 -1.000000 0.000000
      vertex -1.000000 -9.000000 101.600000
      vertex -9.000000 -1.000000 101.600000
    endloop
  endfacet
  facet normal 0.000000 0.000000 1.000000
    outer loop
      vertex 9.000000 -4.775000 38.641667
      vertex 13.000000 -4.775000 38.641667
      vertex 13.000000 4.775000 38.641667
    endloop
  endfacet
  facet normal 0.000000 0.000000 1.000000
    outer loop
      vertex 9.000000 -4.775000 38.641667
      vertex 13.000000 4.775000 38.641667
      vertex 9.000000 4.775000 38.641667
    endloop
  endfacet
  facet normal 0.000000 0.000000 -1.000000
    outer loop
      vertex 9.000000 -4.775000 29.091667
      vertex 9.000000 4.775000 29.091667
      vertex 13.000000 4.775000 29.091667
    endloop
  endfacet
  facet normal 0.000000 0.000000 -1.000000
    outer loop
      vertex 9.000000 -4.775000 29.091667
      vertex 13.000000 4.775000 29.091667
      vertex 13.000000 -4.775000 29.091667
    endloop
  endfacet
  facet normal 0.000000 -1.000000 0.000000
    outer loop
      vertex 9.000000 -4.775000 29.091667
      vertex 13.000000 -4.775000 29.091667
      vertex 13.000000 -4.775000 38.641667
    endloop
  endfacet
  facet normal 0.000000 -1.000000 0.000000
    outer loop
      vertex 9.000000 -4.775000 29.091667
      vertex 13.000000 -4.775000 38.641667
      vertex 9.000000 -4.775000 38.641667
    endloop
  endfacet
  facet normal 1.000000 0.000000 0.000000
    outer loop
      vertex 13.000000 -4.775000 29.091667
      vertex 13.000000 4.775000 29.091667
      vertex 13.000000 4.775000 38.641667
    endloop
  endfacet
  facet normal 1.000000 0.000000 0.000000
    outer loop
      vertex 13.000000 -4.775000 29.091667
      vertex 13.000000 4.775000 38.641667
      vertex 13.000000 -4.775000 38.641667
    endloop
  endfacet
  facet normal 0.000000 1.000000 0.000000
    outer loop
      vertex 13.000000 4.775000 29.091667
      vertex 9.000000 4.775000 29.091667
      vertex 9.000000 4.775000 38.641667
    endloop
  endfacet
  facet normal 0.000000 1.000000 -0.000000
    outer loop
      vertex 13.000000 4.775000 29.091667
      vertex 9.000000 4.775000 38.641667
      vertex 13.000000 4.775000 38.641667
    endloop
  endfacet
  facet normal -1.000000 0.000000 0.000000
    outer loop
      vertex 9.000000 4.775000 29.091667
      vertex 9.000000 -4.775000 29.091667
      vertex 9.000000 -4.775000 38.641667
    endloop
  endfacet
  facet normal -1.000000 0.000000 0.000000
    outer loop
      vertex 9.000000 4.775000 29.091667
      vertex 9.000000 -4.775000 38.641667
      vertex 9.000000 4.775000 38.641667
    endloop
  endfacet
  facet normal 0.000000 0.000000 1.000000
    outer loop
      vertex 10.800000 -5.225000 34.916667
      vertex 12.750000 -5.225000 34.916667
      vertex 12.750000 5.225000 34.916667
    endloop
  endfacet
  facet normal 0.000000 0.000000 1.000000
    outer loop
      vertex 10.800000 -5.225000 34.916667
      vertex 12.750000 5.225000 34.916667
      vertex 10.800000 5.225000 34.916667
    endloop
  endfacet
  facet normal 0.000000 0.000000 -1.000000
    outer loop
      vertex 10.800000 -5.225000 32.816667
      vertex 10.800000 5.225000 32.816667
      vertex 12.750000 5.225000 32.816667
    endloop
  endfacet
  facet normal 0.000000 0.000000 -1.000000
    outer loop
      vertex 10.800000 -5.225000 32.816667
      vertex 12.750000 5.225000 32.816667
      vertex 12.750000 -5.225000 32.816667
    endloop
  endfacet
  facet normal 0.000000 -1.000000 0.000000
    outer loop
      vertex 10.800000 -5.225000 32.816667
      vertex 12.750000 -5.225000 32.816667
      vertex 12.750000 -5.225000 34.916667
    endloop
  endfacet
  facet normal 0.000000 -1.000000 0.000000
    outer loop
      vertex 10.800000 -5.225000 32.816667
      vertex 12.750000 -5.225000 34.916667
      vertex 10.800000 -5.225000 34.916667
    endloop
  endfacet
  facet normal 1.000000 0.000000 0.000000
    outer loop
      vertex 12.750000 -5.225000 32.816667
      vertex 12.750000 5.225000 32.816667
      vertex 12.750000 5.225000 34.916667
    endloop
  endfacet
  facet normal 1.000000 0.000000 0.000000
    outer loop
      vertex 12.750000 -5.225000 32.816667
      vertex 12.750000 5.225000 34.916667
      vertex 12.750000 -5.225000 34.916667
    endloop
  endfacet
  facet normal 0.000000 1.000000 0.000000
    outer loop
      vertex 12.750000 5.225000 32.816667
      vertex 10.800000 5.225000 32.816667
      vertex 10.800000 5.225000 34.916667
    endloop
  endfacet
  facet normal 0.000000 1.000000 -0.000000
    outer loop
      vertex 12.750000 5.225000 32.816667
      vertex 10.800000 5.225000 34.916667
      vertex 12.750000 5.225000 34.916667
    endloop
  endfacet
  facet normal -1.000000 0.000000 0.000000
    outer loop
      vertex 10.800000 5.225000 32.816667
      vertex 10.800000 -5.225000 32.816667
      vertex 10.800000 -5.225000 34.916667
    endloop
  endfacet
  facet normal -1.000000 0.000000 0.000000
    outer loop
      vertex 10.800000 5.225000 32.816667
      vertex 10.800000 -5.225000 34.916667
      vertex 10.800000 5.225000 34.916667
    endloop
  endfacet
  facet normal 0.000000 0.000000 1.000000
    outer loop
      vertex -4.775000 9.000000 38.641667
      vertex 4.775000 9.000000 38.641667
      vertex 4.775000 13.000000 38.641667
    endloop
  endfacet
  facet normal 0.000000 0.000000 1.000000
    outer loop
      vertex -4.775000 9.000000 38.641667
      vertex 4.775000 13.000000 38.641667
      vertex -4.775000 13.000000 38.641667
    endloop
  endfacet
  facet normal 0.000000 0.000000 -1.000000
    outer loop
      vertex -4.775000 9.000000 29.091667
      vertex -4.775000 13.000000 29.091667
      vertex 4.775000 13.000000 29.091667
    endloop
  endfacet
  facet normal 0.000000 0.000000 -1.000000
    outer loop
      vertex -4.775000 9.000000 29.091667
      vertex 4.775000 13.000000 29.091667
      vertex 4.775000 9.000000 29.091667
    endloop
  endfacet
  facet normal 0.000000 -1.000000 0.000000
    outer loop
      vertex -4.775000 9.000000 29.091667
      vertex 4.775000 9.000000 29.091667
      vertex 4.775000 9.000000 38.641667
    endloop
  endfacet
  facet normal 0.000000 -1.000000 0.000000
    outer loop
      vertex -4.775000 9.000000 29.091667
      vertex 4.775000 9.000000 38.641667
      vertex -4.775000 9.000000 38.641667
    endloop
  endfacet
  facet normal 1.000000 0.000000 0.000000
    outer loop
      vertex 4.775000 9.000000 29.091667
      vertex 4.775000 13.000000 29.091667
      vertex 4.775000 13.000000 38.641667
    endloop
  endfacet
  facet normal 1.000000 0.000000 0.000000
    outer loop
      vertex 4.775000 9.000000 29.091667
      vertex 4.775000 13.000000 38.641667
      vertex 4.775000 9.000000 38.641667
    endloop
  endfacet
  facet normal 0.000000 1.000000 0.000000
    outer loop
      vertex 4.775000 13.000000 29.091667
      vertex -4.775000 13.000000 29.091667
      vertex -4.775000 13.000000 38.641667
    endloop
  endfacet
  facet normal 0.000000 1.000000 -0.000000
    outer loop
      vertex 4.775000 13.000000 29.091667
      vertex -4.775000 13.000000 38.641667
      vertex 4.775000 13.000000 38.641667
    endloop
  endfacet
  facet normal -1.000000 0.000000 0.000000
    outer loop
      vertex -4.775000 13.000000 29.091667
      vertex -4.775000 9.000000 29.091667
      vertex -4.775000 9.000000 38.641667
    endloop
  endfacet
  facet normal -1.000000 0.000000 0.000000
    outer loop
      vertex -4.775000 13.000000 29.091667
      vertex -4.775000 9.000000 38.641667
      vertex -4.775000 13.000000 38.641667
    endloop
  endfacet
  facet normal 0.000000 0.000000 1.000000
    outer loop
      vertex -1.050000 10.800000 39.091667
      vertex 1.050000 10.800000 39.091667
      vertex 1.050000 12.750000 39.091667
    endloop
  endfacet
  facet normal 0.000000 0.000000 1.000000
    outer loop
      vertex -1.050000 10.800000 39.091667
      vertex 1.050000 12.750000 39.091667
      vertex -1.050000 12.750000 39.091667
    endloop
  endfacet
  facet normal 0.000000 0.000000 -1.000000
    outer loop
      vertex -1.050000 10.800000 28.641667
      vertex -1.050000 12.750000 28.641667
      vertex 1.050000 12.750000 28.641667
    endloop
  endfacet
  facet normal 0.000000 0.000000 -1.000000
    outer loop
      vertex -1.050000 10.800000 28.641667
      vertex 1.050000 12.750000 28.641667
      vertex 1.050000 10.800000 28.641667
    endloop
  endfacet
  facet normal 0.000000 -1.000000 0.000000
    outer loop
      vertex -1.050000 10.800000 28.641667
      vertex 1.050000 10.800000 28.641667
      vertex 1.050000 10.800000 39.091667
    endloop
  endfacet
  facet normal 0.000000 -1.000000 0.000000
    outer loop
      vertex -1.050000 10.800000 28.641667
      vertex 1.050000 10.800000 39.091667
      vertex -1.050000 10.800000 39.091667
    endloop
  endfacet
  facet normal 1.000000 0.000000 0.000000
    outer loop
      vertex 1.050000 10.800000 28.641667
      vertex 1.050000 12.750000 28.641667
      vertex 1.050000 12.750000 39.091667
    endloop
  endfacet
  facet normal 1.000000 0.000000 0.000000
    outer loop
      vertex 1.050000 10.800000 28.641667
      vertex 1.050000 12.750000 39.091667
      vertex 1.050000 10.800000 39.091667
    endloop
  endfacet
  facet normal 0.000000 1.000000 0.000000
    outer loop
      vertex 1.050000 12.750000 28.641667
      vertex -1.050000 12.750000 28.641667
      vertex -1.050000 12.750000 39.091667
    endloop
  endfacet
  facet normal 0.000000 1.000000 -0.000000
    outer loop
      vertex 1.050000 12.750000 28.641667
      vertex -1.050000 12.750000 39.091667
      vertex 1.050000 12.750000 39.091667
    endloop
  endfacet
  facet normal -1.000000 0.000000 0.000000
    outer loop
      vertex -1.050000 12.750000 28.641667
      vertex -1.050000 10.800000 28.641667
      vertex -1.050000 10.800000 39.091667
    endloop
  endfacet
  facet normal -1.000000 0.000000 0.000000
    outer loop
      vertex -1.050000 12.750000 28.641667
      vertex -1.050000 10.800000 39.091667
      vertex -1.050000 12.750000 39.091667
    endloop
  endfacet
  facet normal 0.000000 0.000000 1.000000
    outer loop
      vertex 9.000000 -4.775000 72.508333
      vertex 13.000000 -4.775000 72.508333
      vertex 13.000000 4.775000 72.508333
    endloop
  endfacet
  facet normal 0.000000 0.000000 1.000000
    outer loop
      vertex 9.000000 -4.775000 72.508333
      vertex 13.000000 4.775000 72.508333
      vertex 9.000000 4.775000 72.508333
    endloop
  endfacet
  facet normal 0.000000 0.000000 -1.000000
    outer loop
      vertex 9.000000 -4.775000 62.958333
      vertex 9.000000 4.775000 62.958333
      vertex 13.000000 4.775000 62.958333
    endloop
  endfacet
  facet normal 0.000000 0.000000 -1.000000
    outer loop
      vertex 9.000000 -4.775000 62.958333
      vertex 13.000000 4.775000 62.958333
      vertex 13.000000 -4.775000 62.958333
    endloop
  endfacet
  facet normal 0.000000 -1.000000 0.000000
    outer loop
      vertex 9.000000 -4.775000 62.958333
      vertex 13.000000 -4.775000 62.958333
      vertex 13.000000 -4.775000 72.508333
    endloop
  endfacet
  facet normal 0.000000 -1.000000 0.000000
    outer loop
      vertex 9.000000 -4.775000 62.958333
      vertex 13.000000 -4.775000 72.508333
      vertex 9.000000 -4.775000 72.508333
    endloop
  endfacet
  facet normal 1.000000 0.000000 0.000000
    outer loop
      vertex 13.000000 -4.775000 62.958333
      vertex 13.000000 4.775000 62.958333
      vertex 13.000000 4.775000 72.508333
    endloop
  endfacet
  facet normal 1.000000 0.000000 0.000000
    outer loop
      vertex 13.000000 -4.775000 62.958333
      vertex 13.000000 4.775000 72.508333
      vertex 13.000000 -4.775000 72.508333
    endloop
  endfacet
  facet normal 0.000000 1.000000 0.000000
    outer loop
      vertex 13.000000 4.775000 62.958333
      vertex 9.000000 4.775000 62.958333
      vertex 9.000000 4.775000 72.508333
    endloop
  endfacet
  facet normal 0.000000 1.000000 -0.000000
    outer loop
      vertex 13.000000 4.775000 62.958333
      vertex 9.000000 4.775000 72.508333
      vertex 13.000000 4.775000 72.508333
    endloop
  endfacet
  facet normal -1.000000 0.000000 0.000000
    outer loop
      vertex 9.000000 4.775000 62.958333
      vertex 9.000000 -4.775000 62.958333
      vertex 9.000000 -4.775000 72.508333
    endloop
  endfacet
  facet normal -1.000000 0.000000 0.000000
    outer loop
      vertex 9.000000 4.775000 62.958333
      vertex 9.000000 -4.775000 72.508333
      vertex 9.000000 4.775000 72.508333
    endloop
  endfacet
  facet normal 0.000000 0.000000 1.000000
    outer loop
      vertex 10.800000 -5.225000 68.783333
      vertex 12.750000 -5.225000 68.783333
      vertex 12.750000 5.225000 68.783333
    endloop
  endfacet
  facet normal 0.000000 0.000000 1.000000
    outer loop
      vertex 10.800000 -5.225000 68.783333
      vertex 12.750000 5.225000 68.783333
      vertex 10.800000 5.225000 68.783333
    endloop
  endfacet
  facet normal 0.000000 0.000000 -1.000000
    outer loop
      vertex 10.800000 -5.225000 66.683333
      vertex 10.800000 5.225000 66.683333
      vertex 12.750000 5.225000 66.683333
    endloop
  endfacet
  facet normal 0.000000 0.000000 -1.000000
    outer loop
      vertex 10.800000 -5.225000 66.683333
      vertex 12.750000 5.225000 66.683333
      vertex 12.750000 -5.225000 66.683333
    endloop
  endfacet
  facet normal 0.000000 -1.000000 0.000000
    outer loop
      vertex 10.800000 -5.225000 66.683333
      vertex 12.750000 -5.225000 66.683333
      vertex 12.750000 -5.225000 68.783333
    endloop
  endfacet
  facet normal 0.000000 -1.000000 0.000000
    outer loop
      vertex 10.800000 -5.225000 66.683333
      vertex 12.750000 -5.225000 68.783333
      vertex 10.800000 -5.225000 68.783333
    endloop
  endfacet
  facet normal 1.000000 0.000000 0.000000
    outer loop
      vertex 12.750000 -5.225000 66.683333
      vertex 12.750000 5.225000 66.683333
      vertex 12.750000 5.225000 68.783333
    endloop
  endfacet
  facet normal 1.000000 0.000000 0.000000
    outer loop
      vertex 12.750000 -5.225000 66.683333
      vertex 12.750000 5.225000 68.783333
      vertex 12.750000 -5.225000 68.783333
    endloop
  endfacet
  facet normal 0.000000 1.000000 0.000000
    outer loop
      vertex 12.750000 5.225000 66.683333
      vertex 10.800000 5.225000 66.683333
      vertex 10.800000 5.225000 68.783333
    endloop
  endfacet
  facet normal 0.000000 1.000000 -0.000000
    outer loop
      vertex 12.750000 5.225000 66.683333
      vertex 10.800000 5.225000 68.783333
      vertex 12.750000 5.225000 68.783333
    endloop
  endfacet
  facet normal -1.000000 0.000000 0.000000
    outer loop
      vertex 10.800000 5.225000 66.683333
      vertex 10.800000 -5.225000 66.683333
      vertex 10.800000 -5.225000 68.783333
    endloop
  endfacet
  facet normal -1.000000 0.000000 0.000000
    outer loop
      vertex 10.800000 5.225000 66.683333
      vertex 10.800000 -5.225000 68.783333
      vertex 10.800000 5.225000 68.783333
    endloop
  endfacet
  facet normal 0.000000 0.000000 1.000000
    outer loop
      vertex -4.775000 9.000000 72.508333
      vertex 4.775000 9.000000 72.508333
      vertex 4.775000 13.000000 72.508333
    endloop
  endfacet
  facet normal 0.000000 0.000000 1.000000
    outer loop
      vertex -4.775000 9.000000 72.508333
      vertex 4.775000 13.000000 72.508333
      vertex -4.775000 13.000000 72.508333
    endloop
  endfacet
  facet normal 0.000000 0.000000 -1.000000
    outer loop
      vertex -4.775000 9.000000 62.958333
      vertex -4.775000 13.000000 62.958333
      vertex 4.775000 13.000000 62.958333
    endloop
  endfacet
  facet normal 0.000000 0.000000 -1.000000
    outer loop
      vertex -4.775000 9.000000 62.958333
      vertex 4.775000 13.000000 62.958333
      vertex 4.775000 9.000000 62.958333
    endloop
  endfacet
  facet normal 0.000000 -1.000000 0.000000
    outer loop
      vertex -4.775000 9.000000 62.958333
      vertex 4.775000 9.000000 62.958333
      vertex 4.775000 9.000000 72.508333
    endloop
  endfacet
  facet normal 0.000000 -1.000000 0.000000
    outer loop
      vertex -4.775000 9.000000 62.958333
      vertex 4.775000 9.000000 72.508333
      vertex -4.775000 9.000000 72.508333
    endloop
  endfacet
  facet normal 1.000000 0.000000 0.000000
    outer loop
      vertex 4.775000 9.000000 62.958333
      vertex 4.775000 13.000000 62.958333
      vertex 4.775000 13.000000 72.508333
    endloop
  endfacet
  facet normal 1.000000 0.000000 0.000000
    outer loop
      vertex 4.775000 9.000000 62.958333
      vertex 4.775000 13.000000 72.508333
      vertex 4.775000 9.000000 72.508333
    endloop
  endfacet
  facet normal 0.000000 1.000000 0.000000
    outer loop
      vertex 4.775000 13.000000 62.958333
      vertex -4.775000 13.000000 62.958333
      vertex -4.775000 13.000000 72.508333
    endloop
  endfacet
  facet normal 0.000000 1.000000 -0.000000
    outer loop
      vertex 4.775000 13.000000 62.958333
      vertex -4.775000 13.000000 72.508333
      vertex 4.775000 13.000000 72.508333
    endloop
  endfacet
  facet normal -1.000000 0.000000 0.000000
    outer loop
      vertex -4.775000 13.000000 62.958333
      vertex -4.775000 9.000000 62.958333
      vertex -4.775000 9.000000 72.508333
    endloop
  endfacet
  facet normal -1.000000 0.000000 0.000000
    outer loop
      vertex -4.775000 13.000000 62.958333
      vertex -4.775000 9.000000 72.508333
      vertex -4.775000 13.000000 72.508333
    endloop
  endfacet
  facet normal 0.000000 0.000000 1.000000
    outer loop
      vertex -1.050000 10.800000 72.958333
      vertex 1.050000 10.800000 72.958333
      vertex 1.050000 12.750000 72.958333
    endloop
  endfacet
  facet normal 0.000000 0.000000 1.000000
    outer loop
      vertex -1.050000 10.800000 72.958333
      vertex 1.050000 12.750000 72.958333
      vertex -1.050000 12.750000 72.958333
    endloop
  endfacet
  facet normal 0.000000 0.000000 -1.000000
    outer loop
      vertex -1.050000 10.800000 62.508333
      vertex -1.050000 12.750000 62.508333
      vertex 1.050000 12.750000 62.508333
    endloop
  endfacet
  facet normal 0.000000 0.000000 -1.000000
    outer loop
      vertex -1.050000 10.800000 62.508333
      vertex 1.050000 12.750000 62.508333
      vertex 1.050000 10.800000 62.508333
    endloop
  endfacet
  facet normal 0.000000 -1.000000 0.000000
    outer loop
      vertex -1.050000 10.800000 62.508333
      vertex 1.050000 10.800000 62.508333
      vertex 1.050000 10.800000 72.958333
    endloop
  endfacet
  facet normal 0.000000 -1.000000 0.000000
    outer loop
      vertex -1.050000 10.800000 62.508333
      vertex 1.050000 10.800000 72.958333
      vertex -1.050000 10.800000 72.958333
    endloop
  endfacet
  facet normal 1.000000 0.000000 0.000000
    outer loop
      vertex 1.050000 10.800000 62.508333
      vertex 1.050000 12.750000 62.508333
      vertex 1.050000 12.750000 72.958333
    endloop
  endfacet
  facet normal 1.000000 0.000000 0.000000
    outer loop
      vertex 1.050000 10.800000 62.508333
      vertex 1.050000 12.750000 72.958333
      vertex 1.050000 10.800000 72.958333
    endloop
  endfacet
  facet normal 0.000000 1.000000 0.000000
    outer loop
      vertex 1.050000 12.750000 62.508333
      vertex -1.050000 12.750000 62.508333
      vertex -1.050000 12.750000 72.958333
    endloop
  endfacet
  facet normal 0.000000 1.000000 -0.000000
    outer loop
      vertex 1.050000 12.750000 62.508333
      vertex -1.050000 12.750000 72.958333
      vertex 1.050000 12.750000 72.958333
    endloop
  endfacet
  facet normal -1.000000 0.000000 0.000000
    outer loop
      vertex -1.050000 12.750000 62.508333
      vertex -1.050000 10.800000 62.508333
      vertex -1.050000 10.800000 72.958333
    endloop
  endfacet
  facet normal -1.000000 0.000000 0.000000
    outer loop
      vertex -1.050000 12.750000 62.508333
      vertex -1.050000 10.800000 72.958333
      vertex -1.050000 12.750000 72.958333
    endloop
  endfacet
endsolid delaunay_tile_box_corner_post
