<svg xmlns="http://www.w3.org/2000/svg" viewBox="-12.000 -12.000 125.600 125.600" width="1600" height="1600">
<rect x="-12.000" y="-12.000" width="125.600" height="125.600" fill="#f1eadf"/>
<rect x="0.000" y="0.000" width="101.600" height="101.600" fill="#111111" stroke="#6e5a48" stroke-width="0.45" stroke-opacity="0.55"/>
<polygon points="48.688,102.662 51.178,102.239 52.471,101.189 52.566,99.511 51.464,97.206 49.164,94.273 47.392,92.913 46.147,93.124 45.429,94.907 45.239,98.263 45.719,100.673 46.869,102.140" fill="#e8662e" stroke="#4d352b" stroke-width="0.35" stroke-opacity="0.18"/>
<polygon points="48.635,101.203 50.300,100.921 51.165,100.218 51.228,99.096 50.491,97.555 48.953,95.593 47.768,94.683 46.936,94.825 46.456,96.017 46.328,98.261 46.649,99.873 47.418,100.854" fill="#2f201a" fill-opacity="0.22"/>
<polygon points="-0.365,68.529 -3.511,70.435 -4.882,72.295 -4.479,74.109 -2.302,75.878 1.649,77.602 4.412,77.987 5.984,77.035 6.368,74.744 5.562,71.115 4.171,68.869 2.195,68.008" fill="#f7f3e8" stroke="#4d352b" stroke-width="0.35" stroke-opacity="0.18"/>
<polygon points="0.026,69.636 -2.350,71.075 -3.385,72.479 -3.081,73.850 -1.437,75.186 1.548,76.488 3.634,76.779 4.822,76.059 5.111,74.329 4.503,71.588 3.452,69.893 1.960,69.242" fill="#2f201a" fill-opacity="0.22"/>
<polygon points="12.334,71.447 9.158,69.138 6.978,68.313 5.794,68.973 5.604,71.117 6.410,74.746 7.607,77.138 9.195,78.293 11.173,78.210 13.542,76.890 14.526,75.323 14.123,73.509" fill="#f7f3e8" stroke="#4d352b" stroke-width="0.35" stroke-opacity="0.18"/>
<polygon points="11.548,72.088 9.321,70.469 7.793,69.890 6.962,70.353 6.829,71.857 7.394,74.401 8.234,76.078 9.347,76.888 10.734,76.830 12.395,75.905 13.085,74.806 12.802,73.534" fill="#2f201a" fill-opacity="0.22"/>
<polygon points="-3.183,20.631 -2.764,22.928 -1.731,24.071 -0.086,24.062 2.173,22.899 5.045,20.582 6.376,18.850 6.167,17.701 4.417,17.137 1.126,17.157 -1.238,17.746 -2.674,18.904" fill="#d8b692" stroke="#4d352b" stroke-width="0.35" stroke-opacity="0.18"/>
<polygon points="-1.635,20.485 -1.366,21.958 -0.704,22.692 0.352,22.685 1.801,21.939 3.644,20.453 4.498,19.342 4.363,18.605 3.241,18.243 1.129,18.256 -0.387,18.633 -1.308,19.376" fill="#2f201a" fill-opacity="0.22"/>
<polygon points="-3.042,8.906 -3.350,12.203 -2.758,14.671 -1.266,16.310 1.125,17.119 4.416,17.100 6.138,16.266 6.293,14.617 4.878,12.154 1.895,8.876 -0.419,7.243 -2.065,7.252" fill="#e8662e" stroke="#4d352b" stroke-width="0.35" stroke-opacity="0.18"/>
<polygon points="-1.831,10.054 -2.047,12.360 -1.633,14.087 -0.589,15.233 1.083,15.800 3.386,15.786 4.591,15.202 4.699,14.049 3.709,12.326 1.622,10.033 0.003,8.890 -1.148,8.897" fill="#2f201a" fill-opacity="0.22"/>
<polygon points="79.822,53.396 77.286,56.135 76.167,58.073 76.464,59.212 78.178,59.551 81.308,59.090 83.508,58.175 84.775,56.806 85.112,54.982 84.517,52.705 83.437,51.681 81.872,51.912" fill="#e8662e" stroke="#4d352b" stroke-width="0.35" stroke-opacity="0.18"/>
<polygon points="80.272,54.353 78.676,56.076 77.972,57.296 78.159,58.013 79.238,58.226 81.208,57.936 82.592,57.360 83.390,56.498 83.602,55.351 83.227,53.917 82.548,53.273 81.563,53.418" fill="#2f201a" fill-opacity="0.22"/>
<polygon points="1.227,58.111 2.486,61.102 3.902,62.411 5.475,62.036 7.206,59.979 9.094,56.240 9.724,53.622 9.095,52.126 7.207,51.753 4.060,52.501 2.015,53.810 1.070,55.680" fill="#e8662e" stroke="#4d352b" stroke-width="0.35" stroke-opacity="0.18"/>
<polygon points="2.413,57.666 3.297,59.767 4.292,60.687 5.397,60.424 6.613,58.979 7.940,56.351 8.383,54.512 7.941,53.461 6.614,53.198 4.403,53.724 2.966,54.644 2.302,55.958" fill="#2f201a" fill-opacity="0.22"/>
<polygon points="8.774,62.934 11.690,61.159 13.620,59.336 14.564,57.466 14.523,55.549 13.496,53.585 12.253,53.046 10.795,53.934 9.122,56.248 7.234,59.988 6.546,62.349 7.060,63.331" fill="#d8b692" stroke="#4d352b" stroke-width="0.35" stroke-opacity="0.18"/>
<polygon points="9.603,61.021 11.329,59.970 12.472,58.891 13.031,57.783 13.007,56.648 12.399,55.485 11.663,55.166 10.800,55.692 9.809,57.062 8.691,59.276 8.284,60.674 8.588,61.256" fill="#2f201a" fill-opacity="0.22"/>
<polygon points="84.550,52.679 85.145,54.956 86.037,55.816 87.227,55.256 88.715,53.279 90.500,49.883 91.244,47.616 90.947,46.477 89.608,46.467 87.228,47.585 85.592,48.993 84.699,50.691" fill="#e8662e" stroke="#4d352b" stroke-width="0.35" stroke-opacity="0.18"/>
<polygon points="85.975,51.812 86.294,53.033 86.773,53.494 87.411,53.194 88.209,52.133 89.167,50.312 89.566,49.095 89.407,48.485 88.689,48.479 87.412,49.079 86.534,49.835 86.055,50.745" fill="#2f201a" fill-opacity="0.22"/>
<polygon points="91.618,56.588 95.320,55.394 97.617,53.948 98.510,52.250 97.998,50.300 96.082,48.098 94.198,47.296 92.347,47.894 90.529,49.890 88.744,53.286 88.330,55.534 89.288,56.635" fill="#e8662e" stroke="#4d352b" stroke-width="0.35" stroke-opacity="0.18"/>
<polygon points="92.102,55.402 94.789,54.535 96.457,53.485 97.105,52.252 96.733,50.837 95.342,49.238 93.974,48.656 92.631,49.090 91.311,50.539 90.014,53.005 89.714,54.637 90.410,55.436" fill="#2f201a" fill-opacity="0.22"/>
<polygon points="83.784,41.414 83.732,44.539 84.288,46.603 85.452,47.606 87.224,47.549 89.605,46.430 90.807,45.090 90.833,43.527 89.682,41.743 87.354,39.736 85.595,39.012 84.405,39.572" fill="#e8662e" stroke="#4d352b" stroke-width="0.35" stroke-opacity="0.18"/>
<polygon points="84.753,42.085 84.718,44.237 85.101,45.658 85.902,46.349 87.122,46.309 88.761,45.539 89.590,44.616 89.608,43.540 88.815,42.311 87.212,40.930 86.000,40.431 85.181,40.816" fill="#2f201a" fill-opacity="0.22"/>
<polygon points="13.565,76.926 11.195,78.246 10.047,79.671 10.120,81.201 11.414,82.837 13.929,84.577 15.779,85.117 16.963,84.458 17.483,82.597 17.337,79.537 16.636,77.572 15.378,76.702" fill="#d8b692" stroke="#4d352b" stroke-width="0.35" stroke-opacity="0.18"/>
<polygon points="13.743,78.095 12.091,79.015 11.290,80.009 11.341,81.076 12.243,82.216 13.997,83.430 15.287,83.807 16.113,83.347 16.476,82.050 16.374,79.915 15.885,78.545 15.008,77.938" fill="#2f201a" fill-opacity="0.22"/>
<polygon points="87.371,39.706 89.699,41.713 91.475,42.371 92.700,41.682 93.373,39.645 93.494,36.259 92.972,34.065 91.808,33.061 90.001,33.249 87.552,34.628 86.297,36.164 86.237,37.856" fill="#d8b692" stroke="#4d352b" stroke-width="0.35" stroke-opacity="0.18"/>
<polygon points="88.253,39.040 89.867,40.431 91.099,40.888 91.948,40.410 92.415,38.997 92.498,36.650 92.137,35.128 91.330,34.432 90.077,34.563 88.379,35.519 87.509,36.583 87.467,37.757" fill="#2f201a" fill-opacity="0.22"/>
<polygon points="1.923,8.860 4.906,12.137 7.375,13.970 9.329,14.357 10.769,13.299 11.695,10.797 11.412,8.726 9.921,7.088 7.221,5.881 3.312,5.106 1.126,5.344 0.663,6.595" fill="#e8662e" stroke="#4d352b" stroke-width="0.35" stroke-opacity="0.18"/>
<polygon points="3.387,9.011 5.444,11.271 7.146,12.535 8.494,12.802 9.487,12.072 10.125,10.347 9.930,8.919 8.902,7.789 7.040,6.956 4.344,6.422 2.837,6.586 2.518,7.449" fill="#2f201a" fill-opacity="0.22"/>
<polygon points="48.731,27.759 50.150,29.570 52.067,30.173 54.481,29.568 57.393,27.756 60.802,24.736 62.152,22.773 61.442,21.867 58.673,22.020 53.845,23.229 50.578,24.589 48.873,26.099" fill="#d8b692" stroke="#4d352b" stroke-width="0.35" stroke-opacity="0.18"/>
<polygon points="50.900,27.090 51.823,28.267 53.069,28.659 54.639,28.266 56.532,27.087 58.748,25.124 59.626,23.848 59.165,23.259 57.364,23.358 54.225,24.144 52.101,25.028 50.993,26.010" fill="#2f201a" fill-opacity="0.22"/>
<polygon points="53.658,16.011 50.840,19.609 49.933,22.006 50.937,23.200 53.854,23.193 58.682,21.983 61.801,20.479 63.211,18.680 62.911,16.586 60.901,14.197 58.689,13.305 56.275,13.909" fill="#d8b692" stroke="#4d352b" stroke-width="0.35" stroke-opacity="0.18"/>
<polygon points="54.484,16.689 52.404,19.344 51.735,21.112 52.476,21.993 54.628,21.988 58.191,21.095 60.492,19.985 61.532,18.658 61.311,17.113 59.828,15.350 58.196,14.692 56.415,15.138" fill="#2f201a" fill-opacity="0.22"/>
<polygon points="96.241,22.425 95.228,25.902 94.826,28.215 95.036,29.363 95.856,29.347 97.288,28.167 98.257,26.708 98.764,24.969 98.808,22.951 98.389,20.655 97.821,19.801 97.105,20.392" fill="#f7f3e8" stroke="#4d352b" stroke-width="0.35" stroke-opacity="0.18"/>
<polygon points="96.753,24.173 96.453,25.202 96.334,25.888 96.396,26.228 96.639,26.223 97.063,25.873 97.350,25.441 97.500,24.926 97.513,24.328 97.389,23.648 97.221,23.395 97.009,23.570" fill="#2f201a" fill-opacity="0.22"/>
<polygon points="13.529,53.567 14.556,55.531 15.861,56.780 17.444,57.313 19.304,57.130 21.442,56.231 22.254,55.290 21.740,54.308 19.901,53.284 16.736,52.218 14.619,51.910 13.550,52.360" fill="#d8b692" stroke="#4d352b" stroke-width="0.35" stroke-opacity="0.18"/>
<polygon points="15.469,54.091 16.004,55.114 16.684,55.764 17.508,56.042 18.477,55.946 19.590,55.478 20.013,54.988 19.746,54.477 18.788,53.943 17.140,53.388 16.037,53.228 15.480,53.462" fill="#2f201a" fill-opacity="0.22"/>
<polygon points="65.894,60.674 68.897,60.500 70.271,59.402 70.017,57.379 68.134,54.432 64.623,50.561 62.117,48.669 60.616,48.756 60.119,50.822 60.628,54.867 61.760,57.858 63.515,59.793" fill="#d8b692" stroke="#4d352b" stroke-width="0.35" stroke-opacity="0.18"/>
<polygon points="65.524,58.990 67.584,58.870 68.527,58.117 68.352,56.729 67.061,54.708 64.652,52.052 62.933,50.754 61.903,50.814 61.563,52.231 61.911,55.006 62.688,57.058 63.892,58.385" fill="#2f201a" fill-opacity="0.22"/>
<polygon points="55.709,59.526 57.967,60.089 59.534,59.499 60.409,57.758 60.592,54.865 60.084,50.819 59.265,48.656 58.136,48.375 56.696,49.975 54.946,53.458 54.199,56.210 54.453,58.233" fill="#e8662e" stroke="#4d352b" stroke-width="0.35" stroke-opacity="0.18"/>
<polygon points="56.372,57.922 57.865,58.294 58.902,57.904 59.480,56.752 59.601,54.839 59.265,52.163 58.724,50.733 57.977,50.547 57.025,51.605 55.867,53.908 55.373,55.729 55.541,57.067" fill="#2f201a" fill-opacity="0.22"/>
<polygon points="75.882,33.899 79.056,35.008 81.102,35.333 82.023,34.875 81.816,33.633 80.482,31.608 79.022,30.318 77.435,29.764 75.722,29.945 73.882,30.862 73.295,31.826 73.962,32.839" fill="#e8662e" stroke="#4d352b" stroke-width="0.35" stroke-opacity="0.18"/>
<polygon points="76.843,33.197 78.432,33.752 79.456,33.915 79.917,33.685 79.814,33.064 79.146,32.050 78.415,31.404 77.621,31.127 76.763,31.217 75.842,31.676 75.548,32.159 75.882,32.666" fill="#2f201a" fill-opacity="0.22"/>
<polygon points="87.527,34.601 89.977,33.222 90.868,32.026 90.201,31.014 87.976,30.185 84.194,29.538 81.690,29.560 80.465,30.249 80.520,31.606 81.853,33.631 83.466,34.805 85.357,35.129" fill="#e8662e" stroke="#4d352b" stroke-width="0.35" stroke-opacity="0.18"/>
<polygon points="86.620,33.576 88.053,32.769 88.575,32.070 88.185,31.477 86.883,30.992 84.670,30.614 83.205,30.626 82.488,31.030 82.520,31.824 83.301,33.009 84.244,33.696 85.351,33.885" fill="#2f201a" fill-opacity="0.22"/>
<polygon points="72.225,13.939 69.738,16.433 68.652,18.824 68.965,21.113 70.678,23.299 73.791,25.382 75.969,25.800 77.212,24.553 77.521,21.641 76.894,17.064 75.803,14.254 74.246,13.213" fill="#f7f3e8" stroke="#4d352b" stroke-width="0.35" stroke-opacity="0.18"/>
<polygon points="72.552,15.431 70.718,17.271 69.917,19.035 70.148,20.723 71.412,22.335 73.708,23.872 75.314,24.180 76.232,23.260 76.459,21.112 75.997,17.736 75.192,15.664 74.044,14.895" fill="#2f201a" fill-opacity="0.22"/>
<polygon points="67.909,24.710 69.182,27.710 70.597,29.730 72.153,30.772 73.852,30.834 75.692,29.918 76.294,28.710 75.657,27.210 73.783,25.419 70.670,23.336 68.653,22.523 67.733,22.981" fill="#e8662e" stroke="#4d352b" stroke-width="0.35" stroke-opacity="0.18"/>
<polygon points="69.532,25.648 70.280,27.412 71.112,28.601 72.028,29.213 73.026,29.250 74.109,28.711 74.463,28.000 74.088,27.118 72.986,26.065 71.155,24.840 69.969,24.362 69.428,24.632" fill="#2f201a" fill-opacity="0.22"/>
<polygon points="47.365,3.584 48.967,4.822 50.390,5.336 51.635,5.125 52.702,4.188 53.590,2.527 53.634,1.387 52.833,0.768 51.188,0.670 48.698,1.093 47.231,1.719 46.787,2.550" fill="#d8b692" stroke="#4d352b" stroke-width="0.35" stroke-opacity="0.18"/>
<polygon points="48.873,3.204 49.683,3.831 50.404,4.091 51.034,3.984 51.574,3.510 52.024,2.669 52.046,2.092 51.641,1.778 50.808,1.729 49.547,1.943 48.805,2.260 48.580,2.680" fill="#2f201a" fill-opacity="0.22"/>
<polygon points="53.823,8.140 55.444,9.104 56.477,9.170 56.921,8.340 56.777,6.612 56.044,3.988 55.272,2.434 54.461,1.953 53.612,2.542 52.723,4.203 52.462,5.690 52.829,7.002" fill="#d8b692" stroke="#4d352b" stroke-width="0.35" stroke-opacity="0.18"/>
<polygon points="54.339,6.799 55.045,7.219 55.495,7.248 55.688,6.886 55.626,6.134 55.306,4.991 54.970,4.314 54.617,4.104 54.247,4.361 53.860,5.085 53.746,5.732 53.906,6.304" fill="#2f201a" fill-opacity="0.22"/>
<polygon points="83.708,44.535 83.760,41.410 83.497,39.421 82.918,38.570 82.025,38.854 80.816,40.276 80.198,41.768 80.172,43.330 80.738,44.963 81.895,46.667 82.776,47.164 83.380,46.453" fill="#d8b692" stroke="#4d352b" stroke-width="0.35" stroke-opacity="0.18"/>
<polygon points="82.746,43.449 82.766,42.262 82.666,41.507 82.446,41.184 82.107,41.292 81.648,41.832 81.413,42.398 81.403,42.992 81.618,43.612 82.058,44.259 82.392,44.447 82.621,44.177" fill="#2f201a" fill-opacity="0.22"/>
<polygon points="79.056,35.031 75.883,33.922 73.994,33.724 73.389,34.434 74.069,36.055 76.034,38.585 77.810,40.127 79.397,40.681 80.795,40.247 82.004,38.826 82.117,37.483 81.134,36.218" fill="#f7f3e8" stroke="#4d352b" stroke-width="0.35" stroke-opacity="0.18"/>
<polygon points="78.599,35.909 76.766,35.269 75.674,35.154 75.325,35.565 75.718,36.501 76.853,37.962 77.879,38.853 78.796,39.173 79.603,38.923 80.302,38.102 80.367,37.326 79.800,36.595" fill="#2f201a" fill-opacity="0.22"/>
<polygon points="77.274,56.108 79.810,53.370 81.422,50.890 82.112,48.669 81.878,46.706 80.721,45.003 79.508,44.836 78.240,46.205 76.917,49.110 75.539,53.553 75.139,56.200 75.717,57.051" fill="#e8662e" stroke="#4d352b" stroke-width="0.35" stroke-opacity="0.18"/>
<polygon points="77.920,53.612 79.298,52.124 80.175,50.776 80.549,49.569 80.422,48.503 79.793,47.577 79.135,47.486 78.446,48.230 77.726,49.810 76.977,52.224 76.760,53.662 77.074,54.125" fill="#2f201a" fill-opacity="0.22"/>
<polygon points="64.652,50.530 68.164,54.401 71.142,56.194 73.586,55.909 75.498,53.545 76.877,49.103 76.688,45.914 74.933,43.978 71.610,43.296 66.720,43.867 63.931,45.263 63.242,47.484" fill="#e8662e" stroke="#4d352b" stroke-width="0.35" stroke-opacity="0.18"/>
<polygon points="65.742,50.272 68.609,53.432 71.040,54.895 73.035,54.662 74.596,52.733 75.721,49.107 75.568,46.504 74.134,44.923 71.422,44.366 67.431,44.832 65.153,45.972 64.591,47.785" fill="#2f201a" fill-opacity="0.22"/>
<polygon points="54.921,53.433 56.671,49.950 57.167,47.427 56.410,45.863 54.399,45.259 51.135,45.614 49.065,46.662 48.190,48.403 48.510,50.838 50.025,53.965 51.598,55.440 53.230,55.263" fill="#d8b692" stroke="#4d352b" stroke-width="0.35" stroke-opacity="0.18"/>
<polygon points="54.305,52.476 55.589,49.922 55.953,48.071 55.397,46.924 53.922,46.481 51.528,46.741 50.010,47.510 49.368,48.787 49.603,50.573 50.714,52.867 51.868,53.948 53.065,53.818" fill="#2f201a" fill-opacity="0.22"/>
<polygon points="56.660,40.062 54.903,36.982 53.208,35.531 51.576,35.708 50.006,37.515 48.499,40.949 48.185,43.437 49.063,44.977 51.135,45.570 54.399,45.215 56.408,44.179 57.162,42.461" fill="#e8662e" stroke="#4d352b" stroke-width="0.35" stroke-opacity="0.18"/>
<polygon points="55.611,40.317 54.308,38.033 53.051,36.956 51.841,37.088 50.676,38.428 49.559,40.975 49.326,42.820 49.977,43.962 51.513,44.402 53.934,44.139 55.424,43.370 55.983,42.096" fill="#2f201a" fill-opacity="0.22"/>
<polygon points="71.777,68.277 72.435,65.086 72.221,63.198 71.136,62.614 69.180,63.333 66.352,65.355 64.774,67.164 64.446,68.760 65.366,70.142 67.536,71.311 69.328,71.389 70.742,70.378" fill="#f7f3e8" stroke="#4d352b" stroke-width="0.35" stroke-opacity="0.18"/>
<polygon points="70.780,67.936 71.219,65.805 71.076,64.544 70.352,64.154 69.045,64.634 67.157,65.985 66.103,67.193 65.884,68.258 66.498,69.181 67.947,69.962 69.144,70.014 70.088,69.339" fill="#2f201a" fill-opacity="0.22"/>
<polygon points="68.901,60.540 65.899,60.714 63.691,61.306 62.277,62.318 61.658,63.748 61.833,65.596 62.671,66.477 64.172,66.390 66.337,65.335 69.164,63.312 70.534,61.839 70.447,60.915" fill="#e8662e" stroke="#4d352b" stroke-width="0.35" stroke-opacity="0.18"/>
<polygon points="67.404,61.761 65.777,61.856 64.580,62.177 63.813,62.725 63.478,63.500 63.573,64.502 64.027,64.980 64.841,64.932 66.014,64.361 67.547,63.264 68.289,62.466 68.242,61.965" fill="#2f201a" fill-opacity="0.22"/>
<polygon points="40.173,104.690 42.068,104.136 43.043,102.937 43.099,101.093 42.235,98.605 40.451,95.472 39.085,94.045 38.137,94.322 37.608,96.304 37.497,99.991 37.887,102.618 38.779,104.185" fill="#d8b692" stroke="#4d352b" stroke-width="0.35" stroke-opacity="0.18"/>
<polygon points="40.107,102.799 41.259,102.462 41.852,101.733 41.886,100.612 41.361,99.099 40.276,97.195 39.446,96.327 38.870,96.496 38.548,97.701 38.480,99.942 38.718,101.539 39.260,102.492" fill="#2f201a" fill-opacity="0.22"/>
<polygon points="45.210,98.244 45.401,94.889 45.050,92.428 44.158,90.862 42.725,90.190 40.750,90.413 39.716,91.363 39.620,93.041 40.465,95.446 42.249,98.579 43.634,100.089 44.622,99.978" fill="#d8b692" stroke="#4d352b" stroke-width="0.35" stroke-opacity="0.18"/>
<polygon points="44.240,96.788 44.353,94.783 44.144,93.314 43.611,92.378 42.755,91.977 41.576,92.110 40.958,92.677 40.901,93.680 41.405,95.116 42.471,96.987 43.298,97.890 43.888,97.823" fill="#2f201a" fill-opacity="0.22"/>
<polygon points="69.156,27.725 67.883,24.726 66.735,23.577 65.710,24.278 64.809,26.831 64.032,31.233 63.961,34.184 64.598,35.684 65.941,35.732 67.991,34.329 69.210,32.527 69.598,30.326" fill="#e8662e" stroke="#4d352b" stroke-width="0.35" stroke-opacity="0.18"/>
<polygon points="68.112,28.708 67.366,26.951 66.693,26.278 66.093,26.689 65.565,28.183 65.110,30.762 65.069,32.491 65.442,33.369 66.229,33.397 67.429,32.575 68.143,31.520 68.371,30.231" fill="#2f201a" fill-opacity="0.22"/>
<polygon points="60.829,24.757 57.420,27.777 55.521,30.388 55.132,32.589 56.254,34.381 58.886,35.764 61.055,35.700 62.759,34.190 64.000,31.233 64.777,26.831 64.508,24.284 63.192,23.593" fill="#f7f3e8" stroke="#4d352b" stroke-width="0.35" stroke-opacity="0.18"/>
<polygon points="60.705,26.177 58.198,28.398 56.801,30.318 56.516,31.937 57.341,33.255 59.276,34.272 60.871,34.225 62.125,33.114 63.037,30.940 63.609,27.702 63.411,25.829 62.443,25.320" fill="#2f201a" fill-opacity="0.22"/>
<polygon points="54.931,36.968 56.688,40.049 58.224,41.934 59.541,42.626 60.636,42.122 61.511,40.425 61.509,38.806 60.631,37.266 58.875,35.804 56.243,34.422 54.708,34.155 54.271,35.004" fill="#e8662e" stroke="#4d352b" stroke-width="0.35" stroke-opacity="0.18"/>
<polygon points="56.407,37.579 57.358,39.245 58.189,40.265 58.901,40.639 59.493,40.367 59.967,39.448 59.966,38.573 59.490,37.740 58.541,36.950 57.117,36.202 56.287,36.058 56.051,36.517" fill="#2f201a" fill-opacity="0.22"/>
<polygon points="66.703,43.829 71.592,43.259 74.256,42.549 74.694,41.700 72.905,40.712 68.890,39.585 65.660,39.165 63.216,39.450 61.556,40.442 60.681,42.139 61.247,43.270 63.254,43.833" fill="#e8662e" stroke="#4d352b" stroke-width="0.35" stroke-opacity="0.18"/>
<polygon points="66.866,42.823 69.487,42.517 70.915,42.137 71.149,41.682 70.191,41.152 68.038,40.548 66.307,40.323 64.997,40.476 64.107,41.007 63.638,41.917 63.941,42.523 65.017,42.825" fill="#2f201a" fill-opacity="0.22"/>
<polygon points="75.999,38.587 74.034,36.057 72.048,34.510 70.041,33.946 68.012,34.366 65.962,35.769 65.429,37.104 66.411,38.369 68.910,39.565 72.925,40.691 75.444,40.904 76.469,40.202" fill="#e8662e" stroke="#4d352b" stroke-width="0.35" stroke-opacity="0.18"/>
<polygon points="74.060,38.170 72.853,36.616 71.634,35.666 70.401,35.320 69.155,35.578 67.896,36.440 67.568,37.259 68.172,38.036 69.706,38.770 72.172,39.462 73.719,39.593 74.349,39.162" fill="#2f201a" fill-opacity="0.22"/>
<polygon points="58.690,102.877 61.161,103.719 63.183,103.635 64.756,102.624 65.879,100.687 66.553,97.822 66.272,96.180 65.036,95.759 62.846,96.559 59.701,98.581 57.960,100.308 57.623,101.740" fill="#e8662e" stroke="#4d352b" stroke-width="0.35" stroke-opacity="0.18"/>
<polygon points="60.049,101.858 61.632,102.397 62.927,102.343 63.935,101.696 64.654,100.455 65.086,98.620 64.906,97.568 64.114,97.298 62.711,97.811 60.697,99.106 59.581,100.212 59.366,101.129" fill="#2f201a" fill-opacity="0.22"/>
<polygon points="17.372,79.538 17.518,82.598 18.294,84.473 19.701,85.162 21.739,84.666 24.407,82.984 25.705,81.378 25.632,79.848 24.188,78.393 21.374,77.015 19.300,76.746 17.966,77.587" fill="#e8662e" stroke="#4d352b" stroke-width="0.35" stroke-opacity="0.18"/>
<polygon points="18.400,79.904 18.505,82.120 19.068,83.478 20.087,83.977 21.562,83.618 23.495,82.400 24.435,81.237 24.382,80.128 23.337,79.075 21.299,78.077 19.797,77.882 18.830,78.491" fill="#2f201a" fill-opacity="0.22"/>
<polygon points="25.345,72.564 22.077,73.507 20.329,74.558 20.102,75.719 21.395,76.988 24.209,78.367 26.433,78.820 28.067,78.349 29.112,76.953 29.566,74.632 29.090,73.127 27.683,72.438" fill="#f7f3e8" stroke="#4d352b" stroke-width="0.35" stroke-opacity="0.18"/>
<polygon points="25.324,73.591 23.197,74.204 22.061,74.888 21.913,75.643 22.754,76.469 24.585,77.365 26.032,77.661 27.095,77.354 27.774,76.446 28.070,74.936 27.760,73.957 26.844,73.508" fill="#2f201a" fill-opacity="0.22"/>
<polygon points="48.951,4.845 47.349,3.606 46.174,3.403 45.424,4.234 45.100,6.101 45.202,9.003 45.653,10.763 46.454,11.382 47.604,10.860 49.104,9.197 49.828,7.640 49.777,6.189" fill="#e8662e" stroke="#4d352b" stroke-width="0.35" stroke-opacity="0.18"/>
<polygon points="48.133,5.989 47.287,5.335 46.667,5.228 46.271,5.667 46.100,6.652 46.154,8.184 46.392,9.113 46.815,9.440 47.422,9.164 48.213,8.287 48.596,7.465 48.569,6.699" fill="#2f201a" fill-opacity="0.22"/>
<polygon points="50.805,19.598 53.624,16.000 54.958,13.476 54.807,12.026 53.171,11.651 50.050,12.351 47.785,13.600 46.375,15.400 45.822,17.749 46.124,20.647 47.055,21.922 48.616,21.572" fill="#e8662e" stroke="#4d352b" stroke-width="0.35" stroke-opacity="0.18"/>
<polygon points="50.488,18.413 52.284,16.121 53.133,14.513 53.037,13.590 51.995,13.351 50.007,13.797 48.564,14.592 47.667,15.738 47.314,17.235 47.507,19.081 48.100,19.893 49.094,19.670" fill="#2f201a" fill-opacity="0.22"/>
<polygon points="55.428,9.126 53.807,8.162 52.216,7.855 50.655,8.205 49.125,9.212 47.626,10.875 47.281,11.947 48.092,12.429 50.058,12.320 53.179,11.621 55.114,10.855 55.864,10.024" fill="#f7f3e8" stroke="#4d352b" stroke-width="0.35" stroke-opacity="0.18"/>
<polygon points="53.219,9.747 52.518,9.330 51.831,9.197 51.156,9.349 50.494,9.784 49.846,10.503 49.697,10.967 50.048,11.175 50.898,11.128 52.247,10.825 53.084,10.494 53.408,10.135" fill="#2f201a" fill-opacity="0.22"/>
<polygon points="24.738,30.789 27.685,31.403 29.806,30.963 31.102,29.469 31.573,26.921 31.218,23.318 30.304,21.364 28.831,21.057 26.798,22.397 24.206,25.386 22.999,27.780 23.176,29.582" fill="#e8662e" stroke="#4d352b" stroke-width="0.35" stroke-opacity="0.18"/>
<polygon points="25.568,29.646 27.690,30.088 29.218,29.771 30.151,28.695 30.490,26.860 30.235,24.265 29.577,22.857 28.515,22.636 27.051,23.602 25.185,25.754 24.315,27.479 24.443,28.776" fill="#2f201a" fill-opacity="0.22"/>
<polygon points="37.534,29.588 41.124,27.768 42.831,25.958 42.653,24.157 40.592,22.365 36.647,20.581 33.777,20.145 31.982,21.054 31.262,23.310 31.617,26.913 32.780,29.160 34.753,30.051" fill="#d8b692" stroke="#4d352b" stroke-width="0.35" stroke-opacity="0.18"/>
<polygon points="37.283,28.532 40.031,27.140 41.337,25.754 41.202,24.375 39.624,23.003 36.604,21.638 34.407,21.304 33.033,22.000 32.482,23.727 32.753,26.485 33.644,28.205 35.154,28.887" fill="#2f201a" fill-opacity="0.22"/>
<polygon points="46.078,20.660 45.776,17.761 44.639,15.866 42.667,14.974 39.859,15.086 36.216,16.202 34.470,17.484 34.621,18.933 36.669,20.550 40.614,22.333 43.497,22.946 45.319,22.388" fill="#e8662e" stroke="#4d352b" stroke-width="0.35" stroke-opacity="0.18"/>
<polygon points="44.556,20.106 44.342,18.054 43.537,16.713 42.141,16.082 40.154,16.161 37.576,16.951 36.340,17.858 36.447,18.884 37.897,20.028 40.689,21.291 42.729,21.724 44.019,21.329" fill="#2f201a" fill-opacity="0.22"/>
<polygon points="4.061,52.467 7.208,51.719 9.150,50.837 9.887,49.823 9.418,48.675 7.745,47.394 6.121,46.940 4.548,47.315 3.025,48.517 1.551,50.546 1.233,51.881 2.070,52.521" fill="#f7f3e8" stroke="#4d352b" stroke-width="0.35" stroke-opacity="0.18"/>
<polygon points="4.710,51.305 6.440,50.894 7.508,50.409 7.913,49.851 7.655,49.220 6.735,48.516 5.842,48.266 4.977,48.472 4.140,49.133 3.329,50.249 3.154,50.983 3.615,51.335" fill="#2f201a" fill-opacity="0.22"/>
<polygon points="9.180,69.116 12.356,71.426 14.961,72.689 16.996,72.906 18.462,72.077 19.358,70.201 19.012,68.686 17.424,67.532 14.595,66.737 10.524,66.304 8.264,66.555 7.817,67.493" fill="#f7f3e8" stroke="#4d352b" stroke-width="0.35" stroke-opacity="0.18"/>
<polygon points="11.018,69.189 13.002,70.632 14.630,71.422 15.902,71.557 16.818,71.039 17.378,69.867 17.162,68.920 16.169,68.199 14.401,67.702 11.857,67.431 10.445,67.589 10.165,68.175" fill="#2f201a" fill-opacity="0.22"/>
<polygon points="11.704,61.187 8.789,62.962 7.620,64.402 8.198,65.507 10.522,66.276 14.593,66.710 17.357,66.483 18.815,65.595 18.966,64.047 17.811,61.838 16.215,60.625 14.180,60.408" fill="#d8b692" stroke="#4d352b" stroke-width="0.35" stroke-opacity="0.18"/>
<polygon points="12.423,62.126 10.541,63.272 9.786,64.202 10.159,64.915 11.659,65.411 14.287,65.692 16.072,65.545 17.013,64.972 17.111,63.972 16.365,62.546 15.335,61.763 14.021,61.623" fill="#2f201a" fill-opacity="0.22"/>
<polygon points="22.064,73.485 25.332,72.542 27.190,71.602 27.638,70.665 26.676,69.730 24.303,68.797 22.300,68.566 20.666,69.037 19.401,70.210 18.505,72.086 18.650,73.257 19.837,73.723" fill="#d8b692" stroke="#4d352b" stroke-width="0.35" stroke-opacity="0.18"/>
<polygon points="22.371,72.376 24.093,71.880 25.072,71.384 25.308,70.890 24.801,70.398 23.551,69.906 22.495,69.785 21.635,70.033 20.968,70.651 20.496,71.639 20.573,72.256 21.198,72.502" fill="#2f201a" fill-opacity="0.22"/>
<polygon points="21.456,56.259 19.318,57.158 18.004,58.384 17.513,59.938 17.845,61.820 19.000,64.029 20.112,64.909 21.181,64.459 22.207,62.681 23.189,59.572 23.392,57.466 22.814,56.361" fill="#d8b692" stroke="#4d352b" stroke-width="0.35" stroke-opacity="0.18"/>
<polygon points="21.060,57.920 19.811,58.445 19.043,59.161 18.756,60.069 18.950,61.168 19.625,62.459 20.275,62.973 20.899,62.710 21.498,61.671 22.072,59.855 22.190,58.625 21.853,57.980" fill="#2f201a" fill-opacity="0.22"/>
<polygon points="24.182,25.362 26.774,22.374 27.905,20.147 27.576,18.683 25.786,17.981 22.535,18.042 20.262,18.819 18.966,20.313 18.647,22.524 19.306,25.452 20.448,26.901 22.073,26.871" fill="#e8662e" stroke="#4d352b" stroke-width="0.35" stroke-opacity="0.18"/>
<polygon points="23.783,24.326 25.587,22.247 26.374,20.698 26.145,19.679 24.899,19.191 22.637,19.233 21.056,19.773 20.154,20.813 19.932,22.352 20.390,24.389 21.185,25.397 22.316,25.376" fill="#2f201a" fill-opacity="0.22"/>
<polygon points="11.729,10.821 10.803,13.323 10.621,15.264 11.183,16.642 12.488,17.458 14.538,17.712 15.794,17.213 16.256,15.962 15.926,13.958 14.803,11.202 13.729,9.760 12.704,9.633" fill="#e8662e" stroke="#4d352b" stroke-width="0.35" stroke-opacity="0.18"/>
<polygon points="12.403,12.150 11.855,13.632 11.748,14.780 12.080,15.596 12.853,16.079 14.066,16.229 14.809,15.934 15.083,15.194 14.888,14.007 14.223,12.376 13.587,11.522 12.980,11.447" fill="#2f201a" fill-opacity="0.22"/>
<polygon points="48.354,86.542 50.118,84.373 50.807,82.405 50.422,80.637 48.962,79.069 46.426,77.701 44.717,77.559 43.835,78.643 43.780,80.953 44.551,84.489 45.570,86.600 46.838,87.284" fill="#d8b692" stroke="#4d352b" stroke-width="0.35" stroke-opacity="0.18"/>
<polygon points="47.909,85.077 49.080,83.638 49.537,82.332 49.281,81.159 48.312,80.118 46.630,79.211 45.496,79.116 44.911,79.836 44.874,81.369 45.386,83.715 46.062,85.115 46.903,85.569" fill="#2f201a" fill-opacity="0.22"/>
<polygon points="87.872,84.237 88.843,87.139 90.227,88.805 92.026,89.236 94.238,88.431 96.865,86.389 97.936,84.643 97.451,83.192 95.410,82.036 91.813,81.176 89.357,81.255 88.044,82.276" fill="#d8b692" stroke="#4d352b" stroke-width="0.35" stroke-opacity="0.18"/>
<polygon points="89.185,84.425 89.880,86.506 90.873,87.700 92.162,88.008 93.748,87.431 95.631,85.968 96.399,84.716 96.051,83.676 94.588,82.848 92.009,82.231 90.249,82.288 89.308,83.019" fill="#2f201a" fill-opacity="0.22"/>
<polygon points="90.736,75.771 89.010,77.404 88.615,78.844 89.551,80.091 91.818,81.145 95.415,82.006 97.645,82.028 98.508,81.212 98.003,79.556 96.132,77.062 94.297,75.600 92.498,75.170" fill="#e8662e" stroke="#4d352b" stroke-width="0.35" stroke-opacity="0.18"/>
<polygon points="91.764,76.899 90.676,77.929 90.427,78.837 91.017,79.623 92.446,80.288 94.715,80.830 96.121,80.844 96.665,80.330 96.347,79.286 95.166,77.713 94.009,76.791 92.875,76.520" fill="#2f201a" fill-opacity="0.22"/>
<polygon points="37.470,99.983 37.581,96.296 37.118,94.008 36.080,93.119 34.468,93.630 32.281,95.540 31.160,97.417 31.104,99.260 32.114,101.071 34.190,102.848 35.774,103.259 36.868,102.304" fill="#d8b692" stroke="#4d352b" stroke-width="0.35" stroke-opacity="0.18"/>
<polygon points="36.508,99.377 36.581,96.963 36.277,95.466 35.598,94.884 34.543,95.218 33.111,96.468 32.377,97.697 32.341,98.904 33.002,100.089 34.361,101.252 35.398,101.521 36.114,100.896" fill="#2f201a" fill-opacity="0.22"/>
<polygon points="23.298,99.196 25.991,101.764 27.943,103.239 29.155,103.622 29.627,102.914 29.359,101.113 28.552,99.571 27.206,98.288 25.321,97.262 22.897,96.496 21.751,96.562 21.885,97.463" fill="#e8662e" stroke="#4d352b" stroke-width="0.35" stroke-opacity="0.18"/>
<polygon points="25.128,99.587 26.051,100.467 26.720,100.972 27.135,101.104 27.297,100.861 27.205,100.244 26.929,99.716 26.467,99.276 25.821,98.924 24.991,98.662 24.598,98.685 24.644,98.993" fill="#2f201a" fill-opacity="0.22"/>
<polygon points="18.303,90.276 18.677,92.291 19.564,93.995 20.964,95.386 22.876,96.465 25.300,97.232 26.419,97.111 26.232,96.103 24.738,94.208 21.939,91.426 19.934,89.843 18.721,89.459" fill="#f7f3e8" stroke="#4d352b" stroke-width="0.35" stroke-opacity="0.18"/>
<polygon points="20.617,92.404 20.756,93.148 21.083,93.777 21.600,94.291 22.306,94.689 23.201,94.972 23.614,94.928 23.545,94.556 22.994,93.856 21.960,92.828 21.219,92.244 20.772,92.102" fill="#2f201a" fill-opacity="0.22"/>
<polygon points="24.427,83.023 21.758,84.705 20.457,86.662 20.522,88.894 21.955,91.401 24.754,94.183 26.820,95.154 28.154,94.313 28.756,91.661 28.625,87.197 27.860,84.269 26.460,82.878" fill="#f7f3e8" stroke="#4d352b" stroke-width="0.35" stroke-opacity="0.18"/>
<polygon points="24.594,84.559 22.648,85.785 21.699,87.212 21.747,88.840 22.792,90.668 24.833,92.697 26.340,93.405 27.313,92.792 27.751,90.858 27.656,87.602 27.098,85.467 26.077,84.453" fill="#2f201a" fill-opacity="0.22"/>
<polygon points="34.257,86.892 31.939,84.338 30.233,83.538 29.140,84.493 28.659,87.202 28.790,91.667 29.434,94.537 30.593,95.814 32.266,95.498 34.453,93.588 35.514,91.517 35.448,89.285" fill="#f7f3e8" stroke="#4d352b" stroke-width="0.35" stroke-opacity="0.18"/>
<polygon points="33.427,87.867 31.870,86.150 30.723,85.613 29.989,86.255 29.665,88.075 29.753,91.075 30.186,93.004 30.965,93.863 32.089,93.650 33.559,92.367 34.272,90.975 34.228,89.475" fill="#2f201a" fill-opacity="0.22"/>
<polygon points="73.650,79.377 72.511,76.876 71.456,75.536 70.483,75.356 69.594,76.339 68.788,78.482 68.669,80.179 69.239,81.430 70.496,82.234 72.441,82.592 73.615,82.235 74.018,81.164" fill="#d8b692" stroke="#4d352b" stroke-width="0.35" stroke-opacity="0.18"/>
<polygon points="72.561,79.350 71.938,77.982 71.361,77.250 70.829,77.152 70.343,77.689 69.902,78.860 69.838,79.788 70.149,80.472 70.836,80.911 71.900,81.107 72.541,80.912 72.762,80.326" fill="#2f201a" fill-opacity="0.22"/>
<polygon points="67.526,71.346 65.356,70.178 64.070,70.129 63.667,71.201 64.147,73.393 65.511,76.704 66.735,78.652 67.820,79.237 68.765,78.457 69.572,76.314 69.634,74.414 68.952,72.758" fill="#f7f3e8" stroke="#4d352b" stroke-width="0.35" stroke-opacity="0.18"/>
<polygon points="67.190,72.783 66.042,72.165 65.361,72.139 65.148,72.706 65.402,73.866 66.124,75.619 66.772,76.650 67.346,76.959 67.846,76.547 68.273,75.412 68.306,74.407 67.945,73.531" fill="#2f201a" fill-opacity="0.22"/>
<polygon points="58.607,73.185 56.298,76.349 55.484,78.759 56.166,80.415 58.343,81.317 62.016,81.464 64.430,80.747 65.585,79.165 65.481,76.718 64.117,73.406 62.517,71.713 60.680,71.639" fill="#d8b692" stroke="#4d352b" stroke-width="0.35" stroke-opacity="0.18"/>
<polygon points="59.138,74.121 57.384,76.523 56.766,78.353 57.284,79.611 58.937,80.295 61.726,80.407 63.559,79.863 64.436,78.661 64.356,76.803 63.321,74.289 62.106,73.004 60.712,72.948" fill="#2f201a" fill-opacity="0.22"/>
<polygon points="70.508,89.597 72.446,87.023 73.414,85.004 73.410,83.538 72.436,82.626 70.491,82.268 69.034,82.732 68.065,84.019 67.584,86.128 67.591,89.060 68.081,90.615 69.053,90.794" fill="#e8662e" stroke="#4d352b" stroke-width="0.35" stroke-opacity="0.18"/>
<polygon points="70.370,88.151 71.503,86.647 72.068,85.466 72.066,84.610 71.497,84.077 70.360,83.867 69.508,84.139 68.942,84.891 68.661,86.123 68.665,87.837 68.951,88.746 69.520,88.851" fill="#2f201a" fill-opacity="0.22"/>
<polygon points="66.594,97.809 65.920,100.673 66.340,102.115 67.852,102.133 70.457,100.730 74.156,97.903 76.173,95.774 76.510,94.342 75.166,93.607 72.142,93.570 69.705,94.257 67.855,95.671" fill="#d8b692" stroke="#4d352b" stroke-width="0.35" stroke-opacity="0.18"/>
<polygon points="68.227,97.641 67.818,99.377 68.073,100.251 68.989,100.262 70.568,99.411 72.810,97.698 74.033,96.407 74.237,95.539 73.423,95.094 71.589,95.071 70.112,95.488 68.991,96.345" fill="#2f201a" fill-opacity="0.22"/>
<polygon points="89.952,98.508 90.078,95.724 89.518,93.768 88.271,92.639 86.336,92.338 83.715,92.866 82.373,93.825 82.309,95.217 83.525,97.042 86.020,99.299 87.922,100.296 89.233,100.032" fill="#d8b692" stroke="#4d352b" stroke-width="0.35" stroke-opacity="0.18"/>
<polygon points="88.807,97.637 88.890,95.806 88.521,94.518 87.701,93.776 86.428,93.578 84.703,93.925 83.820,94.556 83.778,95.472 84.578,96.673 86.220,98.158 87.471,98.814 88.334,98.640" fill="#2f201a" fill-opacity="0.22"/>
<polygon points="72.467,87.043 70.529,89.617 69.832,91.556 70.375,92.862 72.159,93.533 75.184,93.571 77.181,92.946 78.150,91.659 78.091,89.711 77.004,87.100 75.704,85.785 74.192,85.766" fill="#f7f3e8" stroke="#4d352b" stroke-width="0.35" stroke-opacity="0.18"/>
<polygon points="73.001,87.963 71.647,89.761 71.160,91.116 71.539,92.028 72.786,92.497 74.899,92.523 76.294,92.087 76.971,91.188 76.930,89.827 76.170,88.003 75.263,87.084 74.206,87.071" fill="#2f201a" fill-opacity="0.22"/>
<polygon points="88.807,87.156 87.837,84.254 86.697,82.935 85.386,83.199 83.905,85.045 82.254,88.475 81.671,90.915 82.156,92.366 83.709,92.828 86.331,92.300 88.054,91.179 88.880,89.465" fill="#d8b692" stroke="#4d352b" stroke-width="0.35" stroke-opacity="0.18"/>
<polygon points="87.658,87.565 87.023,85.664 86.275,84.799 85.416,84.972 84.446,86.182 83.364,88.429 82.981,90.028 83.299,90.979 84.317,91.282 86.035,90.936 87.165,90.202 87.706,89.078" fill="#2f201a" fill-opacity="0.22"/>
<polygon points="82.250,81.115 79.512,81.933 77.730,83.200 76.904,84.914 77.035,87.077 78.122,89.688 79.350,90.789 80.719,90.380 82.229,88.461 83.880,85.031 84.434,82.664 83.891,81.359" fill="#e8662e" stroke="#4d352b" stroke-width="0.35" stroke-opacity="0.18"/>
<polygon points="81.642,82.659 79.857,83.192 78.696,84.018 78.157,85.136 78.243,86.546 78.951,88.248 79.752,88.966 80.644,88.699 81.629,87.448 82.705,85.212 83.066,83.669 82.712,82.818" fill="#2f201a" fill-opacity="0.22"/>
<polygon points="49.190,94.250 51.490,97.183 53.560,98.635 55.401,98.607 57.012,97.098 58.394,94.109 58.509,91.881 57.360,90.415 54.944,89.710 51.263,89.767 49.077,90.542 48.386,92.037" fill="#f7f3e8" stroke="#4d352b" stroke-width="0.35" stroke-opacity="0.18"/>
<polygon points="50.325,94.109 52.048,96.306 53.599,97.394 54.978,97.373 56.185,96.243 57.221,94.003 57.307,92.334 56.446,91.235 54.636,90.707 51.878,90.749 50.240,91.330 49.722,92.450" fill="#2f201a" fill-opacity="0.22"/>
<polygon points="50.148,84.397 48.384,86.565 47.981,88.177 48.939,89.233 51.259,89.732 54.941,89.676 57.222,89.106 58.104,88.022 57.587,86.424 55.670,84.312 53.791,83.270 51.950,83.299" fill="#d8b692" stroke="#4d352b" stroke-width="0.35" stroke-opacity="0.18"/>
<polygon points="51.127,85.240 49.968,86.663 49.704,87.721 50.333,88.415 51.856,88.743 54.273,88.706 55.772,88.331 56.351,87.620 56.011,86.570 54.752,85.184 53.519,84.500 52.310,84.519" fill="#2f201a" fill-opacity="0.22"/>
<polygon points="59.693,98.556 62.838,96.534 64.756,94.775 65.447,93.281 64.911,92.050 63.147,91.082 61.480,91.104 59.907,92.115 58.430,94.115 57.048,97.105 56.798,98.841 57.680,99.325" fill="#d8b692" stroke="#4d352b" stroke-width="0.35" stroke-opacity="0.18"/>
<polygon points="60.242,97.038 62.078,95.857 63.199,94.830 63.602,93.957 63.289,93.238 62.259,92.673 61.285,92.686 60.366,93.276 59.504,94.445 58.697,96.191 58.551,97.205 59.066,97.487" fill="#2f201a" fill-opacity="0.22"/>
<polygon points="67.566,89.070 67.559,86.139 67.114,84.431 66.233,83.948 64.914,84.688 63.158,86.652 62.281,88.367 62.285,89.833 63.169,91.049 64.932,92.017 66.253,92.009 67.131,91.027" fill="#e8662e" stroke="#4d352b" stroke-width="0.35" stroke-opacity="0.18"/>
<polygon points="66.585,88.736 66.581,87.028 66.322,86.034 65.808,85.752 65.040,86.183 64.017,87.327 63.507,88.326 63.509,89.180 64.023,89.888 65.051,90.452 65.820,90.448 66.331,89.876" fill="#2f201a" fill-opacity="0.22"/>
<polygon points="62.014,81.500 58.341,81.352 56.065,81.770 55.187,82.752 55.706,84.299 57.623,86.410 59.500,87.503 61.337,87.577 63.133,86.631 64.889,84.667 65.288,83.157 64.330,82.101" fill="#d8b692" stroke="#4d352b" stroke-width="0.35" stroke-opacity="0.18"/>
<polygon points="61.388,82.456 59.044,82.362 57.591,82.628 57.030,83.255 57.362,84.242 58.586,85.590 59.784,86.288 60.956,86.335 62.103,85.731 63.224,84.478 63.478,83.514 62.867,82.840" fill="#2f201a" fill-opacity="0.22"/>
<polygon points="45.178,8.998 45.076,6.096 44.526,4.059 43.528,2.886 42.081,2.576 40.185,3.131 39.263,4.134 39.314,5.584 40.338,7.483 42.336,9.830 43.808,10.865 44.756,10.588" fill="#e8662e" stroke="#4d352b" stroke-width="0.35" stroke-opacity="0.18"/>
<polygon points="44.100,7.919 44.039,6.201 43.713,4.994 43.122,4.299 42.265,4.116 41.142,4.444 40.596,5.038 40.626,5.897 41.233,7.022 42.416,8.412 43.288,9.025 43.849,8.861" fill="#2f201a" fill-opacity="0.22"/>
<polygon points="36.201,16.166 39.844,15.051 42.076,13.627 42.899,11.896 42.312,9.857 40.315,7.510 38.405,6.616 36.584,7.173 34.851,9.184 33.205,12.646 32.882,14.964 33.880,16.137" fill="#e8662e" stroke="#4d352b" stroke-width="0.35" stroke-opacity="0.18"/>
<polygon points="36.616,15.007 39.306,14.184 40.955,13.133 41.562,11.854 41.129,10.348 39.654,8.615 38.244,7.955 36.899,8.367 35.619,9.851 34.404,12.408 34.165,14.120 34.902,14.986" fill="#2f201a" fill-opacity="0.22"/>
<polygon points="4.468,81.400 2.389,82.171 1.102,83.180 0.609,84.429 0.909,85.917 2.002,87.644 3.068,88.315 4.108,87.930 5.122,86.489 6.108,83.991 6.328,82.311 5.782,81.447" fill="#d8b692" stroke="#4d352b" stroke-width="0.35" stroke-opacity="0.18"/>
<polygon points="4.037,82.826 2.883,83.253 2.169,83.813 1.896,84.506 2.062,85.332 2.669,86.290 3.260,86.662 3.837,86.449 4.400,85.649 4.947,84.263 5.069,83.331 4.766,82.851" fill="#2f201a" fill-opacity="0.22"/>
<polygon points="13.906,84.603 11.391,82.862 9.258,82.181 7.508,82.560 6.139,83.998 5.152,86.495 5.288,88.179 6.545,89.050 8.925,89.106 12.427,88.349 14.424,87.346 14.917,86.097" fill="#f7f3e8" stroke="#4d352b" stroke-width="0.35" stroke-opacity="0.18"/>
<polygon points="12.507,85.031 10.820,83.863 9.390,83.406 8.215,83.660 7.297,84.625 6.635,86.300 6.726,87.430 7.570,88.013 9.166,88.051 11.515,87.543 12.854,86.871 13.185,86.033" fill="#2f201a" fill-opacity="0.22"/>
<polygon points="27.671,31.443 24.724,30.829 22.635,31.098 21.405,32.251 21.033,34.287 21.519,37.207 22.499,38.820 23.972,39.127 25.939,38.128 28.400,35.822 29.509,33.940 29.266,32.480" fill="#d8b692" stroke="#4d352b" stroke-width="0.35" stroke-opacity="0.18"/>
<polygon points="26.838,32.391 24.771,31.961 23.306,32.150 22.443,32.958 22.182,34.386 22.523,36.434 23.210,37.566 24.243,37.781 25.623,37.080 27.349,35.463 28.127,34.143 27.956,33.119" fill="#2f201a" fill-opacity="0.22"/>
<polygon points="32.931,40.441 32.604,37.220 31.743,35.381 30.349,34.924 28.422,35.848 25.961,38.154 24.812,40.111 24.976,41.722 26.452,42.984 29.240,43.899 31.249,43.780 32.480,42.627" fill="#d8b692" stroke="#4d352b" stroke-width="0.35" stroke-opacity="0.18"/>
<polygon points="31.885,40.245 31.651,37.945 31.036,36.631 30.040,36.304 28.663,36.964 26.905,38.612 26.085,40.010 26.202,41.161 27.256,42.063 29.248,42.716 30.684,42.631 31.563,41.808" fill="#2f201a" fill-opacity="0.22"/>
<polygon points="16.747,52.190 19.911,53.256 22.133,53.230 23.411,52.113 23.745,49.906 23.135,46.607 22.040,44.691 20.457,44.158 18.388,45.008 15.833,47.242 14.707,49.183 15.012,50.833" fill="#f7f3e8" stroke="#4d352b" stroke-width="0.35" stroke-opacity="0.18"/>
<polygon points="17.481,51.386 19.839,52.180 21.494,52.160 22.446,51.328 22.695,49.683 22.241,47.226 21.424,45.798 20.245,45.401 18.704,46.035 16.800,47.699 15.961,49.145 16.188,50.374" fill="#2f201a" fill-opacity="0.22"/>
<polygon points="27.963,51.269 30.142,48.885 31.079,46.868 30.774,45.219 29.228,43.936 26.440,43.022 24.501,43.160 23.411,44.352 23.171,46.598 23.781,49.897 24.782,51.775 26.176,52.232" fill="#f7f3e8" stroke="#4d352b" stroke-width="0.35" stroke-opacity="0.18"/>
<polygon points="27.627,50.127 29.184,48.423 29.854,46.982 29.636,45.803 28.531,44.887 26.539,44.233 25.153,44.332 24.375,45.184 24.203,46.789 24.639,49.146 25.354,50.489 26.351,50.815" fill="#2f201a" fill-opacity="0.22"/>
<polygon points="5.068,20.595 2.196,22.911 0.777,24.554 0.813,25.522 2.303,25.816 5.247,25.435 7.437,24.666 8.873,23.508 9.555,21.961 9.483,20.025 8.712,19.152 7.240,19.342" fill="#e8662e" stroke="#4d352b" stroke-width="0.35" stroke-opacity="0.18"/>
<polygon points="5.340,21.635 3.828,22.854 3.082,23.718 3.101,24.228 3.885,24.382 5.434,24.182 6.586,23.777 7.342,23.168 7.701,22.354 7.663,21.335 7.257,20.876 6.483,20.976" fill="#2f201a" fill-opacity="0.22"/>
<polygon points="-0.752,30.460 0.164,33.153 1.357,34.405 2.829,34.215 4.579,32.583 6.607,29.509 7.392,27.299 6.934,25.952 5.234,25.469 2.290,25.849 0.311,26.808 -0.703,28.344" fill="#d8b692" stroke="#4d352b" stroke-width="0.35" stroke-opacity="0.18"/>
<polygon points="0.481,30.147 1.098,31.960 1.901,32.802 2.892,32.674 4.069,31.576 5.434,29.507 5.963,28.020 5.654,27.114 4.510,26.788 2.529,27.044 1.197,27.689 0.515,28.724" fill="#2f201a" fill-opacity="0.22"/>
<polygon points="19.271,25.464 18.612,22.536 17.623,20.761 16.305,20.138 14.657,20.667 12.680,22.349 11.856,23.922 12.185,25.386 13.668,26.741 16.304,27.987 18.117,28.190 19.106,27.349" fill="#e8662e" stroke="#4d352b" stroke-width="0.35" stroke-opacity="0.18"/>
<polygon points="18.182,25.089 17.734,23.097 17.061,21.890 16.165,21.466 15.044,21.826 13.699,22.970 13.138,24.040 13.362,25.036 14.371,25.958 16.164,26.805 17.397,26.943 18.069,26.371" fill="#2f201a" fill-opacity="0.22"/>
<polygon points="14.532,17.742 12.483,17.488 10.964,17.781 9.975,18.622 9.516,20.011 9.588,21.947 10.136,22.979 11.161,23.106 12.662,22.328 14.639,20.646 15.610,19.321 15.574,18.353" fill="#f7f3e8" stroke="#4d352b" stroke-width="0.35" stroke-opacity="0.18"/>
<polygon points="13.422,18.846 12.364,18.715 11.579,18.867 11.068,19.301 10.831,20.019 10.868,21.019 11.151,21.552 11.681,21.617 12.456,21.216 13.478,20.347 13.979,19.662 13.961,19.162" fill="#2f201a" fill-opacity="0.22"/>
<polygon points="15.400,103.624 16.920,100.313 17.462,97.924 17.027,96.455 15.615,95.906 13.226,96.279 11.651,97.293 10.891,98.948 10.946,101.245 11.816,104.183 12.848,105.559 14.043,105.372" fill="#f7f3e8" stroke="#4d352b" stroke-width="0.35" stroke-opacity="0.18"/>
<polygon points="14.885,102.397 15.850,100.293 16.195,98.775 15.919,97.842 15.022,97.493 13.503,97.730 12.503,98.374 12.020,99.426 12.055,100.885 12.608,102.752 13.264,103.626 14.023,103.507" fill="#2f201a" fill-opacity="0.22"/>
<polygon points="18.645,92.289 18.270,90.273 17.486,89.358 16.291,89.545 14.686,90.832 12.671,93.220 11.758,94.918 11.945,95.926 13.233,96.243 15.623,95.871 17.321,95.087 18.329,93.893" fill="#d8b692" stroke="#4d352b" stroke-width="0.35" stroke-opacity="0.18"/>
<polygon points="17.197,92.675 16.996,91.593 16.575,91.103 15.934,91.203 15.073,91.893 13.993,93.174 13.502,94.085 13.603,94.626 14.294,94.796 15.576,94.596 16.487,94.176 17.027,93.535" fill="#2f201a" fill-opacity="0.22"/>
<polygon points="12.430,88.377 8.928,89.134 6.674,90.109 5.666,91.303 5.906,92.716 7.393,94.347 9.012,94.973 10.763,94.595 12.645,93.211 14.660,90.823 15.296,89.221 14.552,88.406" fill="#e8662e" stroke="#4d352b" stroke-width="0.35" stroke-opacity="0.18"/>
<polygon points="11.620,89.555 9.467,90.020 8.081,90.620 7.462,91.354 7.609,92.222 8.523,93.225 9.519,93.610 10.595,93.377 11.752,92.527 12.991,91.059 13.381,90.074 12.924,89.573" fill="#2f201a" fill-opacity="0.22"/>
<polygon points="3.081,93.807 2.701,96.152 2.883,97.732 3.627,98.547 4.932,98.598 6.798,97.885 7.826,96.942 8.016,95.770 7.367,94.368 5.880,92.737 4.670,92.100 3.737,92.456" fill="#f7f3e8" stroke="#4d352b" stroke-width="0.35" stroke-opacity="0.18"/>
<polygon points="3.951,94.566 3.733,95.913 3.837,96.821 4.265,97.290 5.014,97.319 6.087,96.909 6.678,96.367 6.787,95.694 6.414,94.888 5.560,93.951 4.864,93.585 4.328,93.790" fill="#2f201a" fill-opacity="0.22"/>
<polygon points="57.956,60.127 55.698,59.564 54.020,59.703 52.922,60.543 52.404,62.084 52.466,64.327 53.062,65.589 54.191,65.871 55.854,65.171 58.050,63.491 59.132,62.090 59.101,60.969" fill="#f7f3e8" stroke="#4d352b" stroke-width="0.35" stroke-opacity="0.18"/>
<polygon points="56.925,61.070 55.579,60.735 54.579,60.817 53.925,61.318 53.617,62.237 53.654,63.573 54.009,64.325 54.682,64.493 55.672,64.076 56.981,63.075 57.626,62.240 57.607,61.572" fill="#2f201a" fill-opacity="0.22"/>
<polygon points="61.798,65.609 61.623,63.760 60.942,62.794 59.757,62.709 58.066,63.507 55.870,65.188 54.816,66.490 54.904,67.414 56.133,67.960 58.504,68.129 60.239,67.793 61.337,66.953" fill="#f7f3e8" stroke="#4d352b" stroke-width="0.35" stroke-opacity="0.18"/>
<polygon points="60.335,65.648 60.242,64.662 59.879,64.147 59.247,64.102 58.346,64.528 57.176,65.423 56.614,66.117 56.660,66.610 57.316,66.901 58.580,66.991 59.504,66.812 60.089,66.364" fill="#2f201a" fill-opacity="0.22"/>
<polygon points="56.273,76.326 58.582,73.161 59.722,70.746 59.691,69.080 58.490,68.162 56.119,67.994 54.356,68.701 53.201,70.283 52.654,72.741 52.716,76.073 53.340,77.782 54.525,77.866" fill="#d8b692" stroke="#4d352b" stroke-width="0.35" stroke-opacity="0.18"/>
<polygon points="56.102,74.896 57.569,72.887 58.292,71.353 58.272,70.295 57.510,69.713 56.004,69.606 54.885,70.055 54.152,71.059 53.805,72.620 53.844,74.736 54.240,75.821 54.993,75.874" fill="#2f201a" fill-opacity="0.22"/>
<polygon points="46.438,77.664 48.973,79.032 50.859,79.225 52.096,78.243 52.684,76.085 52.622,72.753 51.957,70.744 50.690,70.060 48.819,70.700 46.345,72.665 45.124,74.480 45.155,76.147" fill="#d8b692" stroke="#4d352b" stroke-width="0.35" stroke-opacity="0.18"/>
<polygon points="47.280,76.830 49.073,77.797 50.406,77.933 51.281,77.239 51.696,75.714 51.653,73.357 51.183,71.937 50.286,71.454 48.964,71.906 47.215,73.295 46.351,74.579 46.373,75.757" fill="#2f201a" fill-opacity="0.22"/>
<polygon points="43.871,70.816 43.371,72.726 43.614,73.667 44.601,73.639 46.332,72.643 48.805,70.678 50.167,69.219 50.417,68.264 49.555,67.814 47.581,67.869 45.976,68.388 44.739,69.370" fill="#d8b692" stroke="#4d352b" stroke-width="0.35" stroke-opacity="0.18"/>
<polygon points="45.556,70.573 45.366,71.297 45.459,71.654 45.833,71.644 46.489,71.266 47.428,70.521 47.944,69.967 48.039,69.605 47.712,69.434 46.963,69.455 46.355,69.652 45.885,70.025" fill="#2f201a" fill-opacity="0.22"/>
<polygon points="49.415,62.179 47.504,64.477 46.564,66.187 46.595,67.308 47.598,67.841 49.571,67.786 51.036,67.184 51.992,66.035 52.438,64.339 52.376,62.096 51.851,60.988 50.864,61.016" fill="#e8662e" stroke="#4d352b" stroke-width="0.35" stroke-opacity="0.18"/>
<polygon points="49.615,63.472 48.651,64.630 48.177,65.492 48.193,66.057 48.698,66.326 49.693,66.298 50.432,65.995 50.913,65.416 51.138,64.561 51.107,63.430 50.842,62.872 50.345,62.886" fill="#2f201a" fill-opacity="0.22"/>
<polygon points="72.462,65.083 71.804,68.274 71.782,70.286 72.396,71.117 73.645,70.769 75.530,69.242 76.637,67.680 76.966,66.085 76.517,64.455 75.289,62.792 74.204,62.342 73.262,63.106" fill="#e8662e" stroke="#4d352b" stroke-width="0.35" stroke-opacity="0.18"/>
<polygon points="73.297,65.889 72.954,67.555 72.942,68.604 73.262,69.038 73.914,68.857 74.898,68.059 75.475,67.245 75.647,66.412 75.413,65.562 74.772,64.694 74.206,64.459 73.714,64.857" fill="#2f201a" fill-opacity="0.22"/>
<polygon points="81.300,59.119 78.169,59.580 76.128,60.342 75.177,61.404 75.315,62.767 76.542,64.431 77.938,65.147 79.503,64.917 81.238,63.739 83.141,61.615 83.785,60.137 83.172,59.305" fill="#f7f3e8" stroke="#4d352b" stroke-width="0.35" stroke-opacity="0.18"/>
<polygon points="80.488,60.230 78.618,60.505 77.400,60.960 76.832,61.594 76.914,62.408 77.647,63.401 78.480,63.829 79.415,63.691 80.450,62.988 81.587,61.720 81.972,60.837 81.605,60.340" fill="#2f201a" fill-opacity="0.22"/>
<polygon points="72.529,76.851 73.668,79.353 74.709,80.221 75.651,79.458 76.496,77.061 77.242,73.032 77.330,70.392 76.760,69.141 75.533,69.280 73.648,70.808 72.520,72.579 72.147,74.593" fill="#e8662e" stroke="#4d352b" stroke-width="0.35" stroke-opacity="0.18"/>
<polygon points="73.614,75.706 74.221,77.040 74.776,77.503 75.279,77.096 75.729,75.818 76.127,73.669 76.174,72.262 75.870,71.595 75.216,71.668 74.211,72.483 73.609,73.428 73.410,74.502" fill="#2f201a" fill-opacity="0.22"/>
<polygon points="79.510,81.889 82.248,81.070 83.803,79.654 84.176,77.639 83.367,75.027 81.375,71.816 79.694,70.415 78.325,70.824 77.268,73.043 76.522,77.072 76.647,79.890 77.643,81.495" fill="#d8b692" stroke="#4d352b" stroke-width="0.35" stroke-opacity="0.18"/>
<polygon points="79.665,80.375 81.611,79.793 82.717,78.786 82.982,77.354 82.407,75.497 80.991,73.215 79.796,72.219 78.823,72.510 78.072,74.087 77.541,76.951 77.630,78.954 78.338,80.095" fill="#2f201a" fill-opacity="0.22"/>
<polygon points="88.973,77.377 90.698,75.744 91.063,74.125 90.067,72.519 87.710,70.928 83.993,69.350 81.703,68.969 80.840,69.786 81.404,71.799 83.396,75.010 85.322,77.010 87.181,77.799" fill="#e8662e" stroke="#4d352b" stroke-width="0.35" stroke-opacity="0.18"/>
<polygon points="87.979,76.023 89.122,74.942 89.364,73.869 88.704,72.806 87.143,71.752 84.680,70.706 83.163,70.454 82.592,70.995 82.966,72.329 84.285,74.456 85.561,75.780 86.792,76.303" fill="#2f201a" fill-opacity="0.22"/>
<polygon points="90.564,67.705 88.750,64.003 86.913,61.757 85.055,60.969 83.174,61.636 81.271,63.761 80.773,65.749 81.680,67.600 83.992,69.314 87.710,70.892 90.044,71.150 90.996,70.087" fill="#d8b692" stroke="#4d352b" stroke-width="0.35" stroke-opacity="0.18"/>
<polygon points="89.270,67.292 87.960,64.619 86.634,62.998 85.293,62.429 83.935,62.911 82.561,64.444 82.202,65.879 82.857,67.215 84.526,68.453 87.209,69.592 88.894,69.778 89.581,69.011" fill="#2f201a" fill-opacity="0.22"/>
<polygon points="29.600,74.644 29.145,76.965 29.361,78.799 30.246,80.147 31.800,81.009 34.025,81.384 35.250,80.991 35.478,79.831 34.706,77.903 32.936,75.206 31.495,73.765 30.383,73.577" fill="#e8662e" stroke="#4d352b" stroke-width="0.35" stroke-opacity="0.18"/>
<polygon points="30.682,76.070 30.430,77.359 30.550,78.378 31.041,79.127 31.905,79.605 33.140,79.814 33.821,79.596 33.947,78.951 33.519,77.880 32.536,76.382 31.735,75.581 31.117,75.477" fill="#2f201a" fill-opacity="0.22"/>
<polygon points="37.972,73.945 34.905,72.829 33.047,72.665 32.399,73.455 32.960,75.198 34.730,77.895 36.381,79.522 37.915,80.080 39.330,79.569 40.627,77.989 40.833,76.525 39.948,75.177" fill="#e8662e" stroke="#4d352b" stroke-width="0.35" stroke-opacity="0.18"/>
<polygon points="37.507,74.819 35.610,74.128 34.460,74.027 34.059,74.516 34.406,75.595 35.501,77.263 36.523,78.269 37.472,78.615 38.348,78.299 39.150,77.321 39.277,76.415 38.730,75.581" fill="#2f201a" fill-opacity="0.22"/>
<polygon points="40.738,90.377 42.712,90.155 43.676,89.498 43.629,88.409 42.572,86.886 40.504,84.930 38.977,84.007 37.989,84.118 37.543,85.264 37.636,87.443 38.200,89.021 39.234,90.000" fill="#e8662e" stroke="#4d352b" stroke-width="0.35" stroke-opacity="0.18"/>
<polygon points="40.518,88.989 41.537,88.874 42.034,88.536 42.010,87.973 41.465,87.187 40.398,86.178 39.609,85.702 39.100,85.759 38.869,86.350 38.918,87.475 39.209,88.289 39.742,88.794" fill="#2f201a" fill-opacity="0.22"/>
<polygon points="44.525,84.491 43.754,80.955 42.852,78.697 41.818,77.719 40.652,78.020 39.356,79.600 38.900,81.274 39.286,83.042 40.512,84.904 42.580,86.861 43.938,87.444 44.587,86.654" fill="#e8662e" stroke="#4d352b" stroke-width="0.35" stroke-opacity="0.18"/>
<polygon points="43.320,83.565 42.902,81.650 42.414,80.428 41.854,79.898 41.223,80.061 40.521,80.917 40.274,81.823 40.483,82.781 41.147,83.789 42.267,84.848 43.002,85.164 43.353,84.736" fill="#2f201a" fill-opacity="0.22"/>
<polygon points="31.953,84.310 34.271,86.864 35.986,88.235 37.098,88.423 37.607,87.427 37.514,85.248 36.888,83.520 35.729,82.243 34.037,81.417 31.813,81.041 30.724,81.399 30.771,82.488" fill="#e8662e" stroke="#4d352b" stroke-width="0.35" stroke-opacity="0.18"/>
<polygon points="33.312,84.349 34.409,85.558 35.220,86.206 35.746,86.295 35.987,85.824 35.943,84.793 35.646,83.976 35.098,83.372 34.298,82.981 33.246,82.803 32.731,82.972 32.753,83.488" fill="#2f201a" fill-opacity="0.22"/>
<polygon points="50.111,29.596 48.692,27.786 47.387,27.115 46.197,27.584 45.121,29.192 44.160,31.940 44.035,33.767 44.744,34.672 46.289,34.656 48.669,33.719 50.100,32.563 50.580,31.189" fill="#d8b692" stroke="#4d352b" stroke-width="0.35" stroke-opacity="0.18"/>
<polygon points="48.996,30.185 48.116,29.062 47.306,28.645 46.568,28.936 45.900,29.934 45.304,31.640 45.226,32.773 45.666,33.335 46.625,33.325 48.102,32.743 48.989,32.026 49.288,31.173" fill="#2f201a" fill-opacity="0.22"/>
<polygon points="41.144,27.799 37.554,29.618 35.519,31.215 35.038,32.589 36.112,33.740 38.741,34.669 40.954,34.679 42.749,33.769 44.127,31.940 45.088,29.192 44.911,27.586 43.597,27.121" fill="#f7f3e8" stroke="#4d352b" stroke-width="0.35" stroke-opacity="0.18"/>
<polygon points="40.895,29.024 38.614,30.180 37.320,31.195 37.015,32.068 37.697,32.800 39.368,33.390 40.774,33.396 41.915,32.818 42.791,31.656 43.402,29.909 43.289,28.888 42.454,28.593" fill="#2f201a" fill-opacity="0.22"/>
<polygon points="48.471,40.935 49.978,37.500 50.514,35.158 50.077,33.910 48.669,33.754 46.288,34.691 44.722,36.019 43.968,37.736 44.028,39.844 44.901,42.341 45.933,43.356 47.123,42.887" fill="#f7f3e8" stroke="#4d352b" stroke-width="0.35" stroke-opacity="0.18"/>
<polygon points="47.894,39.811 48.787,37.776 49.104,36.389 48.845,35.650 48.011,35.557 46.601,36.113 45.673,36.899 45.227,37.916 45.262,39.165 45.779,40.644 46.391,41.245 47.095,40.967" fill="#2f201a" fill-opacity="0.22"/>
<polygon points="32.638,37.211 32.965,40.431 33.786,42.274 35.101,42.738 36.909,41.825 39.211,39.533 40.280,37.583 40.116,35.972 38.720,34.703 36.090,33.774 34.200,33.882 33.050,35.028" fill="#e8662e" stroke="#4d352b" stroke-width="0.35" stroke-opacity="0.18"/>
<polygon points="33.648,37.416 33.879,39.694 34.460,40.998 35.390,41.326 36.669,40.680 38.297,39.059 39.053,37.679 38.938,36.540 37.950,35.642 36.090,34.985 34.753,35.062 33.939,35.872" fill="#2f201a" fill-opacity="0.22"/>
<polygon points="38.242,45.594 41.417,45.800 43.580,45.330 44.731,44.185 44.869,42.363 43.996,39.866 42.766,38.565 41.179,38.462 39.234,39.556 36.932,41.848 36.000,43.618 36.436,44.867" fill="#d8b692" stroke="#4d352b" stroke-width="0.35" stroke-opacity="0.18"/>
<polygon points="39.025,44.642 41.221,44.784 42.717,44.459 43.514,43.667 43.610,42.407 43.006,40.679 42.155,39.779 41.056,39.708 39.711,40.465 38.119,42.050 37.474,43.275 37.776,44.139" fill="#2f201a" fill-opacity="0.22"/>
<polygon points="24.334,68.780 26.707,69.712 28.836,70.012 30.721,69.678 32.363,68.711 33.761,67.111 33.867,66.078 32.681,65.611 30.202,65.712 26.432,66.379 24.197,67.113 23.498,67.913" fill="#e8662e" stroke="#4d352b" stroke-width="0.35" stroke-opacity="0.18"/>
<polygon points="26.891,68.203 27.954,68.621 28.908,68.755 29.753,68.605 30.489,68.172 31.115,67.455 31.163,66.992 30.631,66.783 29.520,66.828 27.830,67.127 26.829,67.456 26.516,67.814" fill="#2f201a" fill-opacity="0.22"/>
<polygon points="34.902,72.800 37.969,73.916 39.852,74.074 40.551,73.274 40.066,71.515 38.398,68.799 36.797,67.162 35.263,66.604 33.798,67.125 32.399,68.725 32.117,70.204 32.952,71.563" fill="#d8b692" stroke="#4d352b" stroke-width="0.35" stroke-opacity="0.18"/>
<polygon points="35.404,71.939 37.334,72.642 38.518,72.741 38.958,72.238 38.653,71.131 37.603,69.422 36.596,68.392 35.631,68.041 34.709,68.369 33.829,69.376 33.652,70.307 34.177,71.161" fill="#2f201a" fill-opacity="0.22"/>
<polygon points="43.343,72.721 43.843,70.811 43.676,69.177 42.841,67.819 41.340,66.736 39.171,65.929 37.962,66.003 37.712,66.958 38.422,68.794 40.090,71.510 41.467,73.070 42.551,73.474" fill="#d8b692" stroke="#4d352b" stroke-width="0.35" stroke-opacity="0.18"/>
<polygon points="42.153,71.017 42.395,70.092 42.314,69.301 41.910,68.643 41.183,68.119 40.133,67.728 39.547,67.764 39.426,68.226 39.770,69.115 40.578,70.430 41.244,71.186 41.769,71.381" fill="#2f201a" fill-opacity="0.22"/>
<polygon points="47.476,64.472 49.387,62.174 49.801,60.823 48.717,60.419 46.135,60.963 42.055,62.454 39.537,63.774 38.581,64.923 39.188,65.901 41.356,66.708 43.460,66.739 45.500,65.993" fill="#e8662e" stroke="#4d352b" stroke-width="0.35" stroke-opacity="0.18"/>
<polygon points="45.905,64.133 46.881,62.959 47.092,62.269 46.539,62.063 45.220,62.341 43.137,63.102 41.851,63.776 41.363,64.363 41.673,64.862 42.780,65.275 43.855,65.290 44.896,64.910" fill="#2f201a" fill-opacity="0.22"/>
<polygon points="7.766,47.376 9.440,48.657 10.709,49.151 11.574,48.857 12.036,47.775 12.093,45.906 11.703,44.651 10.866,44.011 9.582,43.985 7.852,44.573 6.972,45.334 6.944,46.268" fill="#f7f3e8" stroke="#4d352b" stroke-width="0.35" stroke-opacity="0.18"/>
<polygon points="8.748,46.893 9.612,47.554 10.267,47.809 10.713,47.657 10.951,47.099 10.981,46.135 10.779,45.487 10.348,45.157 9.685,45.143 8.792,45.447 8.338,45.840 8.324,46.322" fill="#2f201a" fill-opacity="0.22"/>
<polygon points="15.812,47.222 18.367,44.989 19.659,43.405 19.688,42.470 18.453,42.185 15.954,42.550 14.066,43.290 12.788,44.407 12.121,45.900 12.064,47.769 12.660,48.612 13.909,48.430" fill="#d8b692" stroke="#4d352b" stroke-width="0.35" stroke-opacity="0.18"/>
<polygon points="15.624,46.085 16.808,45.050 17.407,44.316 17.420,43.883 16.848,43.751 15.690,43.919 14.815,44.263 14.223,44.780 13.914,45.472 13.887,46.338 14.164,46.729 14.743,46.644" fill="#2f201a" fill-opacity="0.22"/>
<polygon points="21.486,37.225 21.000,34.305 20.132,32.936 18.883,33.119 17.252,34.852 15.239,38.136 14.355,40.508 14.598,41.967 15.968,42.515 18.467,42.151 20.219,41.147 21.226,39.505" fill="#d8b692" stroke="#4d352b" stroke-width="0.35" stroke-opacity="0.18"/>
<polygon points="20.254,37.593 19.952,35.780 19.413,34.931 18.637,35.044 17.625,36.120 16.375,38.159 15.826,39.632 15.976,40.538 16.828,40.878 18.379,40.652 19.467,40.029 20.092,39.010" fill="#2f201a" fill-opacity="0.22"/>
<polygon points="2.936,40.322 3.857,42.366 4.980,43.752 6.306,44.480 7.835,44.550 9.565,43.962 10.200,43.157 9.739,42.135 8.183,40.896 5.531,39.440 3.773,38.859 2.908,39.153" fill="#e8662e" stroke="#4d352b" stroke-width="0.35" stroke-opacity="0.18"/>
<polygon points="4.780,41.195 5.199,42.124 5.710,42.755 6.313,43.086 7.008,43.118 7.795,42.850 8.083,42.484 7.874,42.019 7.166,41.456 5.960,40.794 5.160,40.529 4.767,40.663" fill="#2f201a" fill-opacity="0.22"/>
<polygon points="16.295,28.029 13.659,26.783 11.838,26.981 10.831,28.623 10.640,31.709 11.264,36.239 12.235,38.815 13.553,39.438 15.218,38.108 17.231,34.824 18.081,32.049 17.769,29.784" fill="#f7f3e8" stroke="#4d352b" stroke-width="0.35" stroke-opacity="0.18"/>
<polygon points="15.619,29.410 13.777,28.540 12.504,28.678 11.801,29.825 11.668,31.982 12.103,35.147 12.782,36.948 13.703,37.383 14.867,36.453 16.273,34.159 16.867,32.220 16.650,30.637" fill="#2f201a" fill-opacity="0.22"/>
<polygon points="6.631,29.537 4.603,32.611 3.745,35.280 4.057,37.545 5.539,39.406 8.191,40.862 10.024,40.821 11.038,39.285 11.233,36.251 10.609,31.721 9.634,29.092 8.308,28.364" fill="#f7f3e8" stroke="#4d352b" stroke-width="0.35" stroke-opacity="0.18"/>
<polygon points="6.985,31.211 5.571,33.354 4.973,35.215 5.191,36.794 6.224,38.091 8.073,39.106 9.350,39.078 10.057,38.007 10.194,35.892 9.759,32.734 9.079,30.901 8.155,30.393" fill="#2f201a" fill-opacity="0.22"/>
<polygon points="23.217,59.569 22.235,62.677 22.256,64.312 23.282,64.475 25.312,63.164 28.345,60.381 30.108,58.212 30.599,56.658 29.819,55.719 27.768,55.394 25.984,55.927 24.467,57.319" fill="#d8b692" stroke="#4d352b" stroke-width="0.35" stroke-opacity="0.18"/>
<polygon points="24.528,59.530 23.990,61.233 24.002,62.129 24.563,62.218 25.675,61.500 27.337,59.975 28.303,58.787 28.572,57.936 28.145,57.421 27.021,57.243 26.044,57.535 25.213,58.298" fill="#2f201a" fill-opacity="0.22"/>
<polygon points="26.436,66.354 30.207,65.687 32.850,64.657 34.367,63.266 34.757,61.512 34.020,59.396 32.709,58.505 30.823,58.839 28.364,60.397 25.330,63.181 23.998,65.101 24.366,66.159" fill="#d8b692" stroke="#4d352b" stroke-width="0.35" stroke-opacity="0.18"/>
<polygon points="27.657,65.068 30.080,64.639 31.779,63.977 32.753,63.083 33.004,61.956 32.530,60.597 31.688,60.024 30.476,60.239 28.896,61.240 26.947,63.028 26.090,64.262 26.327,64.942" fill="#2f201a" fill-opacity="0.22"/>
<polygon points="30.159,48.909 27.981,51.293 26.859,53.163 26.795,54.517 27.789,55.357 29.840,55.682 31.410,55.248 32.500,54.056 33.108,52.106 33.236,49.397 32.787,47.961 31.762,47.798" fill="#d8b692" stroke="#4d352b" stroke-width="0.35" stroke-opacity="0.18"/>
<polygon points="30.241,50.273 28.986,51.645 28.341,52.722 28.304,53.502 28.876,53.986 30.057,54.173 30.962,53.923 31.589,53.237 31.939,52.113 32.013,50.553 31.755,49.726 31.164,49.633" fill="#2f201a" fill-opacity="0.22"/>
<polygon points="49.981,53.984 48.466,50.857 46.505,49.137 44.096,48.824 41.241,49.920 37.938,52.423 36.665,54.456 37.423,56.020 40.210,57.114 45.027,57.739 48.261,57.426 49.912,56.174" fill="#f7f3e8" stroke="#4d352b" stroke-width="0.35" stroke-opacity="0.18"/>
<polygon points="48.420,53.906 47.288,51.569 45.823,50.284 44.024,50.051 41.891,50.869 39.423,52.739 38.473,54.258 39.038,55.426 41.120,56.244 44.719,56.710 47.135,56.476 48.369,55.541" fill="#2f201a" fill-opacity="0.22"/>
<polygon points="42.035,62.435 46.115,60.944 47.971,59.669 47.602,58.611 45.009,57.770 40.192,57.145 36.764,57.206 34.724,57.951 34.073,59.382 34.810,61.497 36.382,62.711 38.791,63.024" fill="#f7f3e8" stroke="#4d352b" stroke-width="0.35" stroke-opacity="0.18"/>
<polygon points="41.425,61.490 44.007,60.547 45.182,59.740 44.948,59.070 43.307,58.538 40.259,58.142 38.088,58.181 36.797,58.653 36.385,59.558 36.852,60.897 37.847,61.666 39.371,61.863" fill="#2f201a" fill-opacity="0.22"/>
<polygon points="41.401,45.834 38.226,45.627 35.813,46.150 34.162,47.402 33.272,49.382 33.144,52.091 33.874,53.497 35.462,53.600 37.907,52.400 41.209,49.897 42.892,47.968 42.956,46.614" fill="#d8b692" stroke="#4d352b" stroke-width="0.35" stroke-opacity="0.18"/>
<polygon points="40.033,47.024 37.979,46.891 36.418,47.229 35.349,48.038 34.774,49.320 34.691,51.072 35.164,51.982 36.191,52.049 37.772,51.272 39.909,49.653 40.998,48.405 41.039,47.529" fill="#2f201a" fill-opacity="0.22"/>
<polygon points="60.932,14.161 62.941,16.550 64.381,17.298 65.250,16.407 65.549,13.876 65.278,9.704 64.639,7.022 63.635,5.827 62.263,6.121 60.525,7.904 59.723,9.838 59.859,11.923" fill="#d8b692" stroke="#4d352b" stroke-width="0.35" stroke-opacity="0.18"/>
<polygon points="61.719,13.058 62.931,14.498 63.798,14.949 64.322,14.412 64.502,12.887 64.339,10.372 63.954,8.755 63.349,8.036 62.522,8.213 61.474,9.287 60.991,10.453 61.073,11.710" fill="#2f201a" fill-opacity="0.22"/>
<polygon points="69.715,16.391 72.202,13.897 73.377,11.607 73.242,9.522 71.795,7.640 69.037,5.963 67.037,5.748 65.794,6.995 65.308,9.704 65.579,13.875 66.404,16.380 67.783,17.219" fill="#e8662e" stroke="#4d352b" stroke-width="0.35" stroke-opacity="0.18"/>
<polygon points="69.500,14.960 71.294,13.159 72.143,11.507 72.045,10.001 71.001,8.643 69.010,7.432 67.566,7.277 66.669,8.177 66.318,10.133 66.514,13.144 67.109,14.952 68.105,15.557" fill="#2f201a" fill-opacity="0.22"/>
<polygon points="56.066,3.982 56.799,6.607 57.784,8.130 59.019,8.551 60.506,7.870 62.245,6.087 62.931,4.540 62.564,3.228 61.145,2.151 58.674,1.308 57.004,1.333 56.135,2.224" fill="#e8662e" stroke="#4d352b" stroke-width="0.35" stroke-opacity="0.18"/>
<polygon points="57.150,4.216 57.632,5.945 58.281,6.948 59.094,7.225 60.074,6.777 61.219,5.603 61.670,4.584 61.429,3.719 60.495,3.010 58.867,2.455 57.767,2.472 57.195,3.058" fill="#2f201a" fill-opacity="0.22"/>
<polygon points="95.205,25.885 96.218,22.408 96.216,19.737 95.201,17.871 93.171,16.810 90.127,16.555 88.352,17.297 87.846,19.036 88.608,21.771 90.639,25.503 92.415,27.432 93.937,27.560" fill="#e8662e" stroke="#4d352b" stroke-width="0.35" stroke-opacity="0.18"/>
<polygon points="94.376,24.618 95.097,22.143 95.096,20.242 94.373,18.913 92.928,18.158 90.762,17.977 89.498,18.505 89.138,19.743 89.680,21.690 91.126,24.346 92.390,25.720 93.473,25.810" fill="#2f201a" fill-opacity="0.22"/>
<polygon points="84.196,29.504 87.979,30.150 90.308,29.702 91.184,28.159 90.607,25.522 88.576,21.790 86.615,19.762 84.724,19.439 82.902,20.820 81.150,23.906 80.782,26.382 81.797,28.248" fill="#e8662e" stroke="#4d352b" stroke-width="0.35" stroke-opacity="0.18"/>
<polygon points="84.612,28.474 87.472,28.963 89.233,28.624 89.896,27.457 89.459,25.463 87.924,22.642 86.441,21.109 85.011,20.864 83.634,21.909 82.309,24.242 82.031,26.114 82.799,27.524" fill="#2f201a" fill-opacity="0.22"/>
<polygon points="76.927,17.057 77.553,21.634 78.461,24.295 79.650,25.041 81.121,23.871 82.872,20.785 83.592,18.098 83.278,15.810 81.933,13.920 79.554,12.428 77.927,12.454 77.051,13.997" fill="#d8b692" stroke="#4d352b" stroke-width="0.35" stroke-opacity="0.18"/>
<polygon points="77.973,17.475 78.386,20.490 78.984,22.244 79.767,22.735 80.736,21.964 81.890,19.931 82.364,18.161 82.157,16.654 81.271,15.409 79.704,14.426 78.632,14.443 78.055,15.459" fill="#2f201a" fill-opacity="0.22"/>
<polygon points="84.594,4.528 81.159,6.775 79.177,8.833 78.648,10.702 79.573,12.383 81.951,13.874 83.999,14.058 85.717,12.935 87.105,10.504 88.162,6.766 88.096,4.524 86.907,3.778" fill="#f7f3e8" stroke="#4d352b" stroke-width="0.35" stroke-opacity="0.18"/>
<polygon points="84.353,5.858 81.908,7.457 80.498,8.921 80.122,10.251 80.780,11.447 82.472,12.508 83.930,12.639 85.152,11.840 86.139,10.110 86.892,7.450 86.845,5.854 85.998,5.324" fill="#2f201a" fill-opacity="0.22"/>
<polygon points="98.208,12.201 98.516,8.904 97.909,7.192 96.387,7.065 93.950,8.522 90.598,11.564 88.845,13.910 88.691,15.558 90.136,16.510 93.180,16.765 95.540,16.132 97.216,14.611" fill="#e8662e" stroke="#4d352b" stroke-width="0.35" stroke-opacity="0.18"/>
<polygon points="96.856,12.270 97.062,10.058 96.655,8.909 95.634,8.824 93.999,9.802 91.750,11.843 90.574,13.416 90.470,14.523 91.440,15.161 93.482,15.332 95.066,14.908 96.190,13.887" fill="#2f201a" fill-opacity="0.22"/>
<polygon points="95.523,2.888 93.228,2.192 91.243,2.604 89.567,4.125 88.200,6.755 87.143,10.493 87.188,12.536 88.336,12.884 90.585,11.537 93.937,8.495 95.877,6.039 96.406,4.170" fill="#d8b692" stroke="#4d352b" stroke-width="0.35" stroke-opacity="0.18"/>
<polygon points="94.063,4.378 92.588,3.931 91.312,4.196 90.234,5.174 89.356,6.864 88.677,9.267 88.706,10.580 89.443,10.804 90.889,9.938 93.044,7.982 94.291,6.404 94.630,5.203" fill="#2f201a" fill-opacity="0.22"/>
<polygon points="14.837,11.180 15.961,13.936 17.575,15.129 19.681,14.757 22.279,12.822 25.367,9.322 26.631,6.883 26.069,5.505 23.682,5.187 19.470,5.930 16.592,7.177 15.048,8.927" fill="#e8662e" stroke="#4d352b" stroke-width="0.35" stroke-opacity="0.18"/>
<polygon points="16.334,10.780 17.148,12.776 18.317,13.640 19.843,13.371 21.724,11.969 23.961,9.434 24.876,7.668 24.469,6.670 22.740,6.440 19.690,6.978 17.605,7.881 16.487,9.148" fill="#2f201a" fill-opacity="0.22"/>
<polygon points="22.551,17.999 25.802,17.938 28.200,17.033 29.744,15.283 30.435,12.689 30.273,9.250 29.379,7.545 27.754,7.575 25.397,9.340 22.308,12.840 20.804,15.449 20.885,17.169" fill="#d8b692" stroke="#4d352b" stroke-width="0.35" stroke-opacity="0.18"/>
<polygon points="23.648,16.571 25.902,16.529 27.564,15.902 28.635,14.688 29.114,12.889 29.002,10.504 28.382,9.323 27.255,9.343 25.621,10.567 23.479,12.994 22.436,14.803 22.493,15.996" fill="#2f201a" fill-opacity="0.22"/>
<polygon points="33.180,12.630 34.825,9.168 35.607,6.577 35.526,4.857 34.582,4.009 32.774,4.032 31.459,4.909 30.636,6.641 30.306,9.226 30.468,12.665 31.001,14.379 31.905,14.368" fill="#e8662e" stroke="#4d352b" stroke-width="0.35" stroke-opacity="0.18"/>
<polygon points="32.957,10.815 33.858,8.921 34.286,7.503 34.241,6.562 33.724,6.098 32.736,6.111 32.016,6.591 31.566,7.538 31.385,8.952 31.474,10.834 31.766,11.771 32.260,11.765" fill="#2f201a" fill-opacity="0.22"/>
<polygon points="19.473,5.890 23.685,5.147 26.171,3.947 26.931,2.292 25.964,0.181 23.272,-2.387 20.873,-3.484 18.767,-3.113 16.954,-1.272 15.434,2.039 15.348,4.336 16.694,5.619" fill="#d8b692" stroke="#4d352b" stroke-width="0.35" stroke-opacity="0.18"/>
<polygon points="19.798,4.837 22.976,4.276 24.852,3.371 25.426,2.122 24.697,0.529 22.665,-1.409 20.854,-2.237 19.265,-1.957 17.897,-0.567 16.750,1.931 16.685,3.664 17.700,4.633" fill="#2f201a" fill-opacity="0.22"/>
<polygon points="3.300,5.074 7.209,5.849 9.456,5.874 10.043,5.149 8.968,3.675 6.232,1.450 3.886,0.145 1.932,-0.243 0.368,0.288 -0.804,1.737 -0.707,3.018 0.662,4.130" fill="#f7f3e8" stroke="#4d352b" stroke-width="0.35" stroke-opacity="0.18"/>
<polygon points="3.706,4.155 5.874,4.585 7.120,4.599 7.445,4.197 6.849,3.380 5.332,2.146 4.031,1.422 2.948,1.207 2.081,1.502 1.431,2.305 1.485,3.016 2.243,3.632" fill="#2f201a" fill-opacity="0.22"/>
<polygon points="32.771,3.997 34.579,3.974 35.416,3.512 35.282,2.612 34.177,1.273 32.101,-0.504 30.612,-1.387 29.708,-1.376 29.390,-0.470 29.658,1.331 30.310,2.676 31.348,3.564" fill="#d8b692" stroke="#4d352b" stroke-width="0.35" stroke-opacity="0.18"/>
<polygon points="32.366,2.521 33.060,2.512 33.381,2.335 33.330,1.989 32.906,1.474 32.108,0.792 31.536,0.453 31.189,0.457 31.067,0.805 31.170,1.497 31.420,2.013 31.819,2.355" fill="#2f201a" fill-opacity="0.22"/>
<polygon points="81.149,6.735 84.585,4.488 86.538,2.239 87.008,-0.013 85.996,-2.267 83.501,-4.524 81.395,-5.091 79.677,-3.968 78.348,-1.154 77.407,3.350 77.560,6.166 78.808,7.294" fill="#e8662e" stroke="#4d352b" stroke-width="0.35" stroke-opacity="0.18"/>
<polygon points="81.322,5.310 83.888,3.632 85.346,1.952 85.697,0.270 84.941,-1.414 83.078,-3.099 81.505,-3.523 80.222,-2.684 79.230,-0.582 78.527,2.781 78.642,4.885 79.573,5.727" fill="#2f201a" fill-opacity="0.22"/>
<polygon points="69.060,5.916 71.818,7.593 74.121,7.725 75.971,6.312 77.366,3.354 78.306,-1.150 78.087,-3.822 76.708,-4.660 74.170,-3.666 70.471,-0.840 68.387,1.699 67.917,3.951" fill="#d8b692" stroke="#4d352b" stroke-width="0.35" stroke-opacity="0.18"/>
<polygon points="70.154,4.926 72.237,6.193 73.977,6.293 75.374,5.225 76.428,2.990 77.139,-0.412 76.973,-2.430 75.932,-3.064 74.014,-2.313 71.220,-0.178 69.645,1.740 69.290,3.442" fill="#2f201a" fill-opacity="0.22"/>
<polygon points="6.252,1.436 8.988,3.660 10.823,4.594 11.756,4.237 11.787,2.590 10.918,-0.348 9.799,-2.373 8.431,-3.485 6.814,-3.685 4.947,-2.971 4.232,-1.880 4.667,-0.411" fill="#f7f3e8" stroke="#4d352b" stroke-width="0.35" stroke-opacity="0.18"/>
<polygon points="7.115,0.874 8.689,2.154 9.745,2.691 10.281,2.486 10.300,1.538 9.799,-0.152 9.156,-1.317 8.369,-1.957 7.438,-2.071 6.365,-1.661 5.953,-1.033 6.203,-0.188" fill="#2f201a" fill-opacity="0.22"/>
<polygon points="95.341,55.429 91.640,56.623 90.103,57.968 90.733,59.464 93.527,61.110 98.487,62.907 101.893,63.507 103.744,62.909 104.040,61.115 102.781,58.124 100.912,56.179 98.432,55.281" fill="#e8662e" stroke="#4d352b" stroke-width="0.35" stroke-opacity="0.18"/>
<polygon points="96.049,56.597 93.489,57.423 92.426,58.354 92.862,59.388 94.794,60.526 98.225,61.769 100.580,62.184 101.860,61.771 102.065,60.530 101.195,58.461 99.902,57.116 98.187,56.495" fill="#2f201a" fill-opacity="0.22"/>
<polygon points="88.796,64.001 90.610,67.703 92.758,70.003 95.238,70.902 98.051,70.398 101.196,68.493 102.315,66.615 101.408,64.764 98.475,62.940 93.515,61.143 90.248,60.721 88.675,61.673" fill="#e8662e" stroke="#4d352b" stroke-width="0.35" stroke-opacity="0.18"/>
<polygon points="90.416,64.458 91.765,67.209 93.361,68.919 95.204,69.587 97.295,69.212 99.633,67.796 100.465,66.400 99.790,65.025 97.610,63.669 93.923,62.333 91.496,62.020 90.327,62.728" fill="#2f201a" fill-opacity="0.22"/>
<polygon points="96.170,77.063 98.042,79.557 99.965,81.235 101.941,82.097 103.969,82.142 106.049,81.372 106.621,80.363 105.685,79.116 103.241,77.631 99.289,75.908 96.794,75.238 95.754,75.623" fill="#e8662e" stroke="#4d352b" stroke-width="0.35" stroke-opacity="0.18"/>
<polygon points="98.540,77.963 99.517,79.265 100.521,80.140 101.552,80.590 102.610,80.614 103.695,80.212 103.993,79.685 103.505,79.035 102.230,78.260 100.168,77.360 98.866,77.011 98.323,77.212" fill="#2f201a" fill-opacity="0.22"/>
<polygon points="90.118,95.734 89.992,98.518 90.763,100.418 92.434,101.433 95.003,101.564 98.470,100.811 100.236,99.738 100.299,98.346 98.660,96.635 95.320,94.604 92.782,93.777 91.049,94.153" fill="#d8b692" stroke="#4d352b" stroke-width="0.35" stroke-opacity="0.18"/>
<polygon points="91.465,96.409 91.376,98.356 91.916,99.684 93.084,100.394 94.880,100.485 97.304,99.959 98.539,99.209 98.583,98.235 97.437,97.039 95.101,95.619 93.327,95.040 92.115,95.304" fill="#2f201a" fill-opacity="0.22"/>
<polygon points="93.526,36.260 93.405,39.645 93.931,41.716 95.105,42.473 96.926,41.915 99.395,40.043 100.659,38.260 100.720,36.568 99.576,34.965 97.228,33.452 95.437,33.163 94.203,34.099" fill="#e8662e" stroke="#4d352b" stroke-width="0.35" stroke-opacity="0.18"/>
<polygon points="94.491,36.705 94.407,39.053 94.772,40.490 95.586,41.015 96.850,40.628 98.562,39.329 99.439,38.093 99.481,36.919 98.687,35.807 97.059,34.757 95.817,34.557 94.961,35.207" fill="#2f201a" fill-opacity="0.22"/>
<polygon points="97.297,28.200 95.865,29.381 95.378,30.644 95.836,31.991 97.239,33.421 99.586,34.934 101.118,35.396 101.834,34.806 101.734,33.164 100.819,30.470 99.774,28.745 98.600,27.989" fill="#f7f3e8" stroke="#4d352b" stroke-width="0.35" stroke-opacity="0.18"/>
<polygon points="97.915,29.638 97.090,30.319 96.809,31.047 97.073,31.823 97.882,32.648 99.235,33.520 100.118,33.786 100.531,33.446 100.473,32.499 99.945,30.947 99.343,29.952 98.666,29.516" fill="#2f201a" fill-opacity="0.22"/>
<polygon points="96.116,48.077 98.033,50.278 99.838,51.422 101.533,51.508 103.117,50.536 104.591,48.507 104.848,46.942 103.890,45.841 101.716,45.205 98.326,45.033 96.263,45.454 95.526,46.469" fill="#e8662e" stroke="#4d352b" stroke-width="0.35" stroke-opacity="0.18"/>
<polygon points="97.586,48.029 98.832,49.460 100.006,50.204 101.108,50.259 102.138,49.628 103.095,48.308 103.263,47.291 102.640,46.575 101.227,46.161 99.023,46.049 97.681,46.323 97.202,46.983" fill="#2f201a" fill-opacity="0.22"/>
<polygon points="99.417,40.067 96.948,41.939 95.944,43.386 96.405,44.408 98.330,45.005 101.720,45.177 104.032,44.795 105.266,43.859 105.423,42.369 104.501,40.325 103.193,39.260 101.498,39.174" fill="#e8662e" stroke="#4d352b" stroke-width="0.35" stroke-opacity="0.18"/>
<polygon points="100.021,40.956 98.462,42.138 97.828,43.052 98.119,43.698 99.335,44.075 101.475,44.184 102.936,43.942 103.715,43.351 103.814,42.410 103.232,41.119 102.406,40.446 101.336,40.392" fill="#2f201a" fill-opacity="0.22"/>
<polygon points="96.897,86.407 94.270,88.448 93.230,89.900 93.776,90.764 95.910,91.039 99.630,90.725 102.147,90.058 103.460,89.037 103.570,87.663 102.477,85.936 101.001,85.151 99.140,85.308" fill="#f7f3e8" stroke="#4d352b" stroke-width="0.35" stroke-opacity="0.18"/>
<polygon points="97.666,87.203 96.104,88.416 95.485,89.280 95.810,89.793 97.079,89.956 99.290,89.770 100.787,89.373 101.567,88.766 101.633,87.950 100.983,86.923 100.105,86.456 98.999,86.549" fill="#2f201a" fill-opacity="0.22"/>
<polygon points="95.345,94.583 98.686,96.614 101.286,97.551 103.147,97.394 104.266,96.143 104.646,93.798 104.000,92.118 102.330,91.103 99.635,90.752 95.914,91.066 93.959,91.809 93.770,92.981" fill="#f7f3e8" stroke="#4d352b" stroke-width="0.35" stroke-opacity="0.18"/>
<polygon points="96.816,94.330 99.041,95.683 100.773,96.307 102.012,96.202 102.757,95.369 103.010,93.808 102.580,92.689 101.468,92.013 99.673,91.779 97.195,91.988 95.893,92.483 95.767,93.264" fill="#2f201a" fill-opacity="0.22"/>
<polygon points="93.258,2.162 95.553,2.858 97.567,3.017 99.301,2.641 100.754,1.728 101.927,0.278 101.940,-0.621 100.792,-0.969 98.485,-0.766 95.017,-0.012 92.990,0.727 92.404,1.451" fill="#d8b692" stroke="#4d352b" stroke-width="0.35" stroke-opacity="0.18"/>
<polygon points="95.929,1.456 96.779,1.714 97.524,1.773 98.166,1.633 98.704,1.295 99.139,0.759 99.143,0.426 98.718,0.297 97.864,0.372 96.580,0.651 95.830,0.925 95.612,1.193" fill="#2f201a" fill-opacity="0.22"/>
</svg>
