solid delaunay_tile_4in_color_1_black
  facet normal 0.000000 0.000000 1.000000
    outer loop
      vertex 0.000000 0.000000 6.350000
      vertex 101.600000 0.000000 6.350000
      vertex 101.600000 101.600000 6.350000
    endloop
  endfacet
  facet normal 0.000000 0.000000 1.000000
    outer loop
      vertex 0.000000 0.000000 6.350000
      vertex 101.600000 101.600000 6.350000
      vertex 0.000000 101.600000 6.350000
    endloop
  endfacet
  facet normal 0.000000 -1.000000 0.000000
    outer loop
      vertex 0.000000 0.000000 0.000000
      vertex 101.600000 0.000000 0.000000
      vertex 101.600000 0.000000 6.350000
    endloop
  endfacet
  facet normal 0.000000 -1.000000 0.000000
    outer loop
      vertex 0.000000 0.000000 0.000000
      vertex 101.600000 0.000000 6.350000
      vertex 0.000000 0.000000 6.350000
    endloop
  endfacet
  facet normal 1.000000 0.000000 0.000000
    outer loop
      vertex 101.600000 0.000000 0.000000
      vertex 101.600000 101.600000 0.000000
      vertex 101.600000 101.600000 6.350000
    endloop
  endfacet
  facet normal 1.000000 0.000000 0.000000
    outer loop
      vertex 101.600000 0.000000 0.000000
      vertex 101.600000 101.600000 6.350000
      vertex 101.600000 0.000000 6.350000
    endloop
  endfacet
  facet normal 0.000000 1.000000 0.000000
    outer loop
      vertex 101.600000 101.600000 0.000000
      vertex 0.000000 101.600000 0.000000
      vertex 0.000000 101.600000 6.350000
    endloop
  endfacet
  facet normal 0.000000 1.000000 -0.000000
    outer loop
      vertex 101.600000 101.600000 0.000000
      vertex 0.000000 101.600000 6.350000
      vertex 101.600000 101.600000 6.350000
    endloop
  endfacet
  facet normal -1.000000 0.000000 0.000000
    outer loop
      vertex 0.000000 101.600000 0.000000
      vertex 0.000000 0.000000 0.000000
      vertex 0.000000 0.000000 6.350000
    endloop
  endfacet
  facet normal -1.000000 0.000000 0.000000
    outer loop
      vertex 0.000000 101.600000 0.000000
      vertex 0.000000 0.000000 6.350000
      vertex 0.000000 101.600000 6.350000
    endloop
  endfacet
  facet normal 0.000000 0.000000 -1.000000
    outer loop
      vertex 0.000000 7.600000 0.000000
      vertex 7.600000 7.600000 0.000000
      vertex 7.600000 0.000000 0.000000
    endloop
  endfacet
  facet normal 0.000000 0.000000 -1.000000
    outer loop
      vertex 0.000000 7.600000 0.000000
      vertex 7.600000 0.000000 0.000000
      vertex 0.000000 0.000000 0.000000
    endloop
  endfacet
  facet normal 0.000000 0.000000 -1.000000
    outer loop
      vertex 0.000000 17.800000 0.000000
      vertex 7.600000 17.800000 0.000000
      vertex 7.600000 7.600000 0.000000
    endloop
  endfacet
  facet normal 0.000000 0.000000 -1.000000
    outer loop
      vertex 0.000000 17.800000 0.000000
      vertex 7.600000 7.600000 0.000000
      vertex 0.000000 7.600000 0.000000
    endloop
  endfacet
  facet normal 0.000000 0.000000 -1.000000
    outer loop
      vertex 0.000000 28.766667 0.000000
      vertex 7.600000 28.766667 0.000000
      vertex 7.600000 17.800000 0.000000
    endloop
  endfacet
  facet normal 0.000000 0.000000 -1.000000
    outer loop
      vertex 0.000000 28.766667 0.000000
      vertex 7.600000 17.800000 0.000000
      vertex 0.000000 17.800000 0.000000
    endloop
  endfacet
  facet normal 0.000000 0.000000 -1.000000
    outer loop
      vertex 0.000000 38.966667 0.000000
      vertex 7.600000 38.966667 0.000000
      vertex 7.600000 28.766667 0.000000
    endloop
  endfacet
  facet normal 0.000000 0.000000 -1.000000
    outer loop
      vertex 0.000000 38.966667 0.000000
      vertex 7.600000 28.766667 0.000000
      vertex 0.000000 28.766667 0.000000
    endloop
  endfacet
  facet normal 0.000000 0.000000 -1.000000
    outer loop
      vertex 0.000000 62.633333 0.000000
      vertex 7.600000 62.633333 0.000000
      vertex 7.600000 38.966667 0.000000
    endloop
  endfacet
  facet normal 0.000000 0.000000 -1.000000
    outer loop
      vertex 0.000000 62.633333 0.000000
      vertex 7.600000 38.966667 0.000000
      vertex 0.000000 38.966667 0.000000
    endloop
  endfacet
  facet normal 0.000000 0.000000 -1.000000
    outer loop
      vertex 0.000000 72.833333 0.000000
      vertex 7.600000 72.833333 0.000000
      vertex 7.600000 62.633333 0.000000
    endloop
  endfacet
  facet normal 0.000000 0.000000 -1.000000
    outer loop
      vertex 0.000000 72.833333 0.000000
      vertex 7.600000 62.633333 0.000000
      vertex 0.000000 62.633333 0.000000
    endloop
  endfacet
  facet normal 0.000000 0.000000 -1.000000
    outer loop
      vertex 0.000000 83.800000 0.000000
      vertex 7.600000 83.800000 0.000000
      vertex 7.600000 72.833333 0.000000
    endloop
  endfacet
  facet normal 0.000000 0.000000 -1.000000
    outer loop
      vertex 0.000000 83.800000 0.000000
      vertex 7.600000 72.833333 0.000000
      vertex 0.000000 72.833333 0.000000
    endloop
  endfacet
  facet normal 0.000000 0.000000 -1.000000
    outer loop
      vertex 0.000000 94.000000 0.000000
      vertex 7.600000 94.000000 0.000000
      vertex 7.600000 83.800000 0.000000
    endloop
  endfacet
  facet normal 0.000000 0.000000 -1.000000
    outer loop
      vertex 0.000000 94.000000 0.000000
      vertex 7.600000 83.800000 0.000000
      vertex 0.000000 83.800000 0.000000
    endloop
  endfacet
  facet normal 0.000000 0.000000 -1.000000
    outer loop
      vertex 0.000000 101.600000 0.000000
      vertex 7.600000 101.600000 0.000000
      vertex 7.600000 94.000000 0.000000
    endloop
  endfacet
  facet normal 0.000000 0.000000 -1.000000
    outer loop
      vertex 0.000000 101.600000 0.000000
      vertex 7.600000 94.000000 0.000000
      vertex 0.000000 94.000000 0.000000
    endloop
  endfacet
  facet normal 0.000000 0.000000 -1.000000
    outer loop
      vertex 7.600000 7.600000 0.000000
      vertex 17.800000 7.600000 0.000000
      vertex 17.800000 0.000000 0.000000
    endloop
  endfacet
  facet normal 0.000000 0.000000 -1.000000
    outer loop
      vertex 7.600000 7.600000 0.000000
      vertex 17.800000 0.000000 0.000000
      vertex 7.600000 0.000000 0.000000
    endloop
  endfacet
  facet normal 0.000000 0.000000 -1.000000
    outer loop
      vertex 7.600000 17.800000 0.000000
      vertex 17.800000 17.800000 0.000000
      vertex 17.800000 7.600000 0.000000
    endloop
  endfacet
  facet normal 0.000000 0.000000 -1.000000
    outer loop
      vertex 7.600000 17.800000 0.000000
      vertex 17.800000 7.600000 0.000000
      vertex 7.600000 7.600000 0.000000
    endloop
  endfacet
  facet normal 0.000000 0.000000 -1.000000
    outer loop
      vertex 7.600000 28.766667 0.000000
      vertex 17.800000 28.766667 0.000000
      vertex 17.800000 17.800000 0.000000
    endloop
  endfacet
  facet normal 0.000000 0.000000 -1.000000
    outer loop
      vertex 7.600000 28.766667 0.000000
      vertex 17.800000 17.800000 0.000000
      vertex 7.600000 17.800000 0.000000
    endloop
  endfacet
  facet normal 0.000000 0.000000 -1.000000
    outer loop
      vertex 7.600000 62.633333 0.000000
      vertex 17.800000 62.633333 0.000000
      vertex 17.800000 38.966667 0.000000
    endloop
  endfacet
  facet normal 0.000000 0.000000 -1.000000
    outer loop
      vertex 7.600000 62.633333 0.000000
      vertex 17.800000 38.966667 0.000000
      vertex 7.600000 38.966667 0.000000
    endloop
  endfacet
  facet normal 0.000000 0.000000 -1.000000
    outer loop
      vertex 7.600000 83.800000 0.000000
      vertex 17.800000 83.800000 0.000000
      vertex 17.800000 72.833333 0.000000
    endloop
  endfacet
  facet normal 0.000000 0.000000 -1.000000
    outer loop
      vertex 7.600000 83.800000 0.000000
      vertex 17.800000 72.833333 0.000000
      vertex 7.600000 72.833333 0.000000
    endloop
  endfacet
  facet normal 0.000000 0.000000 -1.000000
    outer loop
      vertex 7.600000 94.000000 0.000000
      vertex 17.800000 94.000000 0.000000
      vertex 17.800000 83.800000 0.000000
    endloop
  endfacet
  facet normal 0.000000 0.000000 -1.000000
    outer loop
      vertex 7.600000 94.000000 0.000000
      vertex 17.800000 83.800000 0.000000
      vertex 7.600000 83.800000 0.000000
    endloop
  endfacet
  facet normal 0.000000 0.000000 -1.000000
    outer loop
      vertex 7.600000 101.600000 0.000000
      vertex 17.800000 101.600000 0.000000
      vertex 17.800000 94.000000 0.000000
    endloop
  endfacet
  facet normal 0.000000 0.000000 -1.000000
    outer loop
      vertex 7.600000 101.600000 0.000000
      vertex 17.800000 94.000000 0.000000
      vertex 7.600000 94.000000 0.000000
    endloop
  endfacet
  facet normal 0.000000 0.000000 -1.000000
    outer loop
      vertex 17.800000 7.600000 0.000000
      vertex 28.766667 7.600000 0.000000
      vertex 28.766667 0.000000 0.000000
    endloop
  endfacet
  facet normal 0.000000 0.000000 -1.000000
    outer loop
      vertex 17.800000 7.600000 0.000000
      vertex 28.766667 0.000000 0.000000
      vertex 17.800000 0.000000 0.000000
    endloop
  endfacet
  facet normal 0.000000 0.000000 -1.000000
    outer loop
      vertex 17.800000 17.800000 0.000000
      vertex 28.766667 17.800000 0.000000
      vertex 28.766667 7.600000 0.000000
    endloop
  endfacet
  facet normal 0.000000 0.000000 -1.000000
    outer loop
      vertex 17.800000 17.800000 0.000000
      vertex 28.766667 7.600000 0.000000
      vertex 17.800000 7.600000 0.000000
    endloop
  endfacet
  facet normal 0.000000 0.000000 -1.000000
    outer loop
      vertex 17.800000 28.766667 0.000000
      vertex 28.766667 28.766667 0.000000
      vertex 28.766667 17.800000 0.000000
    endloop
  endfacet
  facet normal 0.000000 0.000000 -1.000000
    outer loop
      vertex 17.800000 28.766667 0.000000
      vertex 28.766667 17.800000 0.000000
      vertex 17.800000 17.800000 0.000000
    endloop
  endfacet
  facet normal 0.000000 0.000000 -1.000000
    outer loop
      vertex 17.800000 38.966667 0.000000
      vertex 28.766667 38.966667 0.000000
      vertex 28.766667 28.766667 0.000000
    endloop
  endfacet
  facet normal 0.000000 0.000000 -1.000000
    outer loop
      vertex 17.800000 38.966667 0.000000
      vertex 28.766667 28.766667 0.000000
      vertex 17.800000 28.766667 0.000000
    endloop
  endfacet
  facet normal 0.000000 0.000000 -1.000000
    outer loop
      vertex 17.800000 62.633333 0.000000
      vertex 28.766667 62.633333 0.000000
      vertex 28.766667 38.966667 0.000000
    endloop
  endfacet
  facet normal 0.000000 0.000000 -1.000000
    outer loop
      vertex 17.800000 62.633333 0.000000
      vertex 28.766667 38.966667 0.000000
      vertex 17.800000 38.966667 0.000000
    endloop
  endfacet
  facet normal 0.000000 0.000000 -1.000000
    outer loop
      vertex 17.800000 72.833333 0.000000
      vertex 28.766667 72.833333 0.000000
      vertex 28.766667 62.633333 0.000000
    endloop
  endfacet
  facet normal 0.000000 0.000000 -1.000000
    outer loop
      vertex 17.800000 72.833333 0.000000
      vertex 28.766667 62.633333 0.000000
      vertex 17.800000 62.633333 0.000000
    endloop
  endfacet
  facet normal 0.000000 0.000000 -1.000000
    outer loop
      vertex 17.800000 83.800000 0.000000
      vertex 28.766667 83.800000 0.000000
      vertex 28.766667 72.833333 0.000000
    endloop
  endfacet
  facet normal 0.000000 0.000000 -1.000000
    outer loop
      vertex 17.800000 83.800000 0.000000
      vertex 28.766667 72.833333 0.000000
      vertex 17.800000 72.833333 0.000000
    endloop
  endfacet
  facet normal 0.000000 0.000000 -1.000000
    outer loop
      vertex 17.800000 94.000000 0.000000
      vertex 28.766667 94.000000 0.000000
      vertex 28.766667 83.800000 0.000000
    endloop
  endfacet
  facet normal 0.000000 0.000000 -1.000000
    outer loop
      vertex 17.800000 94.000000 0.000000
      vertex 28.766667 83.800000 0.000000
      vertex 17.800000 83.800000 0.000000
    endloop
  endfacet
  facet normal 0.000000 0.000000 -1.000000
    outer loop
      vertex 17.800000 101.600000 0.000000
      vertex 28.766667 101.600000 0.000000
      vertex 28.766667 94.000000 0.000000
    endloop
  endfacet
  facet normal 0.000000 0.000000 -1.000000
    outer loop
      vertex 17.800000 101.600000 0.000000
      vertex 28.766667 94.000000 0.000000
      vertex 17.800000 94.000000 0.000000
    endloop
  endfacet
  facet normal 0.000000 0.000000 -1.000000
    outer loop
      vertex 28.766667 7.600000 0.000000
      vertex 38.966667 7.600000 0.000000
      vertex 38.966667 0.000000 0.000000
    endloop
  endfacet
  facet normal 0.000000 0.000000 -1.000000
    outer loop
      vertex 28.766667 7.600000 0.000000
      vertex 38.966667 0.000000 0.000000
      vertex 28.766667 0.000000 0.000000
    endloop
  endfacet
  facet normal 0.000000 0.000000 -1.000000
    outer loop
      vertex 28.766667 28.766667 0.000000
      vertex 38.966667 28.766667 0.000000
      vertex 38.966667 17.800000 0.000000
    endloop
  endfacet
  facet normal 0.000000 0.000000 -1.000000
    outer loop
      vertex 28.766667 28.766667 0.000000
      vertex 38.966667 17.800000 0.000000
      vertex 28.766667 17.800000 0.000000
    endloop
  endfacet
  facet normal 0.000000 0.000000 -1.000000
    outer loop
      vertex 28.766667 38.966667 0.000000
      vertex 38.966667 38.966667 0.000000
      vertex 38.966667 28.766667 0.000000
    endloop
  endfacet
  facet normal 0.000000 0.000000 -1.000000
    outer loop
      vertex 28.766667 38.966667 0.000000
      vertex 38.966667 28.766667 0.000000
      vertex 28.766667 28.766667 0.000000
    endloop
  endfacet
  facet normal 0.000000 0.000000 -1.000000
    outer loop
      vertex 28.766667 62.633333 0.000000
      vertex 38.966667 62.633333 0.000000
      vertex 38.966667 38.966667 0.000000
    endloop
  endfacet
  facet normal 0.000000 0.000000 -1.000000
    outer loop
      vertex 28.766667 62.633333 0.000000
      vertex 38.966667 38.966667 0.000000
      vertex 28.766667 38.966667 0.000000
    endloop
  endfacet
  facet normal 0.000000 0.000000 -1.000000
    outer loop
      vertex 28.766667 72.833333 0.000000
      vertex 38.966667 72.833333 0.000000
      vertex 38.966667 62.633333 0.000000
    endloop
  endfacet
  facet normal 0.000000 0.000000 -1.000000
    outer loop
      vertex 28.766667 72.833333 0.000000
      vertex 38.966667 62.633333 0.000000
      vertex 28.766667 62.633333 0.000000
    endloop
  endfacet
  facet normal 0.000000 0.000000 -1.000000
    outer loop
      vertex 28.766667 83.800000 0.000000
      vertex 38.966667 83.800000 0.000000
      vertex 38.966667 72.833333 0.000000
    endloop
  endfacet
  facet normal 0.000000 0.000000 -1.000000
    outer loop
      vertex 28.766667 83.800000 0.000000
      vertex 38.966667 72.833333 0.000000
      vertex 28.766667 72.833333 0.000000
    endloop
  endfacet
  facet normal 0.000000 0.000000 -1.000000
    outer loop
      vertex 28.766667 101.600000 0.000000
      vertex 38.966667 101.600000 0.000000
      vertex 38.966667 94.000000 0.000000
    endloop
  endfacet
  facet normal 0.000000 0.000000 -1.000000
    outer loop
      vertex 28.766667 101.600000 0.000000
      vertex 38.966667 94.000000 0.000000
      vertex 28.766667 94.000000 0.000000
    endloop
  endfacet
  facet normal 0.000000 0.000000 -1.000000
    outer loop
      vertex 38.966667 7.600000 0.000000
      vertex 62.633333 7.600000 0.000000
      vertex 62.633333 0.000000 0.000000
    endloop
  endfacet
  facet normal 0.000000 0.000000 -1.000000
    outer loop
      vertex 38.966667 7.600000 0.000000
      vertex 62.633333 0.000000 0.000000
      vertex 38.966667 0.000000 0.000000
    endloop
  endfacet
  facet normal 0.000000 0.000000 -1.000000
    outer loop
      vertex 38.966667 17.800000 0.000000
      vertex 62.633333 17.800000 0.000000
      vertex 62.633333 7.600000 0.000000
    endloop
  endfacet
  facet normal 0.000000 0.000000 -1.000000
    outer loop
      vertex 38.966667 17.800000 0.000000
      vertex 62.633333 7.600000 0.000000
      vertex 38.966667 7.600000 0.000000
    endloop
  endfacet
  facet normal 0.000000 0.000000 -1.000000
    outer loop
      vertex 38.966667 28.766667 0.000000
      vertex 62.633333 28.766667 0.000000
      vertex 62.633333 17.800000 0.000000
    endloop
  endfacet
  facet normal 0.000000 0.000000 -1.000000
    outer loop
      vertex 38.966667 28.766667 0.000000
      vertex 62.633333 17.800000 0.000000
      vertex 38.966667 17.800000 0.000000
    endloop
  endfacet
  facet normal 0.000000 0.000000 -1.000000
    outer loop
      vertex 38.966667 38.966667 0.000000
      vertex 62.633333 38.966667 0.000000
      vertex 62.633333 28.766667 0.000000
    endloop
  endfacet
  facet normal 0.000000 0.000000 -1.000000
    outer loop
      vertex 38.966667 38.966667 0.000000
      vertex 62.633333 28.766667 0.000000
      vertex 38.966667 28.766667 0.000000
    endloop
  endfacet
  facet normal 0.000000 0.000000 -1.000000
    outer loop
      vertex 38.966667 62.633333 0.000000
      vertex 62.633333 62.633333 0.000000
      vertex 62.633333 38.966667 0.000000
    endloop
  endfacet
  facet normal 0.000000 0.000000 -1.000000
    outer loop
      vertex 38.966667 62.633333 0.000000
      vertex 62.633333 38.966667 0.000000
      vertex 38.966667 38.966667 0.000000
    endloop
  endfacet
  facet normal 0.000000 0.000000 -1.000000
    outer loop
      vertex 38.966667 72.833333 0.000000
      vertex 62.633333 72.833333 0.000000
      vertex 62.633333 62.633333 0.000000
    endloop
  endfacet
  facet normal 0.000000 0.000000 -1.000000
    outer loop
      vertex 38.966667 72.833333 0.000000
      vertex 62.633333 62.633333 0.000000
      vertex 38.966667 62.633333 0.000000
    endloop
  endfacet
  facet normal 0.000000 0.000000 -1.000000
    outer loop
      vertex 38.966667 83.800000 0.000000
      vertex 62.633333 83.800000 0.000000
      vertex 62.633333 72.833333 0.000000
    endloop
  endfacet
  facet normal 0.000000 0.000000 -1.000000
    outer loop
      vertex 38.966667 83.800000 0.000000
      vertex 62.633333 72.833333 0.000000
      vertex 38.966667 72.833333 0.000000
    endloop
  endfacet
  facet normal 0.000000 0.000000 -1.000000
    outer loop
      vertex 38.966667 94.000000 0.000000
      vertex 62.633333 94.000000 0.000000
      vertex 62.633333 83.800000 0.000000
    endloop
  endfacet
  facet normal 0.000000 0.000000 -1.000000
    outer loop
      vertex 38.966667 94.000000 0.000000
      vertex 62.633333 83.800000 0.000000
      vertex 38.966667 83.800000 0.000000
    endloop
  endfacet
  facet normal 0.000000 0.000000 -1.000000
    outer loop
      vertex 38.966667 101.600000 0.000000
      vertex 62.633333 101.600000 0.000000
      vertex 62.633333 94.000000 0.000000
    endloop
  endfacet
  facet normal 0.000000 0.000000 -1.000000
    outer loop
      vertex 38.966667 101.600000 0.000000
      vertex 62.633333 94.000000 0.000000
      vertex 38.966667 94.000000 0.000000
    endloop
  endfacet
  facet normal 0.000000 0.000000 -1.000000
    outer loop
      vertex 62.633333 7.600000 0.000000
      vertex 72.833333 7.600000 0.000000
      vertex 72.833333 0.000000 0.000000
    endloop
  endfacet
  facet normal 0.000000 0.000000 -1.000000
    outer loop
      vertex 62.633333 7.600000 0.000000
      vertex 72.833333 0.000000 0.000000
      vertex 62.633333 0.000000 0.000000
    endloop
  endfacet
  facet normal 0.000000 0.000000 -1.000000
    outer loop
      vertex 62.633333 28.766667 0.000000
      vertex 72.833333 28.766667 0.000000
      vertex 72.833333 17.800000 0.000000
    endloop
  endfacet
  facet normal 0.000000 0.000000 -1.000000
    outer loop
      vertex 62.633333 28.766667 0.000000
      vertex 72.833333 17.800000 0.000000
      vertex 62.633333 17.800000 0.000000
    endloop
  endfacet
  facet normal 0.000000 0.000000 -1.000000
    outer loop
      vertex 62.633333 38.966667 0.000000
      vertex 72.833333 38.966667 0.000000
      vertex 72.833333 28.766667 0.000000
    endloop
  endfacet
  facet normal 0.000000 0.000000 -1.000000
    outer loop
      vertex 62.633333 38.966667 0.000000
      vertex 72.833333 28.766667 0.000000
      vertex 62.633333 28.766667 0.000000
    endloop
  endfacet
  facet normal 0.000000 0.000000 -1.000000
    outer loop
      vertex 62.633333 62.633333 0.000000
      vertex 72.833333 62.633333 0.000000
      vertex 72.833333 38.966667 0.000000
    endloop
  endfacet
  facet normal 0.000000 0.000000 -1.000000
    outer loop
      vertex 62.633333 62.633333 0.000000
      vertex 72.833333 38.966667 0.000000
      vertex 62.633333 38.966667 0.000000
    endloop
  endfacet
  facet normal 0.000000 0.000000 -1.000000
    outer loop
      vertex 62.633333 72.833333 0.000000
      vertex 72.833333 72.833333 0.000000
      vertex 72.833333 62.633333 0.000000
    endloop
  endfacet
  facet normal 0.000000 0.000000 -1.000000
    outer loop
      vertex 62.633333 72.833333 0.000000
      vertex 72.833333 62.633333 0.000000
      vertex 62.633333 62.633333 0.000000
    endloop
  endfacet
  facet normal 0.000000 0.000000 -1.000000
    outer loop
      vertex 62.633333 83.800000 0.000000
      vertex 72.833333 83.800000 0.000000
      vertex 72.833333 72.833333 0.000000
    endloop
  endfacet
  facet normal 0.000000 0.000000 -1.000000
    outer loop
      vertex 62.633333 83.800000 0.000000
      vertex 72.833333 72.833333 0.000000
      vertex 62.633333 72.833333 0.000000
    endloop
  endfacet
  facet normal 0.000000 0.000000 -1.000000
    outer loop
      vertex 62.633333 101.600000 0.000000
      vertex 72.833333 101.600000 0.000000
      vertex 72.833333 94.000000 0.000000
    endloop
  endfacet
  facet normal 0.000000 0.000000 -1.000000
    outer loop
      vertex 62.633333 101.600000 0.000000
      vertex 72.833333 94.000000 0.000000
      vertex 62.633333 94.000000 0.000000
    endloop
  endfacet
  facet normal 0.000000 0.000000 -1.000000
    outer loop
      vertex 72.833333 7.600000 0.000000
      vertex 83.800000 7.600000 0.000000
      vertex 83.800000 0.000000 0.000000
    endloop
  endfacet
  facet normal 0.000000 0.000000 -1.000000
    outer loop
      vertex 72.833333 7.600000 0.000000
      vertex 83.800000 0.000000 0.000000
      vertex 72.833333 0.000000 0.000000
    endloop
  endfacet
  facet normal 0.000000 0.000000 -1.000000
    outer loop
      vertex 72.833333 17.800000 0.000000
      vertex 83.800000 17.800000 0.000000
      vertex 83.800000 7.600000 0.000000
    endloop
  endfacet
  facet normal 0.000000 0.000000 -1.000000
    outer loop
      vertex 72.833333 17.800000 0.000000
      vertex 83.800000 7.600000 0.000000
      vertex 72.833333 7.600000 0.000000
    endloop
  endfacet
  facet normal 0.000000 0.000000 -1.000000
    outer loop
      vertex 72.833333 28.766667 0.000000
      vertex 83.800000 28.766667 0.000000
      vertex 83.800000 17.800000 0.000000
    endloop
  endfacet
  facet normal 0.000000 0.000000 -1.000000
    outer loop
      vertex 72.833333 28.766667 0.000000
      vertex 83.800000 17.800000 0.000000
      vertex 72.833333 17.800000 0.000000
    endloop
  endfacet
  facet normal 0.000000 0.000000 -1.000000
    outer loop
      vertex 72.833333 38.966667 0.000000
      vertex 83.800000 38.966667 0.000000
      vertex 83.800000 28.766667 0.000000
    endloop
  endfacet
  facet normal 0.000000 0.000000 -1.000000
    outer loop
      vertex 72.833333 38.966667 0.000000
      vertex 83.800000 28.766667 0.000000
      vertex 72.833333 28.766667 0.000000
    endloop
  endfacet
  facet normal 0.000000 0.000000 -1.000000
    outer loop
      vertex 72.833333 62.633333 0.000000
      vertex 83.800000 62.633333 0.000000
      vertex 83.800000 38.966667 0.000000
    endloop
  endfacet
  facet normal 0.000000 0.000000 -1.000000
    outer loop
      vertex 72.833333 62.633333 0.000000
      vertex 83.800000 38.966667 0.000000
      vertex 72.833333 38.966667 0.000000
    endloop
  endfacet
  facet normal 0.000000 0.000000 -1.000000
    outer loop
      vertex 72.833333 72.833333 0.000000
      vertex 83.800000 72.833333 0.000000
      vertex 83.800000 62.633333 0.000000
    endloop
  endfacet
  facet normal 0.000000 0.000000 -1.000000
    outer loop
      vertex 72.833333 72.833333 0.000000
      vertex 83.800000 62.633333 0.000000
      vertex 72.833333 62.633333 0.000000
    endloop
  endfacet
  facet normal 0.000000 0.000000 -1.000000
    outer loop
      vertex 72.833333 83.800000 0.000000
      vertex 83.800000 83.800000 0.000000
      vertex 83.800000 72.833333 0.000000
    endloop
  endfacet
  facet normal 0.000000 0.000000 -1.000000
    outer loop
      vertex 72.833333 83.800000 0.000000
      vertex 83.800000 72.833333 0.000000
      vertex 72.833333 72.833333 0.000000
    endloop
  endfacet
  facet normal 0.000000 0.000000 -1.000000
    outer loop
      vertex 72.833333 94.000000 0.000000
      vertex 83.800000 94.000000 0.000000
      vertex 83.800000 83.800000 0.000000
    endloop
  endfacet
  facet normal 0.000000 0.000000 -1.000000
    outer loop
      vertex 72.833333 94.000000 0.000000
      vertex 83.800000 83.800000 0.000000
      vertex 72.833333 83.800000 0.000000
    endloop
  endfacet
  facet normal 0.000000 0.000000 -1.000000
    outer loop
      vertex 72.833333 101.600000 0.000000
      vertex 83.800000 101.600000 0.000000
      vertex 83.800000 94.000000 0.000000
    endloop
  endfacet
  facet normal 0.000000 0.000000 -1.000000
    outer loop
      vertex 72.833333 101.600000 0.000000
      vertex 83.800000 94.000000 0.000000
      vertex 72.833333 94.000000 0.000000
    endloop
  endfacet
  facet normal 0.000000 0.000000 -1.000000
    outer loop
      vertex 83.800000 7.600000 0.000000
      vertex 94.000000 7.600000 0.000000
      vertex 94.000000 0.000000 0.000000
    endloop
  endfacet
  facet normal 0.000000 0.000000 -1.000000
    outer loop
      vertex 83.800000 7.600000 0.000000
      vertex 94.000000 0.000000 0.000000
      vertex 83.800000 0.000000 0.000000
    endloop
  endfacet
  facet normal 0.000000 0.000000 -1.000000
    outer loop
      vertex 83.800000 17.800000 0.000000
      vertex 94.000000 17.800000 0.000000
      vertex 94.000000 7.600000 0.000000
    endloop
  endfacet
  facet normal 0.000000 0.000000 -1.000000
    outer loop
      vertex 83.800000 17.800000 0.000000
      vertex 94.000000 7.600000 0.000000
      vertex 83.800000 7.600000 0.000000
    endloop
  endfacet
  facet normal 0.000000 0.000000 -1.000000
    outer loop
      vertex 83.800000 28.766667 0.000000
      vertex 94.000000 28.766667 0.000000
      vertex 94.000000 17.800000 0.000000
    endloop
  endfacet
  facet normal 0.000000 0.000000 -1.000000
    outer loop
      vertex 83.800000 28.766667 0.000000
      vertex 94.000000 17.800000 0.000000
      vertex 83.800000 17.800000 0.000000
    endloop
  endfacet
  facet normal 0.000000 0.000000 -1.000000
    outer loop
      vertex 83.800000 62.633333 0.000000
      vertex 94.000000 62.633333 0.000000
      vertex 94.000000 38.966667 0.000000
    endloop
  endfacet
  facet normal 0.000000 0.000000 -1.000000
    outer loop
      vertex 83.800000 62.633333 0.000000
      vertex 94.000000 38.966667 0.000000
      vertex 83.800000 38.966667 0.000000
    endloop
  endfacet
  facet normal 0.000000 0.000000 -1.000000
    outer loop
      vertex 83.800000 83.800000 0.000000
      vertex 94.000000 83.800000 0.000000
      vertex 94.000000 72.833333 0.000000
    endloop
  endfacet
  facet normal 0.000000 0.000000 -1.000000
    outer loop
      vertex 83.800000 83.800000 0.000000
      vertex 94.000000 72.833333 0.000000
      vertex 83.800000 72.833333 0.000000
    endloop
  endfacet
  facet normal 0.000000 0.000000 -1.000000
    outer loop
      vertex 83.800000 94.000000 0.000000
      vertex 94.000000 94.000000 0.000000
      vertex 94.000000 83.800000 0.000000
    endloop
  endfacet
  facet normal 0.000000 0.000000 -1.000000
    outer loop
      vertex 83.800000 94.000000 0.000000
      vertex 94.000000 83.800000 0.000000
      vertex 83.800000 83.800000 0.000000
    endloop
  endfacet
  facet normal 0.000000 0.000000 -1.000000
    outer loop
      vertex 83.800000 101.600000 0.000000
      vertex 94.000000 101.600000 0.000000
      vertex 94.000000 94.000000 0.000000
    endloop
  endfacet
  facet normal 0.000000 0.000000 -1.000000
    outer loop
      vertex 83.800000 101.600000 0.000000
      vertex 94.000000 94.000000 0.000000
      vertex 83.800000 94.000000 0.000000
    endloop
  endfacet
  facet normal 0.000000 0.000000 -1.000000
    outer loop
      vertex 94.000000 7.600000 0.000000
      vertex 101.600000 7.600000 0.000000
      vertex 101.600000 0.000000 0.000000
    endloop
  endfacet
  facet normal 0.000000 0.000000 -1.000000
    outer loop
      vertex 94.000000 7.600000 0.000000
      vertex 101.600000 0.000000 0.000000
      vertex 94.000000 0.000000 0.000000
    endloop
  endfacet
  facet normal 0.000000 0.000000 -1.000000
    outer loop
      vertex 94.000000 17.800000 0.000000
      vertex 101.600000 17.800000 0.000000
      vertex 101.600000 7.600000 0.000000
    endloop
  endfacet
  facet normal 0.000000 0.000000 -1.000000
    outer loop
      vertex 94.000000 17.800000 0.000000
      vertex 101.600000 7.600000 0.000000
      vertex 94.000000 7.600000 0.000000
    endloop
  endfacet
  facet normal 0.000000 0.000000 -1.000000
    outer loop
      vertex 94.000000 28.766667 0.000000
      vertex 101.600000 28.766667 0.000000
      vertex 101.600000 17.800000 0.000000
    endloop
  endfacet
  facet normal 0.000000 0.000000 -1.000000
    outer loop
      vertex 94.000000 28.766667 0.000000
      vertex 101.600000 17.800000 0.000000
      vertex 94.000000 17.800000 0.000000
    endloop
  endfacet
  facet normal 0.000000 0.000000 -1.000000
    outer loop
      vertex 94.000000 38.966667 0.000000
      vertex 101.600000 38.966667 0.000000
      vertex 101.600000 28.766667 0.000000
    endloop
  endfacet
  facet normal 0.000000 0.000000 -1.000000
    outer loop
      vertex 94.000000 38.966667 0.000000
      vertex 101.600000 28.766667 0.000000
      vertex 94.000000 28.766667 0.000000
    endloop
  endfacet
  facet normal 0.000000 0.000000 -1.000000
    outer loop
      vertex 94.000000 62.633333 0.000000
      vertex 101.600000 62.633333 0.000000
      vertex 101.600000 38.966667 0.000000
    endloop
  endfacet
  facet normal 0.000000 0.000000 -1.000000
    outer loop
      vertex 94.000000 62.633333 0.000000
      vertex 101.600000 38.966667 0.000000
      vertex 94.000000 38.966667 0.000000
    endloop
  endfacet
  facet normal 0.000000 0.000000 -1.000000
    outer loop
      vertex 94.000000 72.833333 0.000000
      vertex 101.600000 72.833333 0.000000
      vertex 101.600000 62.633333 0.000000
    endloop
  endfacet
  facet normal 0.000000 0.000000 -1.000000
    outer loop
      vertex 94.000000 72.833333 0.000000
      vertex 101.600000 62.633333 0.000000
      vertex 94.000000 62.633333 0.000000
    endloop
  endfacet
  facet normal 0.000000 0.000000 -1.000000
    outer loop
      vertex 94.000000 83.800000 0.000000
      vertex 101.600000 83.800000 0.000000
      vertex 101.600000 72.833333 0.000000
    endloop
  endfacet
  facet normal 0.000000 0.000000 -1.000000
    outer loop
      vertex 94.000000 83.800000 0.000000
      vertex 101.600000 72.833333 0.000000
      vertex 94.000000 72.833333 0.000000
    endloop
  endfacet
  facet normal 0.000000 0.000000 -1.000000
    outer loop
      vertex 94.000000 94.000000 0.000000
      vertex 101.600000 94.000000 0.000000
      vertex 101.600000 83.800000 0.000000
    endloop
  endfacet
  facet normal 0.000000 0.000000 -1.000000
    outer loop
      vertex 94.000000 94.000000 0.000000
      vertex 101.600000 83.800000 0.000000
      vertex 94.000000 83.800000 0.000000
    endloop
  endfacet
  facet normal 0.000000 0.000000 -1.000000
    outer loop
      vertex 94.000000 101.600000 0.000000
      vertex 101.600000 101.600000 0.000000
      vertex 101.600000 94.000000 0.000000
    endloop
  endfacet
  facet normal 0.000000 0.000000 -1.000000
    outer loop
      vertex 94.000000 101.600000 0.000000
      vertex 101.600000 94.000000 0.000000
      vertex 94.000000 94.000000 0.000000
    endloop
  endfacet
  facet normal 0.000000 0.000000 1.000000
    outer loop
      vertex 7.600000 28.766667 4.300000
      vertex 17.800000 28.766667 4.300000
      vertex 17.800000 38.966667 4.300000
    endloop
  endfacet
  facet normal 0.000000 0.000000 1.000000
    outer loop
      vertex 7.600000 28.766667 4.300000
      vertex 17.800000 38.966667 4.300000
      vertex 7.600000 38.966667 4.300000
    endloop
  endfacet
  facet normal 0.000000 -1.000000 0.000000
    outer loop
      vertex 7.600000 28.766667 0.000000
      vertex 17.800000 28.766667 0.000000
      vertex 17.800000 28.766667 4.300000
    endloop
  endfacet
  facet normal 0.000000 -1.000000 0.000000
    outer loop
      vertex 7.600000 28.766667 0.000000
      vertex 17.800000 28.766667 4.300000
      vertex 7.600000 28.766667 4.300000
    endloop
  endfacet
  facet normal 1.000000 0.000000 0.000000
    outer loop
      vertex 17.800000 28.766667 0.000000
      vertex 17.800000 38.966667 0.000000
      vertex 17.800000 38.966667 4.300000
    endloop
  endfacet
  facet normal 1.000000 0.000000 0.000000
    outer loop
      vertex 17.800000 28.766667 0.000000
      vertex 17.800000 38.966667 4.300000
      vertex 17.800000 28.766667 4.300000
    endloop
  endfacet
  facet normal 0.000000 1.000000 0.000000
    outer loop
      vertex 17.800000 38.966667 0.000000
      vertex 7.600000 38.966667 0.000000
      vertex 7.600000 38.966667 4.300000
    endloop
  endfacet
  facet normal 0.000000 1.000000 -0.000000
    outer loop
      vertex 17.800000 38.966667 0.000000
      vertex 7.600000 38.966667 4.300000
      vertex 17.800000 38.966667 4.300000
    endloop
  endfacet
  facet normal -1.000000 0.000000 0.000000
    outer loop
      vertex 7.600000 38.966667 0.000000
      vertex 7.600000 28.766667 0.000000
      vertex 7.600000 28.766667 4.300000
    endloop
  endfacet
  facet normal -1.000000 0.000000 0.000000
    outer loop
      vertex 7.600000 38.966667 0.000000
      vertex 7.600000 28.766667 4.300000
      vertex 7.600000 38.966667 4.300000
    endloop
  endfacet
  facet normal 0.000000 0.000000 1.000000
    outer loop
      vertex 83.800000 28.766667 4.300000
      vertex 94.000000 28.766667 4.300000
      vertex 94.000000 38.966667 4.300000
    endloop
  endfacet
  facet normal 0.000000 0.000000 1.000000
    outer loop
      vertex 83.800000 28.766667 4.300000
      vertex 94.000000 38.966667 4.300000
      vertex 83.800000 38.966667 4.300000
    endloop
  endfacet
  facet normal 0.000000 -1.000000 0.000000
    outer loop
      vertex 83.800000 28.766667 0.000000
      vertex 94.000000 28.766667 0.000000
      vertex 94.000000 28.766667 4.300000
    endloop
  endfacet
  facet normal 0.000000 -1.000000 0.000000
    outer loop
      vertex 83.800000 28.766667 0.000000
      vertex 94.000000 28.766667 4.300000
      vertex 83.800000 28.766667 4.300000
    endloop
  endfacet
  facet normal 1.000000 0.000000 0.000000
    outer loop
      vertex 94.000000 28.766667 0.000000
      vertex 94.000000 38.966667 0.000000
      vertex 94.000000 38.966667 4.300000
    endloop
  endfacet
  facet normal 1.000000 0.000000 0.000000
    outer loop
      vertex 94.000000 28.766667 0.000000
      vertex 94.000000 38.966667 4.300000
      vertex 94.000000 28.766667 4.300000
    endloop
  endfacet
  facet normal 0.000000 1.000000 0.000000
    outer loop
      vertex 94.000000 38.966667 0.000000
      vertex 83.800000 38.966667 0.000000
      vertex 83.800000 38.966667 4.300000
    endloop
  endfacet
  facet normal 0.000000 1.000000 -0.000000
    outer loop
      vertex 94.000000 38.966667 0.000000
      vertex 83.800000 38.966667 4.300000
      vertex 94.000000 38.966667 4.300000
    endloop
  endfacet
  facet normal -1.000000 0.000000 0.000000
    outer loop
      vertex 83.800000 38.966667 0.000000
      vertex 83.800000 28.766667 0.000000
      vertex 83.800000 28.766667 4.300000
    endloop
  endfacet
  facet normal -1.000000 0.000000 0.000000
    outer loop
      vertex 83.800000 38.966667 0.000000
      vertex 83.800000 28.766667 4.300000
      vertex 83.800000 38.966667 4.300000
    endloop
  endfacet
  facet normal 0.000000 0.000000 1.000000
    outer loop
      vertex 7.600000 62.633333 4.300000
      vertex 17.800000 62.633333 4.300000
      vertex 17.800000 72.833333 4.300000
    endloop
  endfacet
  facet normal 0.000000 0.000000 1.000000
    outer loop
      vertex 7.600000 62.633333 4.300000
      vertex 17.800000 72.833333 4.300000
      vertex 7.600000 72.833333 4.300000
    endloop
  endfacet
  facet normal 0.000000 -1.000000 0.000000
    outer loop
      vertex 7.600000 62.633333 0.000000
      vertex 17.800000 62.633333 0.000000
      vertex 17.800000 62.633333 4.300000
    endloop
  endfacet
  facet normal 0.000000 -1.000000 0.000000
    outer loop
      vertex 7.600000 62.633333 0.000000
      vertex 17.800000 62.633333 4.300000
      vertex 7.600000 62.633333 4.300000
    endloop
  endfacet
  facet normal 1.000000 0.000000 0.000000
    outer loop
      vertex 17.800000 62.633333 0.000000
      vertex 17.800000 72.833333 0.000000
      vertex 17.800000 72.833333 4.300000
    endloop
  endfacet
  facet normal 1.000000 0.000000 0.000000
    outer loop
      vertex 17.800000 62.633333 0.000000
      vertex 17.800000 72.833333 4.300000
      vertex 17.800000 62.633333 4.300000
    endloop
  endfacet
  facet normal 0.000000 1.000000 0.000000
    outer loop
      vertex 17.800000 72.833333 0.000000
      vertex 7.600000 72.833333 0.000000
      vertex 7.600000 72.833333 4.300000
    endloop
  endfacet
  facet normal 0.000000 1.000000 -0.000000
    outer loop
      vertex 17.800000 72.833333 0.000000
      vertex 7.600000 72.833333 4.300000
      vertex 17.800000 72.833333 4.300000
    endloop
  endfacet
  facet normal -1.000000 0.000000 0.000000
    outer loop
      vertex 7.600000 72.833333 0.000000
      vertex 7.600000 62.633333 0.000000
      vertex 7.600000 62.633333 4.300000
    endloop
  endfacet
  facet normal -1.000000 0.000000 0.000000
    outer loop
      vertex 7.600000 72.833333 0.000000
      vertex 7.600000 62.633333 4.300000
      vertex 7.600000 72.833333 4.300000
    endloop
  endfacet
  facet normal 0.000000 0.000000 1.000000
    outer loop
      vertex 83.800000 62.633333 4.300000
      vertex 94.000000 62.633333 4.300000
      vertex 94.000000 72.833333 4.300000
    endloop
  endfacet
  facet normal 0.000000 0.000000 1.000000
    outer loop
      vertex 83.800000 62.633333 4.300000
      vertex 94.000000 72.833333 4.300000
      vertex 83.800000 72.833333 4.300000
    endloop
  endfacet
  facet normal 0.000000 -1.000000 0.000000
    outer loop
      vertex 83.800000 62.633333 0.000000
      vertex 94.000000 62.633333 0.000000
      vertex 94.000000 62.633333 4.300000
    endloop
  endfacet
  facet normal 0.000000 -1.000000 0.000000
    outer loop
      vertex 83.800000 62.633333 0.000000
      vertex 94.000000 62.633333 4.300000
      vertex 83.800000 62.633333 4.300000
    endloop
  endfacet
  facet normal 1.000000 0.000000 0.000000
    outer loop
      vertex 94.000000 62.633333 0.000000
      vertex 94.000000 72.833333 0.000000
      vertex 94.000000 72.833333 4.300000
    endloop
  endfacet
  facet normal 1.000000 0.000000 0.000000
    outer loop
      vertex 94.000000 62.633333 0.000000
      vertex 94.000000 72.833333 4.300000
      vertex 94.000000 62.633333 4.300000
    endloop
  endfacet
  facet normal 0.000000 1.000000 0.000000
    outer loop
      vertex 94.000000 72.833333 0.000000
      vertex 83.800000 72.833333 0.000000
      vertex 83.800000 72.833333 4.300000
    endloop
  endfacet
  facet normal 0.000000 1.000000 -0.000000
    outer loop
      vertex 94.000000 72.833333 0.000000
      vertex 83.800000 72.833333 4.300000
      vertex 94.000000 72.833333 4.300000
    endloop
  endfacet
  facet normal -1.000000 0.000000 0.000000
    outer loop
      vertex 83.800000 72.833333 0.000000
      vertex 83.800000 62.633333 0.000000
      vertex 83.800000 62.633333 4.300000
    endloop
  endfacet
  facet normal -1.000000 0.000000 0.000000
    outer loop
      vertex 83.800000 72.833333 0.000000
      vertex 83.800000 62.633333 4.300000
      vertex 83.800000 72.833333 4.300000
    endloop
  endfacet
  facet normal 0.000000 0.000000 1.000000
    outer loop
      vertex 28.766667 7.600000 4.300000
      vertex 38.966667 7.600000 4.300000
      vertex 38.966667 17.800000 4.300000
    endloop
  endfacet
  facet normal 0.000000 0.000000 1.000000
    outer loop
      vertex 28.766667 7.600000 4.300000
      vertex 38.966667 17.800000 4.300000
      vertex 28.766667 17.800000 4.300000
    endloop
  endfacet
  facet normal 0.000000 -1.000000 0.000000
    outer loop
      vertex 28.766667 7.600000 0.000000
      vertex 38.966667 7.600000 0.000000
      vertex 38.966667 7.600000 4.300000
    endloop
  endfacet
  facet normal 0.000000 -1.000000 0.000000
    outer loop
      vertex 28.766667 7.600000 0.000000
      vertex 38.966667 7.600000 4.300000
      vertex 28.766667 7.600000 4.300000
    endloop
  endfacet
  facet normal 1.000000 0.000000 0.000000
    outer loop
      vertex 38.966667 7.600000 0.000000
      vertex 38.966667 17.800000 0.000000
      vertex 38.966667 17.800000 4.300000
    endloop
  endfacet
  facet normal 1.000000 0.000000 0.000000
    outer loop
      vertex 38.966667 7.600000 0.000000
      vertex 38.966667 17.800000 4.300000
      vertex 38.966667 7.600000 4.300000
    endloop
  endfacet
  facet normal 0.000000 1.000000 0.000000
    outer loop
      vertex 38.966667 17.800000 0.000000
      vertex 28.766667 17.800000 0.000000
      vertex 28.766667 17.800000 4.300000
    endloop
  endfacet
  facet normal 0.000000 1.000000 -0.000000
    outer loop
      vertex 38.966667 17.800000 0.000000
      vertex 28.766667 17.800000 4.300000
      vertex 38.966667 17.800000 4.300000
    endloop
  endfacet
  facet normal -1.000000 0.000000 0.000000
    outer loop
      vertex 28.766667 17.800000 0.000000
      vertex 28.766667 7.600000 0.000000
      vertex 28.766667 7.600000 4.300000
    endloop
  endfacet
  facet normal -1.000000 0.000000 0.000000
    outer loop
      vertex 28.766667 17.800000 0.000000
      vertex 28.766667 7.600000 4.300000
      vertex 28.766667 17.800000 4.300000
    endloop
  endfacet
  facet normal 0.000000 0.000000 1.000000
    outer loop
      vertex 28.766667 83.800000 4.300000
      vertex 38.966667 83.800000 4.300000
      vertex 38.966667 94.000000 4.300000
    endloop
  endfacet
  facet normal 0.000000 0.000000 1.000000
    outer loop
      vertex 28.766667 83.800000 4.300000
      vertex 38.966667 94.000000 4.300000
      vertex 28.766667 94.000000 4.300000
    endloop
  endfacet
  facet normal 0.000000 -1.000000 0.000000
    outer loop
      vertex 28.766667 83.800000 0.000000
      vertex 38.966667 83.800000 0.000000
      vertex 38.966667 83.800000 4.300000
    endloop
  endfacet
  facet normal 0.000000 -1.000000 0.000000
    outer loop
      vertex 28.766667 83.800000 0.000000
      vertex 38.966667 83.800000 4.300000
      vertex 28.766667 83.800000 4.300000
    endloop
  endfacet
  facet normal 1.000000 0.000000 0.000000
    outer loop
      vertex 38.966667 83.800000 0.000000
      vertex 38.966667 94.000000 0.000000
      vertex 38.966667 94.000000 4.300000
    endloop
  endfacet
  facet normal 1.000000 0.000000 0.000000
    outer loop
      vertex 38.966667 83.800000 0.000000
      vertex 38.966667 94.000000 4.300000
      vertex 38.966667 83.800000 4.300000
    endloop
  endfacet
  facet normal 0.000000 1.000000 0.000000
    outer loop
      vertex 38.966667 94.000000 0.000000
      vertex 28.766667 94.000000 0.000000
      vertex 28.766667 94.000000 4.300000
    endloop
  endfacet
  facet normal 0.000000 1.000000 -0.000000
    outer loop
      vertex 38.966667 94.000000 0.000000
      vertex 28.766667 94.000000 4.300000
      vertex 38.966667 94.000000 4.300000
    endloop
  endfacet
  facet normal -1.000000 0.000000 0.000000
    outer loop
      vertex 28.766667 94.000000 0.000000
      vertex 28.766667 83.800000 0.000000
      vertex 28.766667 83.800000 4.300000
    endloop
  endfacet
  facet normal -1.000000 0.000000 0.000000
    outer loop
      vertex 28.766667 94.000000 0.000000
      vertex 28.766667 83.800000 4.300000
      vertex 28.766667 94.000000 4.300000
    endloop
  endfacet
  facet normal 0.000000 0.000000 1.000000
    outer loop
      vertex 62.633333 7.600000 4.300000
      vertex 72.833333 7.600000 4.300000
      vertex 72.833333 17.800000 4.300000
    endloop
  endfacet
  facet normal 0.000000 0.000000 1.000000
    outer loop
      vertex 62.633333 7.600000 4.300000
      vertex 72.833333 17.800000 4.300000
      vertex 62.633333 17.800000 4.300000
    endloop
  endfacet
  facet normal 0.000000 -1.000000 0.000000
    outer loop
      vertex 62.633333 7.600000 0.000000
      vertex 72.833333 7.600000 0.000000
      vertex 72.833333 7.600000 4.300000
    endloop
  endfacet
  facet normal 0.000000 -1.000000 0.000000
    outer loop
      vertex 62.633333 7.600000 0.000000
      vertex 72.833333 7.600000 4.300000
      vertex 62.633333 7.600000 4.300000
    endloop
  endfacet
  facet normal 1.000000 0.000000 0.000000
    outer loop
      vertex 72.833333 7.600000 0.000000
      vertex 72.833333 17.800000 0.000000
      vertex 72.833333 17.800000 4.300000
    endloop
  endfacet
  facet normal 1.000000 0.000000 0.000000
    outer loop
      vertex 72.833333 7.600000 0.000000
      vertex 72.833333 17.800000 4.300000
      vertex 72.833333 7.600000 4.300000
    endloop
  endfacet
  facet normal 0.000000 1.000000 0.000000
    outer loop
      vertex 72.833333 17.800000 0.000000
      vertex 62.633333 17.800000 0.000000
      vertex 62.633333 17.800000 4.300000
    endloop
  endfacet
  facet normal 0.000000 1.000000 -0.000000
    outer loop
      vertex 72.833333 17.800000 0.000000
      vertex 62.633333 17.800000 4.300000
      vertex 72.833333 17.800000 4.300000
    endloop
  endfacet
  facet normal -1.000000 0.000000 0.000000
    outer loop
      vertex 62.633333 17.800000 0.000000
      vertex 62.633333 7.600000 0.000000
      vertex 62.633333 7.600000 4.300000
    endloop
  endfacet
  facet normal -1.000000 0.000000 0.000000
    outer loop
      vertex 62.633333 17.800000 0.000000
      vertex 62.633333 7.600000 4.300000
      vertex 62.633333 17.800000 4.300000
    endloop
  endfacet
  facet normal 0.000000 0.000000 1.000000
    outer loop
      vertex 62.633333 83.800000 4.300000
      vertex 72.833333 83.800000 4.300000
      vertex 72.833333 94.000000 4.300000
    endloop
  endfacet
  facet normal 0.000000 0.000000 1.000000
    outer loop
      vertex 62.633333 83.800000 4.300000
      vertex 72.833333 94.000000 4.300000
      vertex 62.633333 94.000000 4.300000
    endloop
  endfacet
  facet normal 0.000000 -1.000000 0.000000
    outer loop
      vertex 62.633333 83.800000 0.000000
      vertex 72.833333 83.800000 0.000000
      vertex 72.833333 83.800000 4.300000
    endloop
  endfacet
  facet normal 0.000000 -1.000000 0.000000
    outer loop
      vertex 62.633333 83.800000 0.000000
      vertex 72.833333 83.800000 4.300000
      vertex 62.633333 83.800000 4.300000
    endloop
  endfacet
  facet normal 1.000000 0.000000 0.000000
    outer loop
      vertex 72.833333 83.800000 0.000000
      vertex 72.833333 94.000000 0.000000
      vertex 72.833333 94.000000 4.300000
    endloop
  endfacet
  facet normal 1.000000 0.000000 0.000000
    outer loop
      vertex 72.833333 83.800000 0.000000
      vertex 72.833333 94.000000 4.300000
      vertex 72.833333 83.800000 4.300000
    endloop
  endfacet
  facet normal 0.000000 1.000000 0.000000
    outer loop
      vertex 72.833333 94.000000 0.000000
      vertex 62.633333 94.000000 0.000000
      vertex 62.633333 94.000000 4.300000
    endloop
  endfacet
  facet normal 0.000000 1.000000 -0.000000
    outer loop
      vertex 72.833333 94.000000 0.000000
      vertex 62.633333 94.000000 4.300000
      vertex 72.833333 94.000000 4.300000
    endloop
  endfacet
  facet normal -1.000000 0.000000 0.000000
    outer loop
      vertex 62.633333 94.000000 0.000000
      vertex 62.633333 83.800000 0.000000
      vertex 62.633333 83.800000 4.300000
    endloop
  endfacet
  facet normal -1.000000 0.000000 0.000000
    outer loop
      vertex 62.633333 94.000000 0.000000
      vertex 62.633333 83.800000 4.300000
      vertex 62.633333 94.000000 4.300000
    endloop
  endfacet
endsolid delaunay_tile_4in_color_1_black
