<svg xmlns="http://www.w3.org/2000/svg" viewBox="-4 -4 128 128" width="1024" height="1024">
<rect x="0" y="0" width="120" height="120" fill="#d9b895"/>
<g transform="translate(8.387 15.241) rotate(-89.626)">
<ellipse cx="0" cy="0" rx="4.002" ry="4.654" fill="#d9b895" stroke="#5b3a2d" stroke-opacity="0.18" stroke-width="0.45"/>
<ellipse cx="0" cy="0" rx="1.521" ry="1.769" fill="#3b241d" fill-opacity="0.16"/>
</g>
<g transform="translate(68.566 10.830) rotate(-48.560)">
<ellipse cx="0" cy="0" rx="4.652" ry="3.800" fill="#d9b895" stroke="#5b3a2d" stroke-opacity="0.18" stroke-width="0.45"/>
<ellipse cx="0" cy="0" rx="1.768" ry="1.444" fill="#3b241d" fill-opacity="0.16"/>
</g>
<g transform="translate(110.559 14.465) rotate(-154.357)">
<ellipse cx="0" cy="0" rx="5.476" ry="6.280" fill="#d9b895" stroke="#5b3a2d" stroke-opacity="0.18" stroke-width="0.45"/>
<ellipse cx="0" cy="0" rx="2.081" ry="2.386" fill="#3b241d" fill-opacity="0.16"/>
</g>
<g transform="translate(106.321 101.374) rotate(-153.563)">
<ellipse cx="0" cy="0" rx="9.423" ry="8.738" fill="#f7f3e8" stroke="#5b3a2d" stroke-opacity="0.18" stroke-width="0.45"/>
<ellipse cx="0" cy="0" rx="3.581" ry="3.321" fill="#3b241d" fill-opacity="0.16"/>
</g>
<g transform="translate(83.542 111.488) rotate(-40.714)">
<ellipse cx="0" cy="0" rx="4.876" ry="5.699" fill="#d9b895" stroke="#5b3a2d" stroke-opacity="0.18" stroke-width="0.45"/>
<ellipse cx="0" cy="0" rx="1.853" ry="2.166" fill="#3b241d" fill-opacity="0.16"/>
</g>
<g transform="translate(97.322 15.541) rotate(-8.727)">
<ellipse cx="0" cy="0" rx="5.851" ry="5.328" fill="#d9b895" stroke="#5b3a2d" stroke-opacity="0.18" stroke-width="0.45"/>
<ellipse cx="0" cy="0" rx="2.223" ry="2.025" fill="#3b241d" fill-opacity="0.16"/>
</g>
<g transform="translate(89.819 14.472) rotate(-105.903)">
<ellipse cx="0" cy="0" rx="5.552" ry="4.239" fill="#d9b895" stroke="#5b3a2d" stroke-opacity="0.18" stroke-width="0.45"/>
<ellipse cx="0" cy="0" rx="2.110" ry="1.611" fill="#3b241d" fill-opacity="0.16"/>
</g>
<g transform="translate(10.545 104.140) rotate(-107.580)">
<ellipse cx="0" cy="0" rx="4.154" ry="4.565" fill="#d9b895" stroke="#5b3a2d" stroke-opacity="0.18" stroke-width="0.45"/>
<ellipse cx="0" cy="0" rx="1.579" ry="1.735" fill="#3b241d" fill-opacity="0.16"/>
</g>
<g transform="translate(95.725 84.416) rotate(-172.142)">
<ellipse cx="0" cy="0" rx="6.487" ry="5.942" fill="#d9b895" stroke="#5b3a2d" stroke-opacity="0.18" stroke-width="0.45"/>
<ellipse cx="0" cy="0" rx="2.465" ry="2.258" fill="#3b241d" fill-opacity="0.16"/>
</g>
<g transform="translate(21.717 66.243) rotate(-148.753)">
<ellipse cx="0" cy="0" rx="4.574" ry="5.289" fill="#d9b895" stroke="#5b3a2d" stroke-opacity="0.18" stroke-width="0.45"/>
<ellipse cx="0" cy="0" rx="1.738" ry="2.010" fill="#3b241d" fill-opacity="0.16"/>
</g>
<g transform="translate(36.320 28.721) rotate(-126.201)">
<ellipse cx="0" cy="0" rx="5.575" ry="5.846" fill="#d9b895" stroke="#5b3a2d" stroke-opacity="0.18" stroke-width="0.45"/>
<ellipse cx="0" cy="0" rx="2.119" ry="2.221" fill="#3b241d" fill-opacity="0.16"/>
</g>
<g transform="translate(42.918 104.887) rotate(-85.834)">
<ellipse cx="0" cy="0" rx="8.375" ry="8.104" fill="#e7652f" stroke="#5b3a2d" stroke-opacity="0.18" stroke-width="0.45"/>
<ellipse cx="0" cy="0" rx="3.182" ry="3.080" fill="#3b241d" fill-opacity="0.16"/>
</g>
<g transform="translate(80.702 13.060) rotate(-102.694)">
<ellipse cx="0" cy="0" rx="5.245" ry="5.324" fill="#d9b895" stroke="#5b3a2d" stroke-opacity="0.18" stroke-width="0.45"/>
<ellipse cx="0" cy="0" rx="1.993" ry="2.023" fill="#3b241d" fill-opacity="0.16"/>
</g>
<g transform="translate(22.076 38.661) rotate(-18.109)">
<ellipse cx="0" cy="0" rx="6.881" ry="6.374" fill="#d9b895" stroke="#5b3a2d" stroke-opacity="0.18" stroke-width="0.45"/>
<ellipse cx="0" cy="0" rx="2.615" ry="2.422" fill="#3b241d" fill-opacity="0.16"/>
</g>
<g transform="translate(105.408 69.239) rotate(-170.994)">
<ellipse cx="0" cy="0" rx="8.772" ry="8.374" fill="#e7652f" stroke="#5b3a2d" stroke-opacity="0.18" stroke-width="0.45"/>
<ellipse cx="0" cy="0" rx="3.333" ry="3.182" fill="#3b241d" fill-opacity="0.16"/>
</g>
<g transform="translate(74.479 28.541) rotate(-164.211)">
<ellipse cx="0" cy="0" rx="5.431" ry="5.972" fill="#d9b895" stroke="#5b3a2d" stroke-opacity="0.18" stroke-width="0.45"/>
<ellipse cx="0" cy="0" rx="2.064" ry="2.269" fill="#3b241d" fill-opacity="0.16"/>
</g>
<g transform="translate(105.573 58.784) rotate(-35.895)">
<ellipse cx="0" cy="0" rx="4.959" ry="4.834" fill="#d9b895" stroke="#5b3a2d" stroke-opacity="0.18" stroke-width="0.45"/>
<ellipse cx="0" cy="0" rx="1.884" ry="1.837" fill="#3b241d" fill-opacity="0.16"/>
</g>
<g transform="translate(76.406 106.096) rotate(-109.584)">
<ellipse cx="0" cy="0" rx="5.552" ry="4.784" fill="#d9b895" stroke="#5b3a2d" stroke-opacity="0.18" stroke-width="0.45"/>
<ellipse cx="0" cy="0" rx="2.110" ry="1.818" fill="#3b241d" fill-opacity="0.16"/>
</g>
<g transform="translate(110.613 31.264) rotate(-110.310)">
<ellipse cx="0" cy="0" rx="5.945" ry="4.078" fill="#d9b895" stroke="#5b3a2d" stroke-opacity="0.18" stroke-width="0.45"/>
<ellipse cx="0" cy="0" rx="2.259" ry="1.550" fill="#3b241d" fill-opacity="0.16"/>
</g>
<g transform="translate(19.980 110.367) rotate(-26.986)">
<ellipse cx="0" cy="0" rx="4.883" ry="5.268" fill="#d9b895" stroke="#5b3a2d" stroke-opacity="0.18" stroke-width="0.45"/>
<ellipse cx="0" cy="0" rx="1.856" ry="2.002" fill="#3b241d" fill-opacity="0.16"/>
</g>
<g transform="translate(24.746 13.984) rotate(-3.372)">
<ellipse cx="0" cy="0" rx="4.312" ry="4.968" fill="#d9b895" stroke="#5b3a2d" stroke-opacity="0.18" stroke-width="0.45"/>
<ellipse cx="0" cy="0" rx="1.639" ry="1.888" fill="#3b241d" fill-opacity="0.16"/>
</g>
<g transform="translate(45.638 70.960) rotate(-50.017)">
<ellipse cx="0" cy="0" rx="4.858" ry="4.813" fill="#e7652f" stroke="#5b3a2d" stroke-opacity="0.18" stroke-width="0.45"/>
<ellipse cx="0" cy="0" rx="1.846" ry="1.829" fill="#3b241d" fill-opacity="0.16"/>
</g>
<g transform="translate(48.515 84.416) rotate(-122.043)">
<ellipse cx="0" cy="0" rx="10.959" ry="10.860" fill="#e7652f" stroke="#5b3a2d" stroke-opacity="0.18" stroke-width="0.45"/>
<ellipse cx="0" cy="0" rx="4.164" ry="4.127" fill="#3b241d" fill-opacity="0.16"/>
</g>
<g transform="translate(12.058 45.747) rotate(-58.214)">
<ellipse cx="0" cy="0" rx="4.132" ry="5.345" fill="#d9b895" stroke="#5b3a2d" stroke-opacity="0.18" stroke-width="0.45"/>
<ellipse cx="0" cy="0" rx="1.570" ry="2.031" fill="#3b241d" fill-opacity="0.16"/>
</g>
<g transform="translate(18.895 87.558) rotate(-103.482)">
<ellipse cx="0" cy="0" rx="6.737" ry="5.134" fill="#d9b895" stroke="#5b3a2d" stroke-opacity="0.18" stroke-width="0.45"/>
<ellipse cx="0" cy="0" rx="2.560" ry="1.951" fill="#3b241d" fill-opacity="0.16"/>
</g>
<g transform="translate(15.995 11.401) rotate(-66.816)">
<ellipse cx="0" cy="0" rx="4.462" ry="4.459" fill="#f7f3e8" stroke="#5b3a2d" stroke-opacity="0.18" stroke-width="0.45"/>
<ellipse cx="0" cy="0" rx="1.696" ry="1.695" fill="#3b241d" fill-opacity="0.16"/>
</g>
<g transform="translate(112.725 93.232) rotate(-17.222)">
<ellipse cx="0" cy="0" rx="4.307" ry="4.734" fill="#d9b895" stroke="#5b3a2d" stroke-opacity="0.18" stroke-width="0.45"/>
<ellipse cx="0" cy="0" rx="1.637" ry="1.799" fill="#3b241d" fill-opacity="0.16"/>
</g>
<g transform="translate(93.708 109.462) rotate(-2.818)">
<ellipse cx="0" cy="0" rx="5.540" ry="4.003" fill="#d9b895" stroke="#5b3a2d" stroke-opacity="0.18" stroke-width="0.45"/>
<ellipse cx="0" cy="0" rx="2.105" ry="1.521" fill="#3b241d" fill-opacity="0.16"/>
</g>
<g transform="translate(12.926 78.453) rotate(-22.915)">
<ellipse cx="0" cy="0" rx="4.390" ry="3.871" fill="#d9b895" stroke="#5b3a2d" stroke-opacity="0.18" stroke-width="0.45"/>
<ellipse cx="0" cy="0" rx="1.668" ry="1.471" fill="#3b241d" fill-opacity="0.16"/>
</g>
<g transform="translate(10.226 7.212) rotate(-169.970)">
<ellipse cx="0" cy="0" rx="5.242" ry="5.347" fill="#f7f3e8" stroke="#5b3a2d" stroke-opacity="0.18" stroke-width="0.45"/>
<ellipse cx="0" cy="0" rx="1.992" ry="2.032" fill="#3b241d" fill-opacity="0.16"/>
</g>
<g transform="translate(26.620 88.787) rotate(-121.641)">
<ellipse cx="0" cy="0" rx="5.174" ry="4.869" fill="#d9b895" stroke="#5b3a2d" stroke-opacity="0.18" stroke-width="0.45"/>
<ellipse cx="0" cy="0" rx="1.966" ry="1.850" fill="#3b241d" fill-opacity="0.16"/>
</g>
<g transform="translate(10.145 84.315) rotate(-45.549)">
<ellipse cx="0" cy="0" rx="4.738" ry="5.129" fill="#d9b895" stroke="#5b3a2d" stroke-opacity="0.18" stroke-width="0.45"/>
<ellipse cx="0" cy="0" rx="1.800" ry="1.949" fill="#3b241d" fill-opacity="0.16"/>
</g>
<g transform="translate(20.372 48.471) rotate(-145.972)">
<ellipse cx="0" cy="0" rx="6.369" ry="5.160" fill="#d9b895" stroke="#5b3a2d" stroke-opacity="0.18" stroke-width="0.45"/>
<ellipse cx="0" cy="0" rx="2.420" ry="1.961" fill="#3b241d" fill-opacity="0.16"/>
</g>
<g transform="translate(101.488 111.452) rotate(-178.385)">
<ellipse cx="0" cy="0" rx="5.306" ry="5.727" fill="#f7f3e8" stroke="#5b3a2d" stroke-opacity="0.18" stroke-width="0.45"/>
<ellipse cx="0" cy="0" rx="2.016" ry="2.176" fill="#3b241d" fill-opacity="0.16"/>
</g>
<g transform="translate(31.657 50.056) rotate(-130.798)">
<ellipse cx="0" cy="0" rx="8.537" ry="7.854" fill="#e7652f" stroke="#5b3a2d" stroke-opacity="0.18" stroke-width="0.45"/>
<ellipse cx="0" cy="0" rx="3.244" ry="2.985" fill="#3b241d" fill-opacity="0.16"/>
</g>
<g transform="translate(106.628 49.270) rotate(-160.622)">
<ellipse cx="0" cy="0" rx="9.469" ry="6.567" fill="#e7652f" stroke="#5b3a2d" stroke-opacity="0.18" stroke-width="0.45"/>
<ellipse cx="0" cy="0" rx="3.598" ry="2.495" fill="#3b241d" fill-opacity="0.16"/>
</g>
<g transform="translate(34.754 20.918) rotate(-162.898)">
<ellipse cx="0" cy="0" rx="5.156" ry="5.492" fill="#d9b895" stroke="#5b3a2d" stroke-opacity="0.18" stroke-width="0.45"/>
<ellipse cx="0" cy="0" rx="1.959" ry="2.087" fill="#3b241d" fill-opacity="0.16"/>
</g>
<g transform="translate(27.549 30.947) rotate(-120.917)">
<ellipse cx="0" cy="0" rx="5.763" ry="5.224" fill="#d9b895" stroke="#5b3a2d" stroke-opacity="0.18" stroke-width="0.45"/>
<ellipse cx="0" cy="0" rx="2.190" ry="1.985" fill="#3b241d" fill-opacity="0.16"/>
</g>
<g transform="translate(65.817 110.070) rotate(-6.128)">
<ellipse cx="0" cy="0" rx="5.041" ry="6.131" fill="#d9b895" stroke="#5b3a2d" stroke-opacity="0.18" stroke-width="0.45"/>
<ellipse cx="0" cy="0" rx="1.916" ry="2.330" fill="#3b241d" fill-opacity="0.16"/>
</g>
<g transform="translate(110.204 112.153) rotate(-150.464)">
<ellipse cx="0" cy="0" rx="5.414" ry="5.469" fill="#d9b895" stroke="#5b3a2d" stroke-opacity="0.18" stroke-width="0.45"/>
<ellipse cx="0" cy="0" rx="2.057" ry="2.078" fill="#3b241d" fill-opacity="0.16"/>
</g>
<g transform="translate(80.175 83.496) rotate(-52.881)">
<ellipse cx="0" cy="0" rx="4.969" ry="4.652" fill="#d9b895" stroke="#5b3a2d" stroke-opacity="0.18" stroke-width="0.45"/>
<ellipse cx="0" cy="0" rx="1.888" ry="1.768" fill="#3b241d" fill-opacity="0.16"/>
</g>
<g transform="translate(17.828 28.654) rotate(-130.950)">
<ellipse cx="0" cy="0" rx="6.346" ry="6.108" fill="#d9b895" stroke="#5b3a2d" stroke-opacity="0.18" stroke-width="0.45"/>
<ellipse cx="0" cy="0" rx="2.412" ry="2.321" fill="#3b241d" fill-opacity="0.16"/>
</g>
<g transform="translate(20.527 75.190) rotate(-111.999)">
<ellipse cx="0" cy="0" rx="6.582" ry="4.646" fill="#d9b895" stroke="#5b3a2d" stroke-opacity="0.18" stroke-width="0.45"/>
<ellipse cx="0" cy="0" rx="2.501" ry="1.765" fill="#3b241d" fill-opacity="0.16"/>
</g>
<g transform="translate(73.094 112.009) rotate(-120.881)">
<ellipse cx="0" cy="0" rx="4.514" ry="4.470" fill="#d9b895" stroke="#5b3a2d" stroke-opacity="0.18" stroke-width="0.45"/>
<ellipse cx="0" cy="0" rx="1.715" ry="1.698" fill="#3b241d" fill-opacity="0.16"/>
</g>
<g transform="translate(100.857 8.049) rotate(-6.267)">
<ellipse cx="0" cy="0" rx="3.943" ry="5.034" fill="#d9b895" stroke="#5b3a2d" stroke-opacity="0.18" stroke-width="0.45"/>
<ellipse cx="0" cy="0" rx="1.498" ry="1.913" fill="#3b241d" fill-opacity="0.16"/>
</g>
<g transform="translate(28.583 80.696) rotate(-152.121)">
<ellipse cx="0" cy="0" rx="5.705" ry="4.195" fill="#e7652f" stroke="#5b3a2d" stroke-opacity="0.18" stroke-width="0.45"/>
<ellipse cx="0" cy="0" rx="2.168" ry="1.594" fill="#3b241d" fill-opacity="0.16"/>
</g>
<g transform="translate(74.506 93.275) rotate(-82.414)">
<ellipse cx="0" cy="0" rx="8.667" ry="7.986" fill="#e7652f" stroke="#5b3a2d" stroke-opacity="0.18" stroke-width="0.45"/>
<ellipse cx="0" cy="0" rx="3.293" ry="3.035" fill="#3b241d" fill-opacity="0.16"/>
</g>
<g transform="translate(8.421 31.362) rotate(-168.944)">
<ellipse cx="0" cy="0" rx="5.697" ry="5.296" fill="#d9b895" stroke="#5b3a2d" stroke-opacity="0.18" stroke-width="0.45"/>
<ellipse cx="0" cy="0" rx="2.165" ry="2.012" fill="#3b241d" fill-opacity="0.16"/>
</g>
<g transform="translate(112.125 61.942) rotate(-164.528)">
<ellipse cx="0" cy="0" rx="4.985" ry="3.881" fill="#d9b895" stroke="#5b3a2d" stroke-opacity="0.18" stroke-width="0.45"/>
<ellipse cx="0" cy="0" rx="1.894" ry="1.475" fill="#3b241d" fill-opacity="0.16"/>
</g>
<g transform="translate(31.977 109.942) rotate(-91.585)">
<ellipse cx="0" cy="0" rx="6.137" ry="5.862" fill="#d9b895" stroke="#5b3a2d" stroke-opacity="0.18" stroke-width="0.45"/>
<ellipse cx="0" cy="0" rx="2.332" ry="2.228" fill="#3b241d" fill-opacity="0.16"/>
</g>
<g transform="translate(10.441 93.107) rotate(-178.338)">
<ellipse cx="0" cy="0" rx="5.026" ry="4.579" fill="#d9b895" stroke="#5b3a2d" stroke-opacity="0.18" stroke-width="0.45"/>
<ellipse cx="0" cy="0" rx="1.910" ry="1.740" fill="#3b241d" fill-opacity="0.16"/>
</g>
<g transform="translate(112.730 40.188) rotate(-165.817)">
<ellipse cx="0" cy="0" rx="4.030" ry="3.796" fill="#d9b895" stroke="#5b3a2d" stroke-opacity="0.18" stroke-width="0.45"/>
<ellipse cx="0" cy="0" rx="1.531" ry="1.443" fill="#3b241d" fill-opacity="0.16"/>
</g>
<g transform="translate(34.454 10.436) rotate(-167.764)">
<ellipse cx="0" cy="0" rx="7.084" ry="6.414" fill="#d9b895" stroke="#5b3a2d" stroke-opacity="0.18" stroke-width="0.45"/>
<ellipse cx="0" cy="0" rx="2.692" ry="2.437" fill="#3b241d" fill-opacity="0.16"/>
</g>
<g transform="translate(31.025 38.019) rotate(-146.878)">
<ellipse cx="0" cy="0" rx="5.011" ry="5.946" fill="#d9b895" stroke="#5b3a2d" stroke-opacity="0.18" stroke-width="0.45"/>
<ellipse cx="0" cy="0" rx="1.904" ry="2.259" fill="#3b241d" fill-opacity="0.16"/>
</g>
<g transform="translate(88.156 91.977) rotate(-13.016)">
<ellipse cx="0" cy="0" rx="8.366" ry="5.563" fill="#d9b895" stroke="#5b3a2d" stroke-opacity="0.18" stroke-width="0.45"/>
<ellipse cx="0" cy="0" rx="3.179" ry="2.114" fill="#3b241d" fill-opacity="0.16"/>
</g>
<g transform="translate(62.207 33.978) rotate(-109.303)">
<ellipse cx="0" cy="0" rx="8.985" ry="7.877" fill="#e7652f" stroke="#5b3a2d" stroke-opacity="0.18" stroke-width="0.45"/>
<ellipse cx="0" cy="0" rx="3.414" ry="2.993" fill="#3b241d" fill-opacity="0.16"/>
</g>
<g transform="translate(70.649 81.663) rotate(-114.241)">
<ellipse cx="0" cy="0" rx="6.890" ry="8.432" fill="#e7652f" stroke="#5b3a2d" stroke-opacity="0.18" stroke-width="0.45"/>
<ellipse cx="0" cy="0" rx="2.618" ry="3.204" fill="#3b241d" fill-opacity="0.16"/>
</g>
<g transform="translate(8.201 22.794) rotate(-156.257)">
<ellipse cx="0" cy="0" rx="5.483" ry="4.184" fill="#d9b895" stroke="#5b3a2d" stroke-opacity="0.18" stroke-width="0.45"/>
<ellipse cx="0" cy="0" rx="2.084" ry="1.590" fill="#3b241d" fill-opacity="0.16"/>
</g>
<g transform="translate(103.506 38.182) rotate(-47.159)">
<ellipse cx="0" cy="0" rx="6.232" ry="5.870" fill="#d9b895" stroke="#5b3a2d" stroke-opacity="0.18" stroke-width="0.45"/>
<ellipse cx="0" cy="0" rx="2.368" ry="2.231" fill="#3b241d" fill-opacity="0.16"/>
</g>
<g transform="translate(9.401 37.854) rotate(-105.462)">
<ellipse cx="0" cy="0" rx="4.196" ry="3.442" fill="#d9b895" stroke="#5b3a2d" stroke-opacity="0.18" stroke-width="0.45"/>
<ellipse cx="0" cy="0" rx="1.594" ry="1.308" fill="#3b241d" fill-opacity="0.16"/>
</g>
<g transform="translate(23.006 7.962) rotate(-2.770)">
<ellipse cx="0" cy="0" rx="4.355" ry="3.584" fill="#d9b895" stroke="#5b3a2d" stroke-opacity="0.18" stroke-width="0.45"/>
<ellipse cx="0" cy="0" rx="1.655" ry="1.362" fill="#3b241d" fill-opacity="0.16"/>
</g>
<g transform="translate(11.072 111.453) rotate(-66.536)">
<ellipse cx="0" cy="0" rx="5.452" ry="6.348" fill="#d9b895" stroke="#5b3a2d" stroke-opacity="0.18" stroke-width="0.45"/>
<ellipse cx="0" cy="0" rx="2.072" ry="2.412" fill="#3b241d" fill-opacity="0.16"/>
</g>
<g transform="translate(27.122 22.753) rotate(-49.379)">
<ellipse cx="0" cy="0" rx="4.445" ry="5.234" fill="#d9b895" stroke="#5b3a2d" stroke-opacity="0.18" stroke-width="0.45"/>
<ellipse cx="0" cy="0" rx="1.689" ry="1.989" fill="#3b241d" fill-opacity="0.16"/>
</g>
<g transform="translate(47.055 10.819) rotate(-0.736)">
<ellipse cx="0" cy="0" rx="7.184" ry="6.631" fill="#d9b895" stroke="#5b3a2d" stroke-opacity="0.18" stroke-width="0.45"/>
<ellipse cx="0" cy="0" rx="2.730" ry="2.520" fill="#3b241d" fill-opacity="0.16"/>
</g>
<g transform="translate(16.980 19.397) rotate(-155.163)">
<ellipse cx="0" cy="0" rx="7.587" ry="6.353" fill="#d9b895" stroke="#5b3a2d" stroke-opacity="0.18" stroke-width="0.45"/>
<ellipse cx="0" cy="0" rx="2.883" ry="2.414" fill="#3b241d" fill-opacity="0.16"/>
</g>
<g transform="translate(65.101 99.471) rotate(-121.480)">
<ellipse cx="0" cy="0" rx="6.522" ry="5.088" fill="#d9b895" stroke="#5b3a2d" stroke-opacity="0.18" stroke-width="0.45"/>
<ellipse cx="0" cy="0" rx="2.479" ry="1.934" fill="#3b241d" fill-opacity="0.16"/>
</g>
<g transform="translate(67.469 26.199) rotate(-73.035)">
<ellipse cx="0" cy="0" rx="4.847" ry="4.061" fill="#d9b895" stroke="#5b3a2d" stroke-opacity="0.18" stroke-width="0.45"/>
<ellipse cx="0" cy="0" rx="1.842" ry="1.543" fill="#3b241d" fill-opacity="0.16"/>
</g>
<g transform="translate(91.532 7.629) rotate(-52.534)">
<ellipse cx="0" cy="0" rx="4.612" ry="3.467" fill="#d9b895" stroke="#5b3a2d" stroke-opacity="0.18" stroke-width="0.45"/>
<ellipse cx="0" cy="0" rx="1.752" ry="1.317" fill="#3b241d" fill-opacity="0.16"/>
</g>
<g transform="translate(95.006 100.083) rotate(-140.181)">
<ellipse cx="0" cy="0" rx="6.049" ry="5.001" fill="#d9b895" stroke="#5b3a2d" stroke-opacity="0.18" stroke-width="0.45"/>
<ellipse cx="0" cy="0" rx="2.298" ry="1.900" fill="#3b241d" fill-opacity="0.16"/>
</g>
<g transform="translate(55.662 111.300) rotate(-53.734)">
<ellipse cx="0" cy="0" rx="6.568" ry="5.742" fill="#d9b895" stroke="#5b3a2d" stroke-opacity="0.18" stroke-width="0.45"/>
<ellipse cx="0" cy="0" rx="2.496" ry="2.182" fill="#3b241d" fill-opacity="0.16"/>
</g>
<g transform="translate(96.254 59.851) rotate(-74.080)">
<ellipse cx="0" cy="0" rx="7.724" ry="5.865" fill="#d9b895" stroke="#5b3a2d" stroke-opacity="0.18" stroke-width="0.45"/>
<ellipse cx="0" cy="0" rx="2.935" ry="2.229" fill="#3b241d" fill-opacity="0.16"/>
</g>
<g transform="translate(37.089 92.050) rotate(-26.740)">
<ellipse cx="0" cy="0" rx="4.306" ry="4.708" fill="#d9b895" stroke="#5b3a2d" stroke-opacity="0.18" stroke-width="0.45"/>
<ellipse cx="0" cy="0" rx="1.636" ry="1.789" fill="#3b241d" fill-opacity="0.16"/>
</g>
<g transform="translate(85.441 34.952) rotate(-111.691)">
<ellipse cx="0" cy="0" rx="5.274" ry="6.107" fill="#d9b895" stroke="#5b3a2d" stroke-opacity="0.18" stroke-width="0.45"/>
<ellipse cx="0" cy="0" rx="2.004" ry="2.321" fill="#3b241d" fill-opacity="0.16"/>
</g>
<g transform="translate(7.409 51.187) rotate(-14.024)">
<ellipse cx="0" cy="0" rx="5.117" ry="3.850" fill="#d9b895" stroke="#5b3a2d" stroke-opacity="0.18" stroke-width="0.45"/>
<ellipse cx="0" cy="0" rx="1.945" ry="1.463" fill="#3b241d" fill-opacity="0.16"/>
</g>
<g transform="translate(102.724 91.666) rotate(-89.360)">
<ellipse cx="0" cy="0" rx="4.488" ry="4.591" fill="#d9b895" stroke="#5b3a2d" stroke-opacity="0.18" stroke-width="0.45"/>
<ellipse cx="0" cy="0" rx="1.706" ry="1.745" fill="#3b241d" fill-opacity="0.16"/>
</g>
<g transform="translate(86.519 104.478) rotate(-107.818)">
<ellipse cx="0" cy="0" rx="5.104" ry="5.141" fill="#d9b895" stroke="#5b3a2d" stroke-opacity="0.18" stroke-width="0.45"/>
<ellipse cx="0" cy="0" rx="1.940" ry="1.954" fill="#3b241d" fill-opacity="0.16"/>
</g>
<g transform="translate(72.882 17.602) rotate(-118.384)">
<ellipse cx="0" cy="0" rx="7.196" ry="6.271" fill="#d9b895" stroke="#5b3a2d" stroke-opacity="0.18" stroke-width="0.45"/>
<ellipse cx="0" cy="0" rx="2.735" ry="2.383" fill="#3b241d" fill-opacity="0.16"/>
</g>
<g transform="translate(111.164 84.368) rotate(-103.896)">
<ellipse cx="0" cy="0" rx="4.261" ry="3.746" fill="#d9b895" stroke="#5b3a2d" stroke-opacity="0.18" stroke-width="0.45"/>
<ellipse cx="0" cy="0" rx="1.619" ry="1.423" fill="#3b241d" fill-opacity="0.16"/>
</g>
<g transform="translate(54.135 68.755) rotate(-63.106)">
<ellipse cx="0" cy="0" rx="7.115" ry="5.468" fill="#e7652f" stroke="#5b3a2d" stroke-opacity="0.18" stroke-width="0.45"/>
<ellipse cx="0" cy="0" rx="2.704" ry="2.078" fill="#3b241d" fill-opacity="0.16"/>
</g>
<g transform="translate(103.783 80.449) rotate(-40.856)">
<ellipse cx="0" cy="0" rx="5.536" ry="5.686" fill="#d9b895" stroke="#5b3a2d" stroke-opacity="0.18" stroke-width="0.45"/>
<ellipse cx="0" cy="0" rx="2.104" ry="2.161" fill="#3b241d" fill-opacity="0.16"/>
</g>
<g transform="translate(36.766 79.589) rotate(-104.065)">
<ellipse cx="0" cy="0" rx="4.887" ry="5.257" fill="#e7652f" stroke="#5b3a2d" stroke-opacity="0.18" stroke-width="0.45"/>
<ellipse cx="0" cy="0" rx="1.857" ry="1.998" fill="#3b241d" fill-opacity="0.16"/>
</g>
<g transform="translate(79.286 41.452) rotate(-23.979)">
<ellipse cx="0" cy="0" rx="6.892" ry="5.086" fill="#e7652f" stroke="#5b3a2d" stroke-opacity="0.18" stroke-width="0.45"/>
<ellipse cx="0" cy="0" rx="2.619" ry="1.933" fill="#3b241d" fill-opacity="0.16"/>
</g>
<g transform="translate(44.063 20.564) rotate(-140.509)">
<ellipse cx="0" cy="0" rx="4.848" ry="4.902" fill="#d9b895" stroke="#5b3a2d" stroke-opacity="0.18" stroke-width="0.45"/>
<ellipse cx="0" cy="0" rx="1.842" ry="1.863" fill="#3b241d" fill-opacity="0.16"/>
</g>
<g transform="translate(23.086 56.224) rotate(-15.061)">
<ellipse cx="0" cy="0" rx="3.977" ry="3.755" fill="#d9b895" stroke="#5b3a2d" stroke-opacity="0.18" stroke-width="0.45"/>
<ellipse cx="0" cy="0" rx="1.511" ry="1.427" fill="#3b241d" fill-opacity="0.16"/>
</g>
<g transform="translate(111.152 22.949) rotate(-18.108)">
<ellipse cx="0" cy="0" rx="6.282" ry="5.185" fill="#d9b895" stroke="#5b3a2d" stroke-opacity="0.18" stroke-width="0.45"/>
<ellipse cx="0" cy="0" rx="2.387" ry="1.970" fill="#3b241d" fill-opacity="0.16"/>
</g>
<g transform="translate(59.901 91.192) rotate(-122.858)">
<ellipse cx="0" cy="0" rx="7.927" ry="5.007" fill="#e7652f" stroke="#5b3a2d" stroke-opacity="0.18" stroke-width="0.45"/>
<ellipse cx="0" cy="0" rx="3.012" ry="1.903" fill="#3b241d" fill-opacity="0.16"/>
</g>
<g transform="translate(77.043 74.586) rotate(-112.271)">
<ellipse cx="0" cy="0" rx="5.868" ry="5.724" fill="#e7652f" stroke="#5b3a2d" stroke-opacity="0.18" stroke-width="0.45"/>
<ellipse cx="0" cy="0" rx="2.230" ry="2.175" fill="#3b241d" fill-opacity="0.16"/>
</g>
<g transform="translate(9.710 69.828) rotate(-26.558)">
<ellipse cx="0" cy="0" rx="5.825" ry="6.060" fill="#d9b895" stroke="#5b3a2d" stroke-opacity="0.18" stroke-width="0.45"/>
<ellipse cx="0" cy="0" rx="2.213" ry="2.303" fill="#3b241d" fill-opacity="0.16"/>
</g>
<g transform="translate(31.447 96.703) rotate(-46.857)">
<ellipse cx="0" cy="0" rx="5.425" ry="5.687" fill="#d9b895" stroke="#5b3a2d" stroke-opacity="0.18" stroke-width="0.45"/>
<ellipse cx="0" cy="0" rx="2.061" ry="2.161" fill="#3b241d" fill-opacity="0.16"/>
</g>
<g transform="translate(51.634 28.543) rotate(-120.777)">
<ellipse cx="0" cy="0" rx="9.565" ry="7.281" fill="#e7652f" stroke="#5b3a2d" stroke-opacity="0.18" stroke-width="0.45"/>
<ellipse cx="0" cy="0" rx="3.635" ry="2.767" fill="#3b241d" fill-opacity="0.16"/>
</g>
<g transform="translate(99.809 28.303) rotate(-166.522)">
<ellipse cx="0" cy="0" rx="9.324" ry="8.480" fill="#e7652f" stroke="#5b3a2d" stroke-opacity="0.18" stroke-width="0.45"/>
<ellipse cx="0" cy="0" rx="3.543" ry="3.222" fill="#3b241d" fill-opacity="0.16"/>
</g>
<g transform="translate(14.427 61.851) rotate(-87.149)">
<ellipse cx="0" cy="0" rx="8.583" ry="5.237" fill="#d9b895" stroke="#5b3a2d" stroke-opacity="0.18" stroke-width="0.45"/>
<ellipse cx="0" cy="0" rx="3.262" ry="1.990" fill="#3b241d" fill-opacity="0.16"/>
</g>
<g transform="translate(19.571 97.818) rotate(-65.318)">
<ellipse cx="0" cy="0" rx="7.082" ry="9.366" fill="#e7652f" stroke="#5b3a2d" stroke-opacity="0.18" stroke-width="0.45"/>
<ellipse cx="0" cy="0" rx="2.691" ry="3.559" fill="#3b241d" fill-opacity="0.16"/>
</g>
<g transform="translate(52.513 98.359) rotate(-152.353)">
<ellipse cx="0" cy="0" rx="9.346" ry="7.021" fill="#e7652f" stroke="#5b3a2d" stroke-opacity="0.18" stroke-width="0.45"/>
<ellipse cx="0" cy="0" rx="3.552" ry="2.668" fill="#3b241d" fill-opacity="0.16"/>
</g>
<g transform="translate(86.432 24.365) rotate(-28.996)">
<ellipse cx="0" cy="0" rx="8.527" ry="5.401" fill="#d9b895" stroke="#5b3a2d" stroke-opacity="0.18" stroke-width="0.45"/>
<ellipse cx="0" cy="0" rx="3.240" ry="2.052" fill="#3b241d" fill-opacity="0.16"/>
</g>
<g transform="translate(67.507 44.355) rotate(-117.261)">
<ellipse cx="0" cy="0" rx="9.768" ry="6.633" fill="#e7652f" stroke="#5b3a2d" stroke-opacity="0.18" stroke-width="0.45"/>
<ellipse cx="0" cy="0" rx="3.712" ry="2.521" fill="#3b241d" fill-opacity="0.16"/>
</g>
<g transform="translate(59.271 15.488) rotate(-15.530)">
<ellipse cx="0" cy="0" rx="8.888" ry="8.060" fill="#e7652f" stroke="#5b3a2d" stroke-opacity="0.18" stroke-width="0.45"/>
<ellipse cx="0" cy="0" rx="3.378" ry="3.063" fill="#3b241d" fill-opacity="0.16"/>
</g>
<g transform="translate(29.118 60.686) rotate(-128.276)">
<ellipse cx="0" cy="0" rx="5.610" ry="5.537" fill="#e7652f" stroke="#5b3a2d" stroke-opacity="0.18" stroke-width="0.45"/>
<ellipse cx="0" cy="0" rx="2.132" ry="2.104" fill="#3b241d" fill-opacity="0.16"/>
</g>
<g transform="translate(88.428 76.012) rotate(-172.314)">
<ellipse cx="0" cy="0" rx="9.355" ry="9.891" fill="#e7652f" stroke="#5b3a2d" stroke-opacity="0.18" stroke-width="0.45"/>
<ellipse cx="0" cy="0" rx="3.555" ry="3.759" fill="#3b241d" fill-opacity="0.16"/>
</g>
<g transform="translate(75.875 8.538) rotate(-111.658)">
<ellipse cx="0" cy="0" rx="4.123" ry="3.616" fill="#d9b895" stroke="#5b3a2d" stroke-opacity="0.18" stroke-width="0.45"/>
<ellipse cx="0" cy="0" rx="1.567" ry="1.374" fill="#3b241d" fill-opacity="0.16"/>
</g>
<g transform="translate(45.256 40.855) rotate(-35.615)">
<ellipse cx="0" cy="0" rx="10.831" ry="11.298" fill="#e7652f" stroke="#5b3a2d" stroke-opacity="0.18" stroke-width="0.45"/>
<ellipse cx="0" cy="0" rx="4.116" ry="4.293" fill="#3b241d" fill-opacity="0.16"/>
</g>
<g transform="translate(68.189 71.498) rotate(-39.184)">
<ellipse cx="0" cy="0" rx="6.752" ry="4.408" fill="#e7652f" stroke="#5b3a2d" stroke-opacity="0.18" stroke-width="0.45"/>
<ellipse cx="0" cy="0" rx="2.566" ry="1.675" fill="#3b241d" fill-opacity="0.16"/>
</g>
<g transform="translate(61.422 75.698) rotate(-120.903)">
<ellipse cx="0" cy="0" rx="5.652" ry="5.909" fill="#e7652f" stroke="#5b3a2d" stroke-opacity="0.18" stroke-width="0.45"/>
<ellipse cx="0" cy="0" rx="2.148" ry="2.245" fill="#3b241d" fill-opacity="0.16"/>
</g>
<g transform="translate(44.422 58.448) rotate(-33.358)">
<ellipse cx="0" cy="0" rx="12.795" ry="9.600" fill="#e7652f" stroke="#5b3a2d" stroke-opacity="0.18" stroke-width="0.45"/>
<ellipse cx="0" cy="0" rx="4.862" ry="3.648" fill="#3b241d" fill-opacity="0.16"/>
</g>
<g transform="translate(29.329 71.248) rotate(-36.738)">
<ellipse cx="0" cy="0" rx="7.269" ry="8.750" fill="#e7652f" stroke="#5b3a2d" stroke-opacity="0.18" stroke-width="0.45"/>
<ellipse cx="0" cy="0" rx="2.762" ry="3.325" fill="#3b241d" fill-opacity="0.16"/>
</g>
<g transform="translate(59.621 57.731) rotate(-102.766)">
<ellipse cx="0" cy="0" rx="11.244" ry="8.412" fill="#e7652f" stroke="#5b3a2d" stroke-opacity="0.18" stroke-width="0.45"/>
<ellipse cx="0" cy="0" rx="4.273" ry="3.197" fill="#3b241d" fill-opacity="0.16"/>
</g>
<g transform="translate(92.758 44.841) rotate(-57.723)">
<ellipse cx="0" cy="0" rx="13.835" ry="9.158" fill="#e7652f" stroke="#5b3a2d" stroke-opacity="0.18" stroke-width="0.45"/>
<ellipse cx="0" cy="0" rx="5.257" ry="3.480" fill="#3b241d" fill-opacity="0.16"/>
</g>
<g transform="translate(76.863 62.315) rotate(-86.549)">
<ellipse cx="0" cy="0" rx="12.025" ry="10.934" fill="#e7652f" stroke="#5b3a2d" stroke-opacity="0.18" stroke-width="0.45"/>
<ellipse cx="0" cy="0" rx="4.570" ry="4.155" fill="#3b241d" fill-opacity="0.16"/>
</g>
<g transform="translate(56.096 46.481) rotate(-176.085)">
<ellipse cx="0" cy="0" rx="6.359" ry="4.605" fill="#e7652f" stroke="#5b3a2d" stroke-opacity="0.18" stroke-width="0.45"/>
<ellipse cx="0" cy="0" rx="2.416" ry="1.750" fill="#3b241d" fill-opacity="0.16"/>
</g>
</svg>
