<svg xmlns="http://www.w3.org/2000/svg" viewBox="-4 -4 160.4 160.4" width="1200" height="1200">
<rect x="0" y="0" width="152.4" height="152.4" fill="#d8b692"/>
<g transform="translate(133.986 117.980) rotate(-142.582)">
<ellipse cx="0" cy="0" rx="4.246" ry="5.769" fill="#f7f3e8" stroke="#4d352b" stroke-opacity="0.20" stroke-width="0.45"/>
<ellipse cx="0" cy="0" rx="3.133" ry="4.655" fill="#2f201a" fill-opacity="0.24"/>
</g>
<g transform="translate(13.800 37.237) rotate(-48.572)">
<ellipse cx="0" cy="0" rx="6.076" ry="4.648" fill="#f7f3e8" stroke="#4d352b" stroke-opacity="0.20" stroke-width="0.45"/>
<ellipse cx="0" cy="0" rx="4.875" ry="3.447" fill="#2f201a" fill-opacity="0.24"/>
</g>
<g transform="translate(75.355 146.119) rotate(-7.648)">
<ellipse cx="0" cy="0" rx="4.269" ry="3.805" fill="#d8b692" stroke="#4d352b" stroke-opacity="0.20" stroke-width="0.45"/>
<ellipse cx="0" cy="0" rx="3.043" ry="2.579" fill="#2f201a" fill-opacity="0.24"/>
</g>
<g transform="translate(0.392 93.776) rotate(-99.535)">
<ellipse cx="0" cy="0" rx="3.778" ry="4.478" fill="#d8b692" stroke="#4d352b" stroke-opacity="0.20" stroke-width="0.45"/>
<ellipse cx="0" cy="0" rx="2.491" ry="3.191" fill="#2f201a" fill-opacity="0.24"/>
</g>
<g transform="translate(143.872 72.597) rotate(-169.370)">
<ellipse cx="0" cy="0" rx="3.981" ry="5.998" fill="#d8b692" stroke="#4d352b" stroke-opacity="0.20" stroke-width="0.45"/>
<ellipse cx="0" cy="0" rx="2.892" ry="4.909" fill="#2f201a" fill-opacity="0.24"/>
</g>
<g transform="translate(126.945 73.818) rotate(-71.841)">
<ellipse cx="0" cy="0" rx="5.453" ry="4.185" fill="#d8b692" stroke="#4d352b" stroke-opacity="0.20" stroke-width="0.45"/>
<ellipse cx="0" cy="0" rx="4.233" ry="2.965" fill="#2f201a" fill-opacity="0.24"/>
</g>
<g transform="translate(98.372 3.650) rotate(-82.065)">
<ellipse cx="0" cy="0" rx="3.810" ry="3.646" fill="#d8b692" stroke="#4d352b" stroke-opacity="0.20" stroke-width="0.45"/>
<ellipse cx="0" cy="0" rx="2.486" ry="2.322" fill="#2f201a" fill-opacity="0.24"/>
</g>
<g transform="translate(29.453 18.367) rotate(-81.213)">
<ellipse cx="0" cy="0" rx="5.802" ry="5.150" fill="#f7f3e8" stroke="#4d352b" stroke-opacity="0.20" stroke-width="0.45"/>
<ellipse cx="0" cy="0" rx="4.138" ry="3.486" fill="#2f201a" fill-opacity="0.24"/>
</g>
<g transform="translate(41.477 133.639) rotate(-140.792)">
<ellipse cx="0" cy="0" rx="5.505" ry="3.918" fill="#d8b692" stroke="#4d352b" stroke-opacity="0.20" stroke-width="0.45"/>
<ellipse cx="0" cy="0" rx="4.181" ry="2.593" fill="#2f201a" fill-opacity="0.24"/>
</g>
<g transform="translate(3.028 11.520) rotate(-55.408)">
<ellipse cx="0" cy="0" rx="5.457" ry="4.388" fill="#d8b692" stroke="#4d352b" stroke-opacity="0.20" stroke-width="0.45"/>
<ellipse cx="0" cy="0" rx="4.188" ry="3.118" fill="#2f201a" fill-opacity="0.24"/>
</g>
<g transform="translate(98.988 57.518) rotate(-73.549)">
<ellipse cx="0" cy="0" rx="3.907" ry="4.771" fill="#e8662e" stroke="#4d352b" stroke-opacity="0.20" stroke-width="0.45"/>
<ellipse cx="0" cy="0" rx="2.826" ry="3.690" fill="#2f201a" fill-opacity="0.24"/>
</g>
<g transform="translate(151.160 137.547) rotate(-101.996)">
<ellipse cx="0" cy="0" rx="5.105" ry="3.603" fill="#d8b692" stroke="#4d352b" stroke-opacity="0.20" stroke-width="0.45"/>
<ellipse cx="0" cy="0" rx="3.992" ry="2.490" fill="#2f201a" fill-opacity="0.24"/>
</g>
<g transform="translate(11.196 124.355) rotate(-157.865)">
<ellipse cx="0" cy="0" rx="3.849" ry="4.903" fill="#d8b692" stroke="#4d352b" stroke-opacity="0.20" stroke-width="0.45"/>
<ellipse cx="0" cy="0" rx="2.675" ry="3.729" fill="#2f201a" fill-opacity="0.24"/>
</g>
<g transform="translate(10.793 63.559) rotate(-170.592)">
<ellipse cx="0" cy="0" rx="4.563" ry="3.723" fill="#d8b692" stroke="#4d352b" stroke-opacity="0.20" stroke-width="0.45"/>
<ellipse cx="0" cy="0" rx="3.327" ry="2.486" fill="#2f201a" fill-opacity="0.24"/>
</g>
<g transform="translate(33.947 27.969) rotate(-138.236)">
<ellipse cx="0" cy="0" rx="4.092" ry="3.610" fill="#f7f3e8" stroke="#4d352b" stroke-opacity="0.20" stroke-width="0.45"/>
<ellipse cx="0" cy="0" rx="2.633" ry="2.151" fill="#2f201a" fill-opacity="0.24"/>
</g>
<g transform="translate(25.401 106.490) rotate(-134.000)">
<ellipse cx="0" cy="0" rx="4.628" ry="6.447" fill="#d8b692" stroke="#4d352b" stroke-opacity="0.20" stroke-width="0.45"/>
<ellipse cx="0" cy="0" rx="3.447" ry="5.266" fill="#2f201a" fill-opacity="0.24"/>
</g>
<g transform="translate(49.766 120.297) rotate(-102.312)">
<ellipse cx="0" cy="0" rx="4.581" ry="6.461" fill="#d8b692" stroke="#4d352b" stroke-opacity="0.20" stroke-width="0.45"/>
<ellipse cx="0" cy="0" rx="2.926" ry="4.806" fill="#2f201a" fill-opacity="0.24"/>
</g>
<g transform="translate(17.973 138.080) rotate(-61.841)">
<ellipse cx="0" cy="0" rx="4.790" ry="4.323" fill="#d8b692" stroke="#4d352b" stroke-opacity="0.20" stroke-width="0.45"/>
<ellipse cx="0" cy="0" rx="3.207" ry="2.740" fill="#2f201a" fill-opacity="0.24"/>
</g>
<g transform="translate(126.860 15.612) rotate(-163.097)">
<ellipse cx="0" cy="0" rx="4.910" ry="5.050" fill="#d8b692" stroke="#4d352b" stroke-opacity="0.20" stroke-width="0.45"/>
<ellipse cx="0" cy="0" rx="3.782" ry="3.922" fill="#2f201a" fill-opacity="0.24"/>
</g>
<g transform="translate(144.045 111.937) rotate(-161.205)">
<ellipse cx="0" cy="0" rx="4.825" ry="5.520" fill="#d8b692" stroke="#4d352b" stroke-opacity="0.20" stroke-width="0.45"/>
<ellipse cx="0" cy="0" rx="3.391" ry="4.086" fill="#2f201a" fill-opacity="0.24"/>
</g>
<g transform="translate(64.348 65.804) rotate(-144.078)">
<ellipse cx="0" cy="0" rx="4.365" ry="4.467" fill="#e8662e" stroke="#4d352b" stroke-opacity="0.20" stroke-width="0.45"/>
<ellipse cx="0" cy="0" rx="3.140" ry="3.242" fill="#2f201a" fill-opacity="0.24"/>
</g>
<g transform="translate(115.446 138.518) rotate(-34.891)">
<ellipse cx="0" cy="0" rx="6.371" ry="4.909" fill="#d8b692" stroke="#4d352b" stroke-opacity="0.20" stroke-width="0.45"/>
<ellipse cx="0" cy="0" rx="5.190" ry="3.728" fill="#2f201a" fill-opacity="0.24"/>
</g>
<g transform="translate(126.784 37.739) rotate(-34.567)">
<ellipse cx="0" cy="0" rx="4.031" ry="3.572" fill="#d8b692" stroke="#4d352b" stroke-opacity="0.20" stroke-width="0.45"/>
<ellipse cx="0" cy="0" rx="2.963" ry="2.504" fill="#2f201a" fill-opacity="0.24"/>
</g>
<g transform="translate(138.520 8.412) rotate(-24.159)">
<ellipse cx="0" cy="0" rx="5.447" ry="6.091" fill="#d8b692" stroke="#4d352b" stroke-opacity="0.20" stroke-width="0.45"/>
<ellipse cx="0" cy="0" rx="3.844" ry="4.487" fill="#2f201a" fill-opacity="0.24"/>
</g>
<g transform="translate(76.283 54.587) rotate(-66.611)">
<ellipse cx="0" cy="0" rx="5.293" ry="5.015" fill="#e8662e" stroke="#4d352b" stroke-opacity="0.20" stroke-width="0.45"/>
<ellipse cx="0" cy="0" rx="4.005" ry="3.726" fill="#2f201a" fill-opacity="0.24"/>
</g>
<g transform="translate(115.056 114.386) rotate(-3.950)">
<ellipse cx="0" cy="0" rx="4.705" ry="4.384" fill="#f7f3e8" stroke="#4d352b" stroke-opacity="0.20" stroke-width="0.45"/>
<ellipse cx="0" cy="0" rx="3.299" ry="2.979" fill="#2f201a" fill-opacity="0.24"/>
</g>
<g transform="translate(22.932 30.486) rotate(-104.093)">
<ellipse cx="0" cy="0" rx="6.617" ry="4.488" fill="#f7f3e8" stroke="#4d352b" stroke-opacity="0.20" stroke-width="0.45"/>
<ellipse cx="0" cy="0" rx="4.945" ry="2.817" fill="#2f201a" fill-opacity="0.24"/>
</g>
<g transform="translate(24.823 44.929) rotate(-22.195)">
<ellipse cx="0" cy="0" rx="4.470" ry="5.007" fill="#f7f3e8" stroke="#4d352b" stroke-opacity="0.20" stroke-width="0.45"/>
<ellipse cx="0" cy="0" rx="3.288" ry="3.824" fill="#2f201a" fill-opacity="0.24"/>
</g>
<g transform="translate(67.079 13.322) rotate(-93.664)">
<ellipse cx="0" cy="0" rx="4.851" ry="3.716" fill="#d8b692" stroke="#4d352b" stroke-opacity="0.20" stroke-width="0.45"/>
<ellipse cx="0" cy="0" rx="3.528" ry="2.394" fill="#2f201a" fill-opacity="0.24"/>
</g>
<g transform="translate(78.662 91.269) rotate(-112.879)">
<ellipse cx="0" cy="0" rx="3.993" ry="3.933" fill="#e8662e" stroke="#4d352b" stroke-opacity="0.20" stroke-width="0.45"/>
<ellipse cx="0" cy="0" rx="2.820" ry="2.760" fill="#2f201a" fill-opacity="0.24"/>
</g>
<g transform="translate(140.958 127.272) rotate(-100.226)">
<ellipse cx="0" cy="0" rx="6.438" ry="4.596" fill="#d8b692" stroke="#4d352b" stroke-opacity="0.20" stroke-width="0.45"/>
<ellipse cx="0" cy="0" rx="4.894" ry="3.052" fill="#2f201a" fill-opacity="0.24"/>
</g>
<g transform="translate(116.099 40.911) rotate(-131.222)">
<ellipse cx="0" cy="0" rx="5.524" ry="6.295" fill="#d8b692" stroke="#4d352b" stroke-opacity="0.20" stroke-width="0.45"/>
<ellipse cx="0" cy="0" rx="3.976" ry="4.747" fill="#2f201a" fill-opacity="0.24"/>
</g>
<g transform="translate(31.952 39.138) rotate(-107.694)">
<ellipse cx="0" cy="0" rx="4.155" ry="4.170" fill="#f7f3e8" stroke="#4d352b" stroke-opacity="0.20" stroke-width="0.45"/>
<ellipse cx="0" cy="0" rx="2.936" ry="2.950" fill="#2f201a" fill-opacity="0.24"/>
</g>
<g transform="translate(137.446 96.369) rotate(-29.058)">
<ellipse cx="0" cy="0" rx="5.904" ry="4.380" fill="#d8b692" stroke="#4d352b" stroke-opacity="0.20" stroke-width="0.45"/>
<ellipse cx="0" cy="0" rx="4.263" ry="2.739" fill="#2f201a" fill-opacity="0.24"/>
</g>
<g transform="translate(77.581 114.441) rotate(-21.730)">
<ellipse cx="0" cy="0" rx="6.558" ry="4.483" fill="#d8b692" stroke="#4d352b" stroke-opacity="0.20" stroke-width="0.45"/>
<ellipse cx="0" cy="0" rx="5.284" ry="3.208" fill="#2f201a" fill-opacity="0.24"/>
</g>
<g transform="translate(2.437 105.649) rotate(-131.733)">
<ellipse cx="0" cy="0" rx="7.746" ry="6.074" fill="#d8b692" stroke="#4d352b" stroke-opacity="0.20" stroke-width="0.45"/>
<ellipse cx="0" cy="0" rx="6.261" ry="4.589" fill="#2f201a" fill-opacity="0.24"/>
</g>
<g transform="translate(23.795 67.446) rotate(-110.941)">
<ellipse cx="0" cy="0" rx="4.573" ry="6.770" fill="#d8b692" stroke="#4d352b" stroke-opacity="0.20" stroke-width="0.45"/>
<ellipse cx="0" cy="0" rx="3.026" ry="5.222" fill="#2f201a" fill-opacity="0.24"/>
</g>
<g transform="translate(40.654 7.256) rotate(-152.989)">
<ellipse cx="0" cy="0" rx="4.682" ry="3.664" fill="#d8b692" stroke="#4d352b" stroke-opacity="0.20" stroke-width="0.45"/>
<ellipse cx="0" cy="0" rx="3.140" ry="2.121" fill="#2f201a" fill-opacity="0.24"/>
</g>
<g transform="translate(111.222 22.092) rotate(-29.503)">
<ellipse cx="0" cy="0" rx="4.173" ry="3.977" fill="#d8b692" stroke="#4d352b" stroke-opacity="0.20" stroke-width="0.45"/>
<ellipse cx="0" cy="0" rx="3.016" ry="2.820" fill="#2f201a" fill-opacity="0.24"/>
</g>
<g transform="translate(130.745 141.883) rotate(-149.751)">
<ellipse cx="0" cy="0" rx="4.159" ry="4.922" fill="#d8b692" stroke="#4d352b" stroke-opacity="0.20" stroke-width="0.45"/>
<ellipse cx="0" cy="0" rx="3.010" ry="3.773" fill="#2f201a" fill-opacity="0.24"/>
</g>
<g transform="translate(104.828 36.802) rotate(-50.650)">
<ellipse cx="0" cy="0" rx="3.796" ry="4.533" fill="#d8b692" stroke="#4d352b" stroke-opacity="0.20" stroke-width="0.45"/>
<ellipse cx="0" cy="0" rx="2.655" ry="3.391" fill="#2f201a" fill-opacity="0.24"/>
</g>
<g transform="translate(101.745 112.821) rotate(-84.701)">
<ellipse cx="0" cy="0" rx="6.329" ry="7.616" fill="#d8b692" stroke="#4d352b" stroke-opacity="0.20" stroke-width="0.45"/>
<ellipse cx="0" cy="0" rx="5.036" ry="6.322" fill="#2f201a" fill-opacity="0.24"/>
</g>
<g transform="translate(130.906 46.725) rotate(-111.775)">
<ellipse cx="0" cy="0" rx="5.617" ry="4.826" fill="#d8b692" stroke="#4d352b" stroke-opacity="0.20" stroke-width="0.45"/>
<ellipse cx="0" cy="0" rx="4.466" ry="3.676" fill="#2f201a" fill-opacity="0.24"/>
</g>
<g transform="translate(55.349 63.735) rotate(-132.881)">
<ellipse cx="0" cy="0" rx="4.072" ry="4.117" fill="#e8662e" stroke="#4d352b" stroke-opacity="0.20" stroke-width="0.45"/>
<ellipse cx="0" cy="0" rx="2.916" ry="2.961" fill="#2f201a" fill-opacity="0.24"/>
</g>
<g transform="translate(68.712 137.830) rotate(-103.837)">
<ellipse cx="0" cy="0" rx="5.982" ry="3.686" fill="#d8b692" stroke="#4d352b" stroke-opacity="0.20" stroke-width="0.45"/>
<ellipse cx="0" cy="0" rx="4.858" ry="2.562" fill="#2f201a" fill-opacity="0.24"/>
</g>
<g transform="translate(106.742 150.276) rotate(-35.585)">
<ellipse cx="0" cy="0" rx="5.391" ry="5.698" fill="#d8b692" stroke="#4d352b" stroke-opacity="0.20" stroke-width="0.45"/>
<ellipse cx="0" cy="0" rx="4.055" ry="4.363" fill="#2f201a" fill-opacity="0.24"/>
</g>
<g transform="translate(31.688 74.762) rotate(-72.137)">
<ellipse cx="0" cy="0" rx="5.914" ry="4.734" fill="#d8b692" stroke="#4d352b" stroke-opacity="0.20" stroke-width="0.45"/>
<ellipse cx="0" cy="0" rx="4.446" ry="3.267" fill="#2f201a" fill-opacity="0.24"/>
</g>
<g transform="translate(44.563 43.922) rotate(-21.177)">
<ellipse cx="0" cy="0" rx="5.521" ry="4.362" fill="#d8b692" stroke="#4d352b" stroke-opacity="0.20" stroke-width="0.45"/>
<ellipse cx="0" cy="0" rx="4.409" ry="3.250" fill="#2f201a" fill-opacity="0.24"/>
</g>
<g transform="translate(123.581 116.329) rotate(-62.318)">
<ellipse cx="0" cy="0" rx="3.900" ry="3.563" fill="#f7f3e8" stroke="#4d352b" stroke-opacity="0.20" stroke-width="0.45"/>
<ellipse cx="0" cy="0" rx="2.831" ry="2.494" fill="#2f201a" fill-opacity="0.24"/>
</g>
<g transform="translate(45.911 55.170) rotate(-153.088)">
<ellipse cx="0" cy="0" rx="5.382" ry="3.619" fill="#d8b692" stroke="#4d352b" stroke-opacity="0.20" stroke-width="0.45"/>
<ellipse cx="0" cy="0" rx="3.836" ry="2.073" fill="#2f201a" fill-opacity="0.24"/>
</g>
<g transform="translate(16.997 151.509) rotate(-174.443)">
<ellipse cx="0" cy="0" rx="4.690" ry="6.388" fill="#d8b692" stroke="#4d352b" stroke-opacity="0.20" stroke-width="0.45"/>
<ellipse cx="0" cy="0" rx="3.026" ry="4.724" fill="#2f201a" fill-opacity="0.24"/>
</g>
<g transform="translate(121.622 64.190) rotate(-62.388)">
<ellipse cx="0" cy="0" rx="4.825" ry="4.099" fill="#d8b692" stroke="#4d352b" stroke-opacity="0.20" stroke-width="0.45"/>
<ellipse cx="0" cy="0" rx="3.292" ry="2.566" fill="#2f201a" fill-opacity="0.24"/>
</g>
<g transform="translate(92.362 104.365) rotate(-38.458)">
<ellipse cx="0" cy="0" rx="4.189" ry="3.903" fill="#e8662e" stroke="#4d352b" stroke-opacity="0.20" stroke-width="0.45"/>
<ellipse cx="0" cy="0" rx="2.721" ry="2.435" fill="#2f201a" fill-opacity="0.24"/>
</g>
<g transform="translate(138.908 20.217) rotate(-171.518)">
<ellipse cx="0" cy="0" rx="6.212" ry="4.088" fill="#d8b692" stroke="#4d352b" stroke-opacity="0.20" stroke-width="0.45"/>
<ellipse cx="0" cy="0" rx="4.724" ry="2.599" fill="#2f201a" fill-opacity="0.24"/>
</g>
<g transform="translate(83.145 46.153) rotate(-143.185)">
<ellipse cx="0" cy="0" rx="7.243" ry="4.995" fill="#e8662e" stroke="#4d352b" stroke-opacity="0.20" stroke-width="0.45"/>
<ellipse cx="0" cy="0" rx="6.129" ry="3.880" fill="#2f201a" fill-opacity="0.24"/>
</g>
<g transform="translate(24.914 143.361) rotate(-65.688)">
<ellipse cx="0" cy="0" rx="4.319" ry="3.564" fill="#d8b692" stroke="#4d352b" stroke-opacity="0.20" stroke-width="0.45"/>
<ellipse cx="0" cy="0" rx="3.187" ry="2.432" fill="#2f201a" fill-opacity="0.24"/>
</g>
<g transform="translate(44.610 31.200) rotate(-81.822)">
<ellipse cx="0" cy="0" rx="6.451" ry="5.800" fill="#d8b692" stroke="#4d352b" stroke-opacity="0.20" stroke-width="0.45"/>
<ellipse cx="0" cy="0" rx="4.821" ry="4.169" fill="#2f201a" fill-opacity="0.24"/>
</g>
<g transform="translate(125.562 125.275) rotate(-44.410)">
<ellipse cx="0" cy="0" rx="4.797" ry="4.430" fill="#f7f3e8" stroke="#4d352b" stroke-opacity="0.20" stroke-width="0.45"/>
<ellipse cx="0" cy="0" rx="3.439" ry="3.072" fill="#2f201a" fill-opacity="0.24"/>
</g>
<g transform="translate(35.981 143.411) rotate(-131.644)">
<ellipse cx="0" cy="0" rx="4.482" ry="5.656" fill="#d8b692" stroke="#4d352b" stroke-opacity="0.20" stroke-width="0.45"/>
<ellipse cx="0" cy="0" rx="3.098" ry="4.272" fill="#2f201a" fill-opacity="0.24"/>
</g>
<g transform="translate(68.858 37.628) rotate(-52.251)">
<ellipse cx="0" cy="0" rx="5.590" ry="4.634" fill="#d8b692" stroke="#4d352b" stroke-opacity="0.20" stroke-width="0.45"/>
<ellipse cx="0" cy="0" rx="4.224" ry="3.268" fill="#2f201a" fill-opacity="0.24"/>
</g>
<g transform="translate(98.019 97.412) rotate(-125.212)">
<ellipse cx="0" cy="0" rx="4.159" ry="4.276" fill="#e8662e" stroke="#4d352b" stroke-opacity="0.20" stroke-width="0.45"/>
<ellipse cx="0" cy="0" rx="2.756" ry="2.874" fill="#2f201a" fill-opacity="0.24"/>
</g>
<g transform="translate(119.294 86.038) rotate(-34.920)">
<ellipse cx="0" cy="0" rx="4.376" ry="3.628" fill="#d8b692" stroke="#4d352b" stroke-opacity="0.20" stroke-width="0.45"/>
<ellipse cx="0" cy="0" rx="3.230" ry="2.483" fill="#2f201a" fill-opacity="0.24"/>
</g>
<g transform="translate(100.264 46.285) rotate(-132.495)">
<ellipse cx="0" cy="0" rx="6.891" ry="6.088" fill="#d8b692" stroke="#4d352b" stroke-opacity="0.20" stroke-width="0.45"/>
<ellipse cx="0" cy="0" rx="5.763" ry="4.960" fill="#2f201a" fill-opacity="0.24"/>
</g>
<g transform="translate(79.911 124.419) rotate(-167.840)">
<ellipse cx="0" cy="0" rx="4.066" ry="3.952" fill="#d8b692" stroke="#4d352b" stroke-opacity="0.20" stroke-width="0.45"/>
<ellipse cx="0" cy="0" rx="2.941" ry="2.828" fill="#2f201a" fill-opacity="0.24"/>
</g>
<g transform="translate(111.906 11.492) rotate(-91.297)">
<ellipse cx="0" cy="0" rx="5.527" ry="5.333" fill="#d8b692" stroke="#4d352b" stroke-opacity="0.20" stroke-width="0.45"/>
<ellipse cx="0" cy="0" rx="4.466" ry="4.272" fill="#2f201a" fill-opacity="0.24"/>
</g>
<g transform="translate(141.360 142.776) rotate(-164.710)">
<ellipse cx="0" cy="0" rx="5.265" ry="6.692" fill="#d8b692" stroke="#4d352b" stroke-opacity="0.20" stroke-width="0.45"/>
<ellipse cx="0" cy="0" rx="4.072" ry="5.499" fill="#2f201a" fill-opacity="0.24"/>
</g>
<g transform="translate(57.893 25.837) rotate(-83.176)">
<ellipse cx="0" cy="0" rx="4.873" ry="5.571" fill="#d8b692" stroke="#4d352b" stroke-opacity="0.20" stroke-width="0.45"/>
<ellipse cx="0" cy="0" rx="3.688" ry="4.385" fill="#2f201a" fill-opacity="0.24"/>
</g>
<g transform="translate(29.980 132.738) rotate(-30.887)">
<ellipse cx="0" cy="0" rx="5.331" ry="3.597" fill="#d8b692" stroke="#4d352b" stroke-opacity="0.20" stroke-width="0.45"/>
<ellipse cx="0" cy="0" rx="3.925" ry="2.191" fill="#2f201a" fill-opacity="0.24"/>
</g>
<g transform="translate(14.608 104.778) rotate(-34.632)">
<ellipse cx="0" cy="0" rx="4.710" ry="3.824" fill="#d8b692" stroke="#4d352b" stroke-opacity="0.20" stroke-width="0.45"/>
<ellipse cx="0" cy="0" rx="3.244" ry="2.358" fill="#2f201a" fill-opacity="0.24"/>
</g>
<g transform="translate(145.547 88.546) rotate(-73.286)">
<ellipse cx="0" cy="0" rx="4.343" ry="3.724" fill="#d8b692" stroke="#4d352b" stroke-opacity="0.20" stroke-width="0.45"/>
<ellipse cx="0" cy="0" rx="3.223" ry="2.605" fill="#2f201a" fill-opacity="0.24"/>
</g>
<g transform="translate(66.175 151.582) rotate(-32.434)">
<ellipse cx="0" cy="0" rx="5.478" ry="6.637" fill="#d8b692" stroke="#4d352b" stroke-opacity="0.20" stroke-width="0.45"/>
<ellipse cx="0" cy="0" rx="4.020" ry="5.179" fill="#2f201a" fill-opacity="0.24"/>
</g>
<g transform="translate(57.506 14.109) rotate(-76.148)">
<ellipse cx="0" cy="0" rx="5.466" ry="5.266" fill="#d8b692" stroke="#4d352b" stroke-opacity="0.20" stroke-width="0.45"/>
<ellipse cx="0" cy="0" rx="4.077" ry="3.877" fill="#2f201a" fill-opacity="0.24"/>
</g>
<g transform="translate(16.355 78.072) rotate(-101.272)">
<ellipse cx="0" cy="0" rx="5.751" ry="4.427" fill="#d8b692" stroke="#4d352b" stroke-opacity="0.20" stroke-width="0.45"/>
<ellipse cx="0" cy="0" rx="4.415" ry="3.091" fill="#2f201a" fill-opacity="0.24"/>
</g>
<g transform="translate(89.333 114.282) rotate(-113.480)">
<ellipse cx="0" cy="0" rx="5.049" ry="3.651" fill="#d8b692" stroke="#4d352b" stroke-opacity="0.20" stroke-width="0.45"/>
<ellipse cx="0" cy="0" rx="3.680" ry="2.281" fill="#2f201a" fill-opacity="0.24"/>
</g>
<g transform="translate(102.282 26.438) rotate(-134.782)">
<ellipse cx="0" cy="0" rx="6.552" ry="4.663" fill="#d8b692" stroke="#4d352b" stroke-opacity="0.20" stroke-width="0.45"/>
<ellipse cx="0" cy="0" rx="5.356" ry="3.467" fill="#2f201a" fill-opacity="0.24"/>
</g>
<g transform="translate(31.661 58.023) rotate(-124.761)">
<ellipse cx="0" cy="0" rx="5.620" ry="4.925" fill="#d8b692" stroke="#4d352b" stroke-opacity="0.20" stroke-width="0.45"/>
<ellipse cx="0" cy="0" rx="4.479" ry="3.784" fill="#2f201a" fill-opacity="0.24"/>
</g>
<g transform="translate(116.562 53.978) rotate(-103.897)">
<ellipse cx="0" cy="0" rx="5.971" ry="6.118" fill="#d8b692" stroke="#4d352b" stroke-opacity="0.20" stroke-width="0.45"/>
<ellipse cx="0" cy="0" rx="4.853" ry="5.000" fill="#2f201a" fill-opacity="0.24"/>
</g>
<g transform="translate(36.687 94.069) rotate(-113.213)">
<ellipse cx="0" cy="0" rx="5.205" ry="4.184" fill="#e8662e" stroke="#4d352b" stroke-opacity="0.20" stroke-width="0.45"/>
<ellipse cx="0" cy="0" rx="3.951" ry="2.929" fill="#2f201a" fill-opacity="0.24"/>
</g>
<g transform="translate(133.482 82.979) rotate(-28.031)">
<ellipse cx="0" cy="0" rx="5.884" ry="4.681" fill="#d8b692" stroke="#4d352b" stroke-opacity="0.20" stroke-width="0.45"/>
<ellipse cx="0" cy="0" rx="4.398" ry="3.196" fill="#2f201a" fill-opacity="0.24"/>
</g>
<g transform="translate(79.232 135.273) rotate(-39.509)">
<ellipse cx="0" cy="0" rx="4.551" ry="6.557" fill="#d8b692" stroke="#4d352b" stroke-opacity="0.20" stroke-width="0.45"/>
<ellipse cx="0" cy="0" rx="3.373" ry="5.378" fill="#2f201a" fill-opacity="0.24"/>
</g>
<g transform="translate(13.574 113.234) rotate(-157.191)">
<ellipse cx="0" cy="0" rx="3.772" ry="3.647" fill="#d8b692" stroke="#4d352b" stroke-opacity="0.20" stroke-width="0.45"/>
<ellipse cx="0" cy="0" rx="2.339" ry="2.213" fill="#2f201a" fill-opacity="0.24"/>
</g>
<g transform="translate(25.028 8.614) rotate(-130.519)">
<ellipse cx="0" cy="0" rx="4.471" ry="3.718" fill="#d8b692" stroke="#4d352b" stroke-opacity="0.20" stroke-width="0.45"/>
<ellipse cx="0" cy="0" rx="2.999" ry="2.245" fill="#2f201a" fill-opacity="0.24"/>
</g>
<g transform="translate(86.749 57.259) rotate(-24.060)">
<ellipse cx="0" cy="0" rx="4.005" ry="3.696" fill="#e8662e" stroke="#4d352b" stroke-opacity="0.20" stroke-width="0.45"/>
<ellipse cx="0" cy="0" rx="2.509" ry="2.200" fill="#2f201a" fill-opacity="0.24"/>
</g>
<g transform="translate(90.710 125.976) rotate(-115.475)">
<ellipse cx="0" cy="0" rx="5.347" ry="6.747" fill="#d8b692" stroke="#4d352b" stroke-opacity="0.20" stroke-width="0.45"/>
<ellipse cx="0" cy="0" rx="3.838" ry="5.238" fill="#2f201a" fill-opacity="0.24"/>
</g>
<g transform="translate(95.930 146.663) rotate(-39.294)">
<ellipse cx="0" cy="0" rx="4.734" ry="4.236" fill="#d8b692" stroke="#4d352b" stroke-opacity="0.20" stroke-width="0.45"/>
<ellipse cx="0" cy="0" rx="3.467" ry="2.969" fill="#2f201a" fill-opacity="0.24"/>
</g>
<g transform="translate(108.327 64.970) rotate(-124.700)">
<ellipse cx="0" cy="0" rx="5.850" ry="5.437" fill="#d8b692" stroke="#4d352b" stroke-opacity="0.20" stroke-width="0.45"/>
<ellipse cx="0" cy="0" rx="4.548" ry="4.136" fill="#2f201a" fill-opacity="0.24"/>
</g>
<g transform="translate(66.361 109.615) rotate(-14.846)">
<ellipse cx="0" cy="0" rx="3.932" ry="4.733" fill="#d8b692" stroke="#4d352b" stroke-opacity="0.20" stroke-width="0.45"/>
<ellipse cx="0" cy="0" rx="2.549" ry="3.351" fill="#2f201a" fill-opacity="0.24"/>
</g>
<g transform="translate(82.981 35.860) rotate(-98.645)">
<ellipse cx="0" cy="0" rx="3.815" ry="3.903" fill="#e8662e" stroke="#4d352b" stroke-opacity="0.20" stroke-width="0.45"/>
<ellipse cx="0" cy="0" rx="2.571" ry="2.659" fill="#2f201a" fill-opacity="0.24"/>
</g>
<g transform="translate(95.046 136.977) rotate(-153.710)">
<ellipse cx="0" cy="0" rx="4.954" ry="4.573" fill="#d8b692" stroke="#4d352b" stroke-opacity="0.20" stroke-width="0.45"/>
<ellipse cx="0" cy="0" rx="3.681" ry="3.300" fill="#2f201a" fill-opacity="0.24"/>
</g>
<g transform="translate(124.203 96.426) rotate(-52.527)">
<ellipse cx="0" cy="0" rx="6.171" ry="4.857" fill="#d8b692" stroke="#4d352b" stroke-opacity="0.20" stroke-width="0.45"/>
<ellipse cx="0" cy="0" rx="5.014" ry="3.700" fill="#2f201a" fill-opacity="0.24"/>
</g>
<g transform="translate(114.993 76.129) rotate(-35.852)">
<ellipse cx="0" cy="0" rx="6.425" ry="5.919" fill="#d8b692" stroke="#4d352b" stroke-opacity="0.20" stroke-width="0.45"/>
<ellipse cx="0" cy="0" rx="4.912" ry="4.406" fill="#2f201a" fill-opacity="0.24"/>
</g>
<g transform="translate(134.023 63.435) rotate(-84.574)">
<ellipse cx="0" cy="0" rx="6.467" ry="5.223" fill="#d8b692" stroke="#4d352b" stroke-opacity="0.20" stroke-width="0.45"/>
<ellipse cx="0" cy="0" rx="5.041" ry="3.797" fill="#2f201a" fill-opacity="0.24"/>
</g>
<g transform="translate(59.168 102.295) rotate(-164.046)">
<ellipse cx="0" cy="0" rx="3.848" ry="4.032" fill="#e8662e" stroke="#4d352b" stroke-opacity="0.20" stroke-width="0.45"/>
<ellipse cx="0" cy="0" rx="2.670" ry="2.854" fill="#2f201a" fill-opacity="0.24"/>
</g>
<g transform="translate(94.310 13.242) rotate(-160.835)">
<ellipse cx="0" cy="0" rx="5.996" ry="6.021" fill="#d8b692" stroke="#4d352b" stroke-opacity="0.20" stroke-width="0.45"/>
<ellipse cx="0" cy="0" rx="4.339" ry="4.364" fill="#2f201a" fill-opacity="0.24"/>
</g>
<g transform="translate(75.213 27.806) rotate(-10.922)">
<ellipse cx="0" cy="0" rx="5.504" ry="4.769" fill="#d8b692" stroke="#4d352b" stroke-opacity="0.20" stroke-width="0.45"/>
<ellipse cx="0" cy="0" rx="4.024" ry="3.289" fill="#2f201a" fill-opacity="0.24"/>
</g>
<g transform="translate(120.915 26.839) rotate(-108.637)">
<ellipse cx="0" cy="0" rx="5.471" ry="6.797" fill="#d8b692" stroke="#4d352b" stroke-opacity="0.20" stroke-width="0.45"/>
<ellipse cx="0" cy="0" rx="4.280" ry="5.606" fill="#2f201a" fill-opacity="0.24"/>
</g>
<g transform="translate(130.935 106.866) rotate(-153.032)">
<ellipse cx="0" cy="0" rx="5.788" ry="5.919" fill="#f7f3e8" stroke="#4d352b" stroke-opacity="0.20" stroke-width="0.45"/>
<ellipse cx="0" cy="0" rx="4.497" ry="4.628" fill="#2f201a" fill-opacity="0.24"/>
</g>
<g transform="translate(0.702 40.328) rotate(-135.107)">
<ellipse cx="0" cy="0" rx="6.205" ry="6.789" fill="#d8b692" stroke="#4d352b" stroke-opacity="0.20" stroke-width="0.45"/>
<ellipse cx="0" cy="0" rx="4.829" ry="5.414" fill="#2f201a" fill-opacity="0.24"/>
</g>
<g transform="translate(143.234 60.386) rotate(-93.705)">
<ellipse cx="0" cy="0" rx="4.854" ry="3.595" fill="#d8b692" stroke="#4d352b" stroke-opacity="0.20" stroke-width="0.45"/>
<ellipse cx="0" cy="0" rx="3.517" ry="2.258" fill="#2f201a" fill-opacity="0.24"/>
</g>
<g transform="translate(16.642 17.184) rotate(-0.164)">
<ellipse cx="0" cy="0" rx="5.977" ry="6.076" fill="#d8b692" stroke="#4d352b" stroke-opacity="0.20" stroke-width="0.45"/>
<ellipse cx="0" cy="0" rx="4.465" ry="4.564" fill="#2f201a" fill-opacity="0.24"/>
</g>
<g transform="translate(106.199 89.304) rotate(-67.858)">
<ellipse cx="0" cy="0" rx="5.411" ry="7.102" fill="#d8b692" stroke="#4d352b" stroke-opacity="0.20" stroke-width="0.45"/>
<ellipse cx="0" cy="0" rx="3.978" ry="5.669" fill="#2f201a" fill-opacity="0.24"/>
</g>
<g transform="translate(77.929 14.752) rotate(-163.989)">
<ellipse cx="0" cy="0" rx="5.681" ry="4.907" fill="#d8b692" stroke="#4d352b" stroke-opacity="0.20" stroke-width="0.45"/>
<ellipse cx="0" cy="0" rx="4.522" ry="3.749" fill="#2f201a" fill-opacity="0.24"/>
</g>
<g transform="translate(76.210 3.339) rotate(-1.328)">
<ellipse cx="0" cy="0" rx="3.777" ry="4.342" fill="#d8b692" stroke="#4d352b" stroke-opacity="0.20" stroke-width="0.45"/>
<ellipse cx="0" cy="0" rx="2.469" ry="3.034" fill="#2f201a" fill-opacity="0.24"/>
</g>
<g transform="translate(141.258 48.193) rotate(-113.769)">
<ellipse cx="0" cy="0" rx="5.589" ry="4.364" fill="#d8b692" stroke="#4d352b" stroke-opacity="0.20" stroke-width="0.45"/>
<ellipse cx="0" cy="0" rx="4.423" ry="3.197" fill="#2f201a" fill-opacity="0.24"/>
</g>
<g transform="translate(141.648 31.327) rotate(-167.247)">
<ellipse cx="0" cy="0" rx="6.967" ry="4.883" fill="#d8b692" stroke="#4d352b" stroke-opacity="0.20" stroke-width="0.45"/>
<ellipse cx="0" cy="0" rx="5.415" ry="3.330" fill="#2f201a" fill-opacity="0.24"/>
</g>
<g transform="translate(48.055 151.020) rotate(-57.308)">
<ellipse cx="0" cy="0" rx="6.738" ry="5.715" fill="#d8b692" stroke="#4d352b" stroke-opacity="0.20" stroke-width="0.45"/>
<ellipse cx="0" cy="0" rx="5.499" ry="4.476" fill="#2f201a" fill-opacity="0.24"/>
</g>
<g transform="translate(21.482 119.965) rotate(-11.270)">
<ellipse cx="0" cy="0" rx="6.032" ry="5.480" fill="#d8b692" stroke="#4d352b" stroke-opacity="0.20" stroke-width="0.45"/>
<ellipse cx="0" cy="0" rx="4.890" ry="4.339" fill="#2f201a" fill-opacity="0.24"/>
</g>
<g transform="translate(56.883 111.484) rotate(-135.809)">
<ellipse cx="0" cy="0" rx="5.360" ry="4.677" fill="#e8662e" stroke="#4d352b" stroke-opacity="0.20" stroke-width="0.45"/>
<ellipse cx="0" cy="0" rx="4.216" ry="3.532" fill="#2f201a" fill-opacity="0.24"/>
</g>
<g transform="translate(105.694 136.711) rotate(-171.553)">
<ellipse cx="0" cy="0" rx="3.831" ry="3.574" fill="#d8b692" stroke="#4d352b" stroke-opacity="0.20" stroke-width="0.45"/>
<ellipse cx="0" cy="0" rx="2.371" ry="2.114" fill="#2f201a" fill-opacity="0.24"/>
</g>
<g transform="translate(13.697 91.411) rotate(-84.206)">
<ellipse cx="0" cy="0" rx="5.096" ry="5.268" fill="#d8b692" stroke="#4d352b" stroke-opacity="0.20" stroke-width="0.45"/>
<ellipse cx="0" cy="0" rx="4.017" ry="4.190" fill="#2f201a" fill-opacity="0.24"/>
</g>
<g transform="translate(40.173 105.441) rotate(-58.087)">
<ellipse cx="0" cy="0" rx="6.233" ry="5.432" fill="#e8662e" stroke="#4d352b" stroke-opacity="0.20" stroke-width="0.45"/>
<ellipse cx="0" cy="0" rx="5.049" ry="4.248" fill="#2f201a" fill-opacity="0.24"/>
</g>
<g transform="translate(85.279 22.351) rotate(-43.944)">
<ellipse cx="0" cy="0" rx="4.071" ry="3.805" fill="#d8b692" stroke="#4d352b" stroke-opacity="0.20" stroke-width="0.45"/>
<ellipse cx="0" cy="0" rx="2.916" ry="2.650" fill="#2f201a" fill-opacity="0.24"/>
</g>
<g transform="translate(55.017 137.677) rotate(-11.726)">
<ellipse cx="0" cy="0" rx="5.483" ry="5.003" fill="#d8b692" stroke="#4d352b" stroke-opacity="0.20" stroke-width="0.45"/>
<ellipse cx="0" cy="0" rx="3.793" ry="3.314" fill="#2f201a" fill-opacity="0.24"/>
</g>
<g transform="translate(1.971 84.105) rotate(-66.928)">
<ellipse cx="0" cy="0" rx="4.476" ry="5.981" fill="#d8b692" stroke="#4d352b" stroke-opacity="0.20" stroke-width="0.45"/>
<ellipse cx="0" cy="0" rx="3.185" ry="4.689" fill="#2f201a" fill-opacity="0.24"/>
</g>
<g transform="translate(91.012 81.906) rotate(-68.431)">
<ellipse cx="0" cy="0" rx="6.335" ry="7.695" fill="#e8662e" stroke="#4d352b" stroke-opacity="0.20" stroke-width="0.45"/>
<ellipse cx="0" cy="0" rx="5.151" ry="6.511" fill="#2f201a" fill-opacity="0.24"/>
</g>
<g transform="translate(92.617 68.302) rotate(-114.071)">
<ellipse cx="0" cy="0" rx="6.521" ry="5.783" fill="#e8662e" stroke="#4d352b" stroke-opacity="0.20" stroke-width="0.45"/>
<ellipse cx="0" cy="0" rx="5.148" ry="4.410" fill="#2f201a" fill-opacity="0.24"/>
</g>
<g transform="translate(86.425 152.939) rotate(-155.639)">
<ellipse cx="0" cy="0" rx="5.562" ry="5.647" fill="#d8b692" stroke="#4d352b" stroke-opacity="0.20" stroke-width="0.45"/>
<ellipse cx="0" cy="0" rx="4.021" ry="4.106" fill="#2f201a" fill-opacity="0.24"/>
</g>
<g transform="translate(30.622 153.051) rotate(-109.246)">
<ellipse cx="0" cy="0" rx="4.683" ry="5.217" fill="#d8b692" stroke="#4d352b" stroke-opacity="0.20" stroke-width="0.45"/>
<ellipse cx="0" cy="0" rx="3.043" ry="3.578" fill="#2f201a" fill-opacity="0.24"/>
</g>
<g transform="translate(2.633 149.563) rotate(-88.919)">
<ellipse cx="0" cy="0" rx="5.817" ry="6.439" fill="#d8b692" stroke="#4d352b" stroke-opacity="0.20" stroke-width="0.45"/>
<ellipse cx="0" cy="0" rx="4.281" ry="4.904" fill="#2f201a" fill-opacity="0.24"/>
</g>
<g transform="translate(74.633 102.942) rotate(-106.057)">
<ellipse cx="0" cy="0" rx="5.465" ry="6.125" fill="#e8662e" stroke="#4d352b" stroke-opacity="0.20" stroke-width="0.45"/>
<ellipse cx="0" cy="0" rx="4.186" ry="4.847" fill="#2f201a" fill-opacity="0.24"/>
</g>
<g transform="translate(66.483 92.257) rotate(-156.873)">
<ellipse cx="0" cy="0" rx="5.806" ry="6.640" fill="#e8662e" stroke="#4d352b" stroke-opacity="0.20" stroke-width="0.45"/>
<ellipse cx="0" cy="0" rx="4.151" ry="4.985" fill="#2f201a" fill-opacity="0.24"/>
</g>
<g transform="translate(24.986 95.448) rotate(-26.256)">
<ellipse cx="0" cy="0" rx="3.935" ry="4.042" fill="#d8b692" stroke="#4d352b" stroke-opacity="0.20" stroke-width="0.45"/>
<ellipse cx="0" cy="0" rx="2.484" ry="2.592" fill="#2f201a" fill-opacity="0.24"/>
</g>
<g transform="translate(57.858 86.389) rotate(-150.647)">
<ellipse cx="0" cy="0" rx="3.951" ry="5.101" fill="#e8662e" stroke="#4d352b" stroke-opacity="0.20" stroke-width="0.45"/>
<ellipse cx="0" cy="0" rx="2.548" ry="3.698" fill="#2f201a" fill-opacity="0.24"/>
</g>
<g transform="translate(15.925 54.611) rotate(-129.161)">
<ellipse cx="0" cy="0" rx="5.107" ry="5.168" fill="#d8b692" stroke="#4d352b" stroke-opacity="0.20" stroke-width="0.45"/>
<ellipse cx="0" cy="0" rx="3.783" ry="3.844" fill="#2f201a" fill-opacity="0.24"/>
</g>
<g transform="translate(5.404 72.148) rotate(-91.419)">
<ellipse cx="0" cy="0" rx="5.363" ry="6.832" fill="#d8b692" stroke="#4d352b" stroke-opacity="0.20" stroke-width="0.45"/>
<ellipse cx="0" cy="0" rx="3.762" ry="5.232" fill="#2f201a" fill-opacity="0.24"/>
</g>
<g transform="translate(40.565 17.300) rotate(-100.908)">
<ellipse cx="0" cy="0" rx="5.392" ry="5.361" fill="#d8b692" stroke="#4d352b" stroke-opacity="0.20" stroke-width="0.45"/>
<ellipse cx="0" cy="0" rx="3.737" ry="3.707" fill="#2f201a" fill-opacity="0.24"/>
</g>
<g transform="translate(2.584 24.934) rotate(-166.582)">
<ellipse cx="0" cy="0" rx="6.063" ry="5.946" fill="#d8b692" stroke="#4d352b" stroke-opacity="0.20" stroke-width="0.45"/>
<ellipse cx="0" cy="0" rx="4.584" ry="4.467" fill="#2f201a" fill-opacity="0.24"/>
</g>
<g transform="translate(36.235 121.773) rotate(-9.004)">
<ellipse cx="0" cy="0" rx="6.084" ry="6.164" fill="#d8b692" stroke="#4d352b" stroke-opacity="0.20" stroke-width="0.45"/>
<ellipse cx="0" cy="0" rx="4.607" ry="4.687" fill="#2f201a" fill-opacity="0.24"/>
</g>
<g transform="translate(26.779 85.509) rotate(-36.144)">
<ellipse cx="0" cy="0" rx="5.381" ry="4.306" fill="#d8b692" stroke="#4d352b" stroke-opacity="0.20" stroke-width="0.45"/>
<ellipse cx="0" cy="0" rx="4.107" ry="3.032" fill="#2f201a" fill-opacity="0.24"/>
</g>
<g transform="translate(123.524 150.848) rotate(-112.377)">
<ellipse cx="0" cy="0" rx="5.008" ry="4.896" fill="#d8b692" stroke="#4d352b" stroke-opacity="0.20" stroke-width="0.45"/>
<ellipse cx="0" cy="0" rx="3.568" ry="3.455" fill="#2f201a" fill-opacity="0.24"/>
</g>
<g transform="translate(0.979 120.332) rotate(-100.967)">
<ellipse cx="0" cy="0" rx="5.492" ry="5.855" fill="#d8b692" stroke="#4d352b" stroke-opacity="0.20" stroke-width="0.45"/>
<ellipse cx="0" cy="0" rx="3.846" ry="4.209" fill="#2f201a" fill-opacity="0.24"/>
</g>
<g transform="translate(65.630 48.238) rotate(-161.588)">
<ellipse cx="0" cy="0" rx="6.803" ry="4.748" fill="#d8b692" stroke="#4d352b" stroke-opacity="0.20" stroke-width="0.45"/>
<ellipse cx="0" cy="0" rx="5.207" ry="3.151" fill="#2f201a" fill-opacity="0.24"/>
</g>
<g transform="translate(0.533 55.358) rotate(-103.910)">
<ellipse cx="0" cy="0" rx="6.770" ry="5.810" fill="#d8b692" stroke="#4d352b" stroke-opacity="0.20" stroke-width="0.45"/>
<ellipse cx="0" cy="0" rx="5.363" ry="4.403" fill="#2f201a" fill-opacity="0.24"/>
</g>
<g transform="translate(7.924 135.739) rotate(-27.589)">
<ellipse cx="0" cy="0" rx="4.731" ry="6.355" fill="#d8b692" stroke="#4d352b" stroke-opacity="0.20" stroke-width="0.45"/>
<ellipse cx="0" cy="0" rx="3.406" ry="5.030" fill="#2f201a" fill-opacity="0.24"/>
</g>
<g transform="translate(91.926 31.076) rotate(-167.174)">
<ellipse cx="0" cy="0" rx="6.780" ry="4.309" fill="#d8b692" stroke="#4d352b" stroke-opacity="0.20" stroke-width="0.45"/>
<ellipse cx="0" cy="0" rx="5.314" ry="2.843" fill="#2f201a" fill-opacity="0.24"/>
</g>
<g transform="translate(57.748 54.846) rotate(-146.417)">
<ellipse cx="0" cy="0" rx="6.697" ry="4.387" fill="#e8662e" stroke="#4d352b" stroke-opacity="0.20" stroke-width="0.45"/>
<ellipse cx="0" cy="0" rx="5.099" ry="2.789" fill="#2f201a" fill-opacity="0.24"/>
</g>
<g transform="translate(42.769 67.521) rotate(-50.113)">
<ellipse cx="0" cy="0" rx="7.179" ry="6.047" fill="#d8b692" stroke="#4d352b" stroke-opacity="0.20" stroke-width="0.45"/>
<ellipse cx="0" cy="0" rx="5.863" ry="4.731" fill="#2f201a" fill-opacity="0.24"/>
</g>
<g transform="translate(88.314 94.134) rotate(-175.563)">
<ellipse cx="0" cy="0" rx="4.719" ry="5.112" fill="#e8662e" stroke="#4d352b" stroke-opacity="0.20" stroke-width="0.45"/>
<ellipse cx="0" cy="0" rx="3.423" ry="3.817" fill="#2f201a" fill-opacity="0.24"/>
</g>
<g transform="translate(109.828 124.185) rotate(-102.413)">
<ellipse cx="0" cy="0" rx="5.527" ry="6.618" fill="#d8b692" stroke="#4d352b" stroke-opacity="0.20" stroke-width="0.45"/>
<ellipse cx="0" cy="0" rx="4.201" ry="5.292" fill="#2f201a" fill-opacity="0.24"/>
</g>
<g transform="translate(57.484 75.111) rotate(-119.560)">
<ellipse cx="0" cy="0" rx="5.922" ry="4.978" fill="#e8662e" stroke="#4d352b" stroke-opacity="0.20" stroke-width="0.45"/>
<ellipse cx="0" cy="0" rx="4.269" ry="3.325" fill="#2f201a" fill-opacity="0.24"/>
</g>
<g transform="translate(108.208 101.831) rotate(-161.446)">
<ellipse cx="0" cy="0" rx="5.609" ry="4.369" fill="#d8b692" stroke="#4d352b" stroke-opacity="0.20" stroke-width="0.45"/>
<ellipse cx="0" cy="0" rx="4.395" ry="3.155" fill="#2f201a" fill-opacity="0.24"/>
</g>
<g transform="translate(67.283 125.392) rotate(-119.474)">
<ellipse cx="0" cy="0" rx="4.653" ry="5.727" fill="#d8b692" stroke="#4d352b" stroke-opacity="0.20" stroke-width="0.45"/>
<ellipse cx="0" cy="0" rx="3.123" ry="4.197" fill="#2f201a" fill-opacity="0.24"/>
</g>
<g transform="translate(55.684 36.714) rotate(-49.418)">
<ellipse cx="0" cy="0" rx="5.241" ry="4.647" fill="#d8b692" stroke="#4d352b" stroke-opacity="0.20" stroke-width="0.45"/>
<ellipse cx="0" cy="0" rx="3.809" ry="3.214" fill="#2f201a" fill-opacity="0.24"/>
</g>
<g transform="translate(43.016 84.850) rotate(-90.809)">
<ellipse cx="0" cy="0" rx="4.717" ry="5.646" fill="#e8662e" stroke="#4d352b" stroke-opacity="0.20" stroke-width="0.45"/>
<ellipse cx="0" cy="0" rx="3.433" ry="4.362" fill="#2f201a" fill-opacity="0.24"/>
</g>
<g transform="translate(102.261 75.136) rotate(-135.003)">
<ellipse cx="0" cy="0" rx="4.827" ry="4.434" fill="#e8662e" stroke="#4d352b" stroke-opacity="0.20" stroke-width="0.45"/>
<ellipse cx="0" cy="0" rx="3.365" ry="2.972" fill="#2f201a" fill-opacity="0.24"/>
</g>
<g transform="translate(48.556 95.827) rotate(-93.809)">
<ellipse cx="0" cy="0" rx="5.400" ry="4.357" fill="#e8662e" stroke="#4d352b" stroke-opacity="0.20" stroke-width="0.45"/>
<ellipse cx="0" cy="0" rx="4.177" ry="3.134" fill="#2f201a" fill-opacity="0.24"/>
</g>
<g transform="translate(78.856 66.578) rotate(-49.078)">
<ellipse cx="0" cy="0" rx="5.800" ry="5.845" fill="#e8662e" stroke="#4d352b" stroke-opacity="0.20" stroke-width="0.45"/>
<ellipse cx="0" cy="0" rx="4.439" ry="4.484" fill="#2f201a" fill-opacity="0.24"/>
</g>
<g transform="translate(73.223 79.678) rotate(-92.136)">
<ellipse cx="0" cy="0" rx="6.800" ry="5.083" fill="#e8662e" stroke="#4d352b" stroke-opacity="0.20" stroke-width="0.45"/>
<ellipse cx="0" cy="0" rx="5.126" ry="3.408" fill="#2f201a" fill-opacity="0.24"/>
</g>
</svg>
