solid tube_tile_corner_snap_connector
  facet normal 0.000000 0.000000 1.000000
    outer loop
      vertex -23.200000 -23.200000 3.000000
      vertex 23.200000 -23.200000 3.000000
      vertex 23.200000 23.200000 3.000000
    endloop
  endfacet
  facet normal 0.000000 0.000000 1.000000
    outer loop
      vertex -23.200000 -23.200000 3.000000
      vertex 23.200000 23.200000 3.000000
      vertex -23.200000 23.200000 3.000000
    endloop
  endfacet
  facet normal 0.000000 0.000000 -1.000000
    outer loop
      vertex -23.200000 -23.200000 0.000000
      vertex -23.200000 23.200000 0.000000
      vertex 23.200000 23.200000 0.000000
    endloop
  endfacet
  facet normal 0.000000 0.000000 -1.000000
    outer loop
      vertex -23.200000 -23.200000 0.000000
      vertex 23.200000 23.200000 0.000000
      vertex 23.200000 -23.200000 0.000000
    endloop
  endfacet
  facet normal 0.000000 -1.000000 0.000000
    outer loop
      vertex -23.200000 -23.200000 0.000000
      vertex 23.200000 -23.200000 0.000000
      vertex 23.200000 -23.200000 3.000000
    endloop
  endfacet
  facet normal 0.000000 -1.000000 0.000000
    outer loop
      vertex -23.200000 -23.200000 0.000000
      vertex 23.200000 -23.200000 3.000000
      vertex -23.200000 -23.200000 3.000000
    endloop
  endfacet
  facet normal 1.000000 0.000000 0.000000
    outer loop
      vertex 23.200000 -23.200000 0.000000
      vertex 23.200000 23.200000 0.000000
      vertex 23.200000 23.200000 3.000000
    endloop
  endfacet
  facet normal 1.000000 0.000000 0.000000
    outer loop
      vertex 23.200000 -23.200000 0.000000
      vertex 23.200000 23.200000 3.000000
      vertex 23.200000 -23.200000 3.000000
    endloop
  endfacet
  facet normal 0.000000 1.000000 0.000000
    outer loop
      vertex 23.200000 23.200000 0.000000
      vertex -23.200000 23.200000 0.000000
      vertex -23.200000 23.200000 3.000000
    endloop
  endfacet
  facet normal 0.000000 1.000000 -0.000000
    outer loop
      vertex 23.200000 23.200000 0.000000
      vertex -23.200000 23.200000 3.000000
      vertex 23.200000 23.200000 3.000000
    endloop
  endfacet
  facet normal -1.000000 0.000000 0.000000
    outer loop
      vertex -23.200000 23.200000 0.000000
      vertex -23.200000 -23.200000 0.000000
      vertex -23.200000 -23.200000 3.000000
    endloop
  endfacet
  facet normal -1.000000 0.000000 0.000000
    outer loop
      vertex -23.200000 23.200000 0.000000
      vertex -23.200000 -23.200000 3.000000
      vertex -23.200000 23.200000 3.000000
    endloop
  endfacet
  facet normal 0.000000 0.000000 1.000000
    outer loop
      vertex -17.475000 -17.475000 7.000000
      vertex -7.925000 -17.475000 7.000000
      vertex -7.925000 -7.925000 7.000000
    endloop
  endfacet
  facet normal 0.000000 0.000000 1.000000
    outer loop
      vertex -17.475000 -17.475000 7.000000
      vertex -7.925000 -7.925000 7.000000
      vertex -17.475000 -7.925000 7.000000
    endloop
  endfacet
  facet normal 0.000000 0.000000 -1.000000
    outer loop
      vertex -17.475000 -17.475000 3.000000
      vertex -17.475000 -7.925000 3.000000
      vertex -7.925000 -7.925000 3.000000
    endloop
  endfacet
  facet normal 0.000000 0.000000 -1.000000
    outer loop
      vertex -17.475000 -17.475000 3.000000
      vertex -7.925000 -7.925000 3.000000
      vertex -7.925000 -17.475000 3.000000
    endloop
  endfacet
  facet normal 0.000000 -1.000000 0.000000
    outer loop
      vertex -17.475000 -17.475000 3.000000
      vertex -7.925000 -17.475000 3.000000
      vertex -7.925000 -17.475000 7.000000
    endloop
  endfacet
  facet normal 0.000000 -1.000000 0.000000
    outer loop
      vertex -17.475000 -17.475000 3.000000
      vertex -7.925000 -17.475000 7.000000
      vertex -17.475000 -17.475000 7.000000
    endloop
  endfacet
  facet normal 1.000000 0.000000 0.000000
    outer loop
      vertex -7.925000 -17.475000 3.000000
      vertex -7.925000 -7.925000 3.000000
      vertex -7.925000 -7.925000 7.000000
    endloop
  endfacet
  facet normal 1.000000 0.000000 0.000000
    outer loop
      vertex -7.925000 -17.475000 3.000000
      vertex -7.925000 -7.925000 7.000000
      vertex -7.925000 -17.475000 7.000000
    endloop
  endfacet
  facet normal 0.000000 1.000000 0.000000
    outer loop
      vertex -7.925000 -7.925000 3.000000
      vertex -17.475000 -7.925000 3.000000
      vertex -17.475000 -7.925000 7.000000
    endloop
  endfacet
  facet normal 0.000000 1.000000 -0.000000
    outer loop
      vertex -7.925000 -7.925000 3.000000
      vertex -17.475000 -7.925000 7.000000
      vertex -7.925000 -7.925000 7.000000
    endloop
  endfacet
  facet normal -1.000000 0.000000 0.000000
    outer loop
      vertex -17.475000 -7.925000 3.000000
      vertex -17.475000 -17.475000 3.000000
      vertex -17.475000 -17.475000 7.000000
    endloop
  endfacet
  facet normal -1.000000 0.000000 0.000000
    outer loop
      vertex -17.475000 -7.925000 3.000000
      vertex -17.475000 -17.475000 7.000000
      vertex -17.475000 -7.925000 7.000000
    endloop
  endfacet
  facet normal 0.000000 0.000000 1.000000
    outer loop
      vertex -17.925000 -13.750000 6.650000
      vertex -7.475000 -13.750000 6.650000
      vertex -7.475000 -11.650000 6.650000
    endloop
  endfacet
  facet normal 0.000000 0.000000 1.000000
    outer loop
      vertex -17.925000 -13.750000 6.650000
      vertex -7.475000 -11.650000 6.650000
      vertex -17.925000 -11.650000 6.650000
    endloop
  endfacet
  facet normal 0.000000 0.000000 -1.000000
    outer loop
      vertex -17.925000 -13.750000 5.320000
      vertex -17.925000 -11.650000 5.320000
      vertex -7.475000 -11.650000 5.320000
    endloop
  endfacet
  facet normal 0.000000 0.000000 -1.000000
    outer loop
      vertex -17.925000 -13.750000 5.320000
      vertex -7.475000 -11.650000 5.320000
      vertex -7.475000 -13.750000 5.320000
    endloop
  endfacet
  facet normal 0.000000 -1.000000 0.000000
    outer loop
      vertex -17.925000 -13.750000 5.320000
      vertex -7.475000 -13.750000 5.320000
      vertex -7.475000 -13.750000 6.650000
    endloop
  endfacet
  facet normal 0.000000 -1.000000 0.000000
    outer loop
      vertex -17.925000 -13.750000 5.320000
      vertex -7.475000 -13.750000 6.650000
      vertex -17.925000 -13.750000 6.650000
    endloop
  endfacet
  facet normal 1.000000 0.000000 0.000000
    outer loop
      vertex -7.475000 -13.750000 5.320000
      vertex -7.475000 -11.650000 5.320000
      vertex -7.475000 -11.650000 6.650000
    endloop
  endfacet
  facet normal 1.000000 0.000000 0.000000
    outer loop
      vertex -7.475000 -13.750000 5.320000
      vertex -7.475000 -11.650000 6.650000
      vertex -7.475000 -13.750000 6.650000
    endloop
  endfacet
  facet normal 0.000000 1.000000 0.000000
    outer loop
      vertex -7.475000 -11.650000 5.320000
      vertex -17.925000 -11.650000 5.320000
      vertex -17.925000 -11.650000 6.650000
    endloop
  endfacet
  facet normal 0.000000 1.000000 -0.000000
    outer loop
      vertex -7.475000 -11.650000 5.320000
      vertex -17.925000 -11.650000 6.650000
      vertex -7.475000 -11.650000 6.650000
    endloop
  endfacet
  facet normal -1.000000 0.000000 0.000000
    outer loop
      vertex -17.925000 -11.650000 5.320000
      vertex -17.925000 -13.750000 5.320000
      vertex -17.925000 -13.750000 6.650000
    endloop
  endfacet
  facet normal -1.000000 0.000000 0.000000
    outer loop
      vertex -17.925000 -11.650000 5.320000
      vertex -17.925000 -13.750000 6.650000
      vertex -17.925000 -11.650000 6.650000
    endloop
  endfacet
  facet normal 0.000000 0.000000 1.000000
    outer loop
      vertex 7.925000 -17.475000 7.000000
      vertex 17.475000 -17.475000 7.000000
      vertex 17.475000 -7.925000 7.000000
    endloop
  endfacet
  facet normal 0.000000 0.000000 1.000000
    outer loop
      vertex 7.925000 -17.475000 7.000000
      vertex 17.475000 -7.925000 7.000000
      vertex 7.925000 -7.925000 7.000000
    endloop
  endfacet
  facet normal 0.000000 0.000000 -1.000000
    outer loop
      vertex 7.925000 -17.475000 3.000000
      vertex 7.925000 -7.925000 3.000000
      vertex 17.475000 -7.925000 3.000000
    endloop
  endfacet
  facet normal 0.000000 0.000000 -1.000000
    outer loop
      vertex 7.925000 -17.475000 3.000000
      vertex 17.475000 -7.925000 3.000000
      vertex 17.475000 -17.475000 3.000000
    endloop
  endfacet
  facet normal 0.000000 -1.000000 0.000000
    outer loop
      vertex 7.925000 -17.475000 3.000000
      vertex 17.475000 -17.475000 3.000000
      vertex 17.475000 -17.475000 7.000000
    endloop
  endfacet
  facet normal 0.000000 -1.000000 0.000000
    outer loop
      vertex 7.925000 -17.475000 3.000000
      vertex 17.475000 -17.475000 7.000000
      vertex 7.925000 -17.475000 7.000000
    endloop
  endfacet
  facet normal 1.000000 0.000000 0.000000
    outer loop
      vertex 17.475000 -17.475000 3.000000
      vertex 17.475000 -7.925000 3.000000
      vertex 17.475000 -7.925000 7.000000
    endloop
  endfacet
  facet normal 1.000000 0.000000 0.000000
    outer loop
      vertex 17.475000 -17.475000 3.000000
      vertex 17.475000 -7.925000 7.000000
      vertex 17.475000 -17.475000 7.000000
    endloop
  endfacet
  facet normal 0.000000 1.000000 0.000000
    outer loop
      vertex 17.475000 -7.925000 3.000000
      vertex 7.925000 -7.925000 3.000000
      vertex 7.925000 -7.925000 7.000000
    endloop
  endfacet
  facet normal 0.000000 1.000000 -0.000000
    outer loop
      vertex 17.475000 -7.925000 3.000000
      vertex 7.925000 -7.925000 7.000000
      vertex 17.475000 -7.925000 7.000000
    endloop
  endfacet
  facet normal -1.000000 0.000000 0.000000
    outer loop
      vertex 7.925000 -7.925000 3.000000
      vertex 7.925000 -17.475000 3.000000
      vertex 7.925000 -17.475000 7.000000
    endloop
  endfacet
  facet normal -1.000000 0.000000 0.000000
    outer loop
      vertex 7.925000 -7.925000 3.000000
      vertex 7.925000 -17.475000 7.000000
      vertex 7.925000 -7.925000 7.000000
    endloop
  endfacet
  facet normal 0.000000 0.000000 1.000000
    outer loop
      vertex 7.475000 -13.750000 6.650000
      vertex 17.925000 -13.750000 6.650000
      vertex 17.925000 -11.650000 6.650000
    endloop
  endfacet
  facet normal 0.000000 0.000000 1.000000
    outer loop
      vertex 7.475000 -13.750000 6.650000
      vertex 17.925000 -11.650000 6.650000
      vertex 7.475000 -11.650000 6.650000
    endloop
  endfacet
  facet normal 0.000000 0.000000 -1.000000
    outer loop
      vertex 7.475000 -13.750000 5.320000
      vertex 7.475000 -11.650000 5.320000
      vertex 17.925000 -11.650000 5.320000
    endloop
  endfacet
  facet normal 0.000000 0.000000 -1.000000
    outer loop
      vertex 7.475000 -13.750000 5.320000
      vertex 17.925000 -11.650000 5.320000
      vertex 17.925000 -13.750000 5.320000
    endloop
  endfacet
  facet normal 0.000000 -1.000000 0.000000
    outer loop
      vertex 7.475000 -13.750000 5.320000
      vertex 17.925000 -13.750000 5.320000
      vertex 17.925000 -13.750000 6.650000
    endloop
  endfacet
  facet normal 0.000000 -1.000000 0.000000
    outer loop
      vertex 7.475000 -13.750000 5.320000
      vertex 17.925000 -13.750000 6.650000
      vertex 7.475000 -13.750000 6.650000
    endloop
  endfacet
  facet normal 1.000000 0.000000 0.000000
    outer loop
      vertex 17.925000 -13.750000 5.320000
      vertex 17.925000 -11.650000 5.320000
      vertex 17.925000 -11.650000 6.650000
    endloop
  endfacet
  facet normal 1.000000 0.000000 0.000000
    outer loop
      vertex 17.925000 -13.750000 5.320000
      vertex 17.925000 -11.650000 6.650000
      vertex 17.925000 -13.750000 6.650000
    endloop
  endfacet
  facet normal 0.000000 1.000000 0.000000
    outer loop
      vertex 17.925000 -11.650000 5.320000
      vertex 7.475000 -11.650000 5.320000
      vertex 7.475000 -11.650000 6.650000
    endloop
  endfacet
  facet normal 0.000000 1.000000 -0.000000
    outer loop
      vertex 17.925000 -11.650000 5.320000
      vertex 7.475000 -11.650000 6.650000
      vertex 17.925000 -11.650000 6.650000
    endloop
  endfacet
  facet normal -1.000000 0.000000 0.000000
    outer loop
      vertex 7.475000 -11.650000 5.320000
      vertex 7.475000 -13.750000 5.320000
      vertex 7.475000 -13.750000 6.650000
    endloop
  endfacet
  facet normal -1.000000 0.000000 0.000000
    outer loop
      vertex 7.475000 -11.650000 5.320000
      vertex 7.475000 -13.750000 6.650000
      vertex 7.475000 -11.650000 6.650000
    endloop
  endfacet
  facet normal 0.000000 0.000000 1.000000
    outer loop
      vertex -17.475000 7.925000 7.000000
      vertex -7.925000 7.925000 7.000000
      vertex -7.925000 17.475000 7.000000
    endloop
  endfacet
  facet normal 0.000000 0.000000 1.000000
    outer loop
      vertex -17.475000 7.925000 7.000000
      vertex -7.925000 17.475000 7.000000
      vertex -17.475000 17.475000 7.000000
    endloop
  endfacet
  facet normal 0.000000 0.000000 -1.000000
    outer loop
      vertex -17.475000 7.925000 3.000000
      vertex -17.475000 17.475000 3.000000
      vertex -7.925000 17.475000 3.000000
    endloop
  endfacet
  facet normal 0.000000 0.000000 -1.000000
    outer loop
      vertex -17.475000 7.925000 3.000000
      vertex -7.925000 17.475000 3.000000
      vertex -7.925000 7.925000 3.000000
    endloop
  endfacet
  facet normal 0.000000 -1.000000 0.000000
    outer loop
      vertex -17.475000 7.925000 3.000000
      vertex -7.925000 7.925000 3.000000
      vertex -7.925000 7.925000 7.000000
    endloop
  endfacet
  facet normal 0.000000 -1.000000 0.000000
    outer loop
      vertex -17.475000 7.925000 3.000000
      vertex -7.925000 7.925000 7.000000
      vertex -17.475000 7.925000 7.000000
    endloop
  endfacet
  facet normal 1.000000 0.000000 0.000000
    outer loop
      vertex -7.925000 7.925000 3.000000
      vertex -7.925000 17.475000 3.000000
      vertex -7.925000 17.475000 7.000000
    endloop
  endfacet
  facet normal 1.000000 0.000000 0.000000
    outer loop
      vertex -7.925000 7.925000 3.000000
      vertex -7.925000 17.475000 7.000000
      vertex -7.925000 7.925000 7.000000
    endloop
  endfacet
  facet normal 0.000000 1.000000 0.000000
    outer loop
      vertex -7.925000 17.475000 3.000000
      vertex -17.475000 17.475000 3.000000
      vertex -17.475000 17.475000 7.000000
    endloop
  endfacet
  facet normal 0.000000 1.000000 -0.000000
    outer loop
      vertex -7.925000 17.475000 3.000000
      vertex -17.475000 17.475000 7.000000
      vertex -7.925000 17.475000 7.000000
    endloop
  endfacet
  facet normal -1.000000 0.000000 0.000000
    outer loop
      vertex -17.475000 17.475000 3.000000
      vertex -17.475000 7.925000 3.000000
      vertex -17.475000 7.925000 7.000000
    endloop
  endfacet
  facet normal -1.000000 0.000000 0.000000
    outer loop
      vertex -17.475000 17.475000 3.000000
      vertex -17.475000 7.925000 7.000000
      vertex -17.475000 17.475000 7.000000
    endloop
  endfacet
  facet normal 0.000000 0.000000 1.000000
    outer loop
      vertex -17.925000 11.650000 6.650000
      vertex -7.475000 11.650000 6.650000
      vertex -7.475000 13.750000 6.650000
    endloop
  endfacet
  facet normal 0.000000 0.000000 1.000000
    outer loop
      vertex -17.925000 11.650000 6.650000
      vertex -7.475000 13.750000 6.650000
      vertex -17.925000 13.750000 6.650000
    endloop
  endfacet
  facet normal 0.000000 0.000000 -1.000000
    outer loop
      vertex -17.925000 11.650000 5.320000
      vertex -17.925000 13.750000 5.320000
      vertex -7.475000 13.750000 5.320000
    endloop
  endfacet
  facet normal 0.000000 0.000000 -1.000000
    outer loop
      vertex -17.925000 11.650000 5.320000
      vertex -7.475000 13.750000 5.320000
      vertex -7.475000 11.650000 5.320000
    endloop
  endfacet
  facet normal 0.000000 -1.000000 0.000000
    outer loop
      vertex -17.925000 11.650000 5.320000
      vertex -7.475000 11.650000 5.320000
      vertex -7.475000 11.650000 6.650000
    endloop
  endfacet
  facet normal 0.000000 -1.000000 0.000000
    outer loop
      vertex -17.925000 11.650000 5.320000
      vertex -7.475000 11.650000 6.650000
      vertex -17.925000 11.650000 6.650000
    endloop
  endfacet
  facet normal 1.000000 0.000000 0.000000
    outer loop
      vertex -7.475000 11.650000 5.320000
      vertex -7.475000 13.750000 5.320000
      vertex -7.475000 13.750000 6.650000
    endloop
  endfacet
  facet normal 1.000000 0.000000 0.000000
    outer loop
      vertex -7.475000 11.650000 5.320000
      vertex -7.475000 13.750000 6.650000
      vertex -7.475000 11.650000 6.650000
    endloop
  endfacet
  facet normal 0.000000 1.000000 0.000000
    outer loop
      vertex -7.475000 13.750000 5.320000
      vertex -17.925000 13.750000 5.320000
      vertex -17.925000 13.750000 6.650000
    endloop
  endfacet
  facet normal 0.000000 1.000000 -0.000000
    outer loop
      vertex -7.475000 13.750000 5.320000
      vertex -17.925000 13.750000 6.650000
      vertex -7.475000 13.750000 6.650000
    endloop
  endfacet
  facet normal -1.000000 0.000000 0.000000
    outer loop
      vertex -17.925000 13.750000 5.320000
      vertex -17.925000 11.650000 5.320000
      vertex -17.925000 11.650000 6.650000
    endloop
  endfacet
  facet normal -1.000000 0.000000 0.000000
    outer loop
      vertex -17.925000 13.750000 5.320000
      vertex -17.925000 11.650000 6.650000
      vertex -17.925000 13.750000 6.650000
    endloop
  endfacet
  facet normal 0.000000 0.000000 1.000000
    outer loop
      vertex 7.925000 7.925000 7.000000
      vertex 17.475000 7.925000 7.000000
      vertex 17.475000 17.475000 7.000000
    endloop
  endfacet
  facet normal 0.000000 0.000000 1.000000
    outer loop
      vertex 7.925000 7.925000 7.000000
      vertex 17.475000 17.475000 7.000000
      vertex 7.925000 17.475000 7.000000
    endloop
  endfacet
  facet normal 0.000000 0.000000 -1.000000
    outer loop
      vertex 7.925000 7.925000 3.000000
      vertex 7.925000 17.475000 3.000000
      vertex 17.475000 17.475000 3.000000
    endloop
  endfacet
  facet normal 0.000000 0.000000 -1.000000
    outer loop
      vertex 7.925000 7.925000 3.000000
      vertex 17.475000 17.475000 3.000000
      vertex 17.475000 7.925000 3.000000
    endloop
  endfacet
  facet normal 0.000000 -1.000000 0.000000
    outer loop
      vertex 7.925000 7.925000 3.000000
      vertex 17.475000 7.925000 3.000000
      vertex 17.475000 7.925000 7.000000
    endloop
  endfacet
  facet normal 0.000000 -1.000000 0.000000
    outer loop
      vertex 7.925000 7.925000 3.000000
      vertex 17.475000 7.925000 7.000000
      vertex 7.925000 7.925000 7.000000
    endloop
  endfacet
  facet normal 1.000000 0.000000 0.000000
    outer loop
      vertex 17.475000 7.925000 3.000000
      vertex 17.475000 17.475000 3.000000
      vertex 17.475000 17.475000 7.000000
    endloop
  endfacet
  facet normal 1.000000 0.000000 0.000000
    outer loop
      vertex 17.475000 7.925000 3.000000
      vertex 17.475000 17.475000 7.000000
      vertex 17.475000 7.925000 7.000000
    endloop
  endfacet
  facet normal 0.000000 1.000000 0.000000
    outer loop
      vertex 17.475000 17.475000 3.000000
      vertex 7.925000 17.475000 3.000000
      vertex 7.925000 17.475000 7.000000
    endloop
  endfacet
  facet normal 0.000000 1.000000 -0.000000
    outer loop
      vertex 17.475000 17.475000 3.000000
      vertex 7.925000 17.475000 7.000000
      vertex 17.475000 17.475000 7.000000
    endloop
  endfacet
  facet normal -1.000000 0.000000 0.000000
    outer loop
      vertex 7.925000 17.475000 3.000000
      vertex 7.925000 7.925000 3.000000
      vertex 7.925000 7.925000 7.000000
    endloop
  endfacet
  facet normal -1.000000 0.000000 0.000000
    outer loop
      vertex 7.925000 17.475000 3.000000
      vertex 7.925000 7.925000 7.000000
      vertex 7.925000 17.475000 7.000000
    endloop
  endfacet
  facet normal 0.000000 0.000000 1.000000
    outer loop
      vertex 7.475000 11.650000 6.650000
      vertex 17.925000 11.650000 6.650000
      vertex 17.925000 13.750000 6.650000
    endloop
  endfacet
  facet normal 0.000000 0.000000 1.000000
    outer loop
      vertex 7.475000 11.650000 6.650000
      vertex 17.925000 13.750000 6.650000
      vertex 7.475000 13.750000 6.650000
    endloop
  endfacet
  facet normal 0.000000 0.000000 -1.000000
    outer loop
      vertex 7.475000 11.650000 5.320000
      vertex 7.475000 13.750000 5.320000
      vertex 17.925000 13.750000 5.320000
    endloop
  endfacet
  facet normal 0.000000 0.000000 -1.000000
    outer loop
      vertex 7.475000 11.650000 5.320000
      vertex 17.925000 13.750000 5.320000
      vertex 17.925000 11.650000 5.320000
    endloop
  endfacet
  facet normal 0.000000 -1.000000 0.000000
    outer loop
      vertex 7.475000 11.650000 5.320000
      vertex 17.925000 11.650000 5.320000
      vertex 17.925000 11.650000 6.650000
    endloop
  endfacet
  facet normal 0.000000 -1.000000 0.000000
    outer loop
      vertex 7.475000 11.650000 5.320000
      vertex 17.925000 11.650000 6.650000
      vertex 7.475000 11.650000 6.650000
    endloop
  endfacet
  facet normal 1.000000 0.000000 0.000000
    outer loop
      vertex 17.925000 11.650000 5.320000
      vertex 17.925000 13.750000 5.320000
      vertex 17.925000 13.750000 6.650000
    endloop
  endfacet
  facet normal 1.000000 0.000000 0.000000
    outer loop
      vertex 17.925000 11.650000 5.320000
      vertex 17.925000 13.750000 6.650000
      vertex 17.925000 11.650000 6.650000
    endloop
  endfacet
  facet normal 0.000000 1.000000 0.000000
    outer loop
      vertex 17.925000 13.750000 5.320000
      vertex 7.475000 13.750000 5.320000
      vertex 7.475000 13.750000 6.650000
    endloop
  endfacet
  facet normal 0.000000 1.000000 -0.000000
    outer loop
      vertex 17.925000 13.750000 5.320000
      vertex 7.475000 13.750000 6.650000
      vertex 17.925000 13.750000 6.650000
    endloop
  endfacet
  facet normal -1.000000 0.000000 0.000000
    outer loop
      vertex 7.475000 13.750000 5.320000
      vertex 7.475000 11.650000 5.320000
      vertex 7.475000 11.650000 6.650000
    endloop
  endfacet
  facet normal -1.000000 0.000000 0.000000
    outer loop
      vertex 7.475000 13.750000 5.320000
      vertex 7.475000 11.650000 6.650000
      vertex 7.475000 13.750000 6.650000
    endloop
  endfacet
endsolid tube_tile_corner_snap_connector
